<svg width="57" height="65" viewBox="0 0 57 65" fill="none" xmlns="http://www.w3.org/2000/svg">
<path d="M6.07682 15.0989C3.77914 13.6261 1.95278 11.9765 1.12797 10.0323C0.892315 9.56095 0.774476 9.03072 0.715561 8.50049V8.55939C0.715561 9.44312 0.715561 10.3269 0.715561 11.2695V11.5641C0.715561 11.9176 0.774478 12.271 0.833393 12.6245C1.12797 14.8633 3.42564 16.7486 6.13573 18.3982V15.0989H6.07682Z" fill="#FF0000"/>
<path d="M56.1544 9.32542V9.03085V8.97192C56.0954 9.56107 55.9187 10.0913 55.6241 10.6216C54.7404 12.389 52.7373 13.9208 50.3807 15.2169V18.3983C52.6784 17.1611 54.5636 15.7471 55.683 13.9797C56.5668 12.6247 56.2133 10.7983 56.1544 9.38433V9.32542Z" fill="#FF0000"/>
<path d="M29.8784 0.0758752C19.6273 -0.336529 1.18693 0.72394 0.656693 8.5007C0.715607 9.03093 0.89235 9.56116 1.06909 10.0325C3.95592 3.61076 20.2753 3.08054 29.8784 3.25728C38.8924 3.43403 52.6196 4.90689 55.6242 10.5627C55.8599 10.0325 56.0366 9.50225 56.1545 8.9131C55.4475 1.84332 39.4816 0.429374 29.8784 0.0169703V0.0758752Z" fill="#575756"/>
<path d="M41.1312 38.9006V44.851C41.1312 47.7378 40.3064 50.4479 38.8335 52.6278C38.2443 53.5704 37.5374 54.3952 36.7126 55.1022C34.5327 57.1053 31.7048 58.2836 28.6412 58.2836H28.2288C25.1652 58.2836 22.3373 57.1053 20.1575 55.1022C19.3916 54.4541 18.7435 53.6293 18.1544 52.8045C16.6226 50.5658 15.7389 47.8557 15.7389 44.851V38.9006C23.7513 28.296 32.294 27.7657 41.0133 38.9006H41.1312Z" fill="#FF0000"/>
<path d="M20.3929 55.3381L18.272 55.1613L17.1526 55.0435H16.858C15.6208 54.9256 14.5014 54.3954 13.7355 53.5117C13.382 53.0993 13.0875 52.6869 12.9107 52.1567L11.0254 47.738C10.7309 47.0311 10.613 46.3241 10.6719 45.6171C10.6719 45.2047 10.7309 44.8512 10.9076 44.4388C11.0843 43.9086 11.3789 43.3783 11.7324 42.907V42.8481L13.7355 40.9628L15.7975 39.0186L15.8565 38.9597C16.5045 43.8496 16.7402 48.9163 18.6254 52.7458C19.0379 53.6295 19.5681 54.3954 20.1572 55.1024L20.334 55.2791L20.3929 55.3381Z" fill="#FF0000"/>
<path d="M45.9031 47.6787L44.0178 52.0973C43.8411 52.5097 43.6643 52.8632 43.3697 53.1578C42.5449 54.2182 41.3666 54.8663 40.0116 54.9841H39.717L38.5976 55.102L36.5356 55.2787L36.7124 55.102C37.3604 54.3361 37.8907 53.4524 38.362 52.5097C40.1883 48.6803 40.424 43.7314 41.0132 38.9004L41.0721 38.9593L42.7806 40.55L44.9604 42.612L45.1372 42.7888C45.5496 43.2601 45.7853 43.7903 45.962 44.3795C46.0798 44.733 46.1387 45.1454 46.1976 45.5578C46.2566 46.2648 46.1387 46.9717 45.8442 47.6787H45.9031Z" fill="#FF0000"/>
<path d="M33.7666 49.0339C33.7666 51.9796 31.3511 54.3362 28.4642 54.3362C25.5185 54.3362 23.1619 51.9207 23.1619 49.0339C23.1619 46.0881 25.5774 43.6726 28.4642 43.6726C31.41 43.6726 33.7666 46.0881 33.7666 49.0339Z" fill="#FF0000"/>
<path d="M50.2038 32.1843L50.1449 32.2432L50.2038 32.3022V32.1843Z" fill="#FF0000"/>
<path d="M14.914 41.67C11.3792 39.3134 8.13883 36.839 7.01945 33.363C6.84271 32.8328 6.72487 32.3025 6.66595 31.7134V31.7723C6.66595 32.7149 6.66595 33.6576 6.66595 34.6002V34.8948C6.66595 35.3072 6.72487 35.6607 6.72487 36.0731C7.07836 39.8436 11.4381 42.7894 14.8551 45.0871C14.1481 44.6157 15.5621 42.2002 14.8551 41.7289L14.914 41.67Z" fill="#FF0000"/>
<path d="M50.204 32.5969V32.3023V32.2434C50.1451 32.8326 50.0272 33.4217 49.7916 33.9519C48.6133 37.0744 45.2551 39.3721 41.8381 41.1396C41.1311 41.4931 42.4862 44.2031 41.8381 44.4977C45.2551 42.7303 48.3776 40.5504 49.8505 37.4868C50.5575 36.0729 50.2629 34.1287 50.204 32.5969Z" fill="#FF0000"/>
<path d="M29.5838 22.8169C21.5125 22.4044 7.07836 23.4649 6.66595 31.713C6.72487 32.3021 6.84271 32.8324 7.01945 33.3626C9.31713 26.5285 22.0427 25.9983 29.5838 26.175C36.6536 26.3517 47.435 27.9424 49.7916 33.9518C49.9684 33.4215 50.1451 32.8324 50.204 32.2432C49.6738 24.761 37.1249 23.2293 29.6427 22.8169H29.5838Z" fill="#575756"/>
<path d="M11.6148 53.5118C11.3791 53.2172 11.2024 52.9226 10.9667 52.5692C8.0799 48.3273 7.01943 45.087 6.96052 43.7908C6.96052 43.4373 7.01943 43.2606 7.13726 43.1428C7.49074 42.9071 8.84579 43.6141 10.6721 45.4994C10.8489 45.6761 11.0256 45.9118 11.2613 46.0885C11.7915 46.6777 12.3218 47.2668 12.7931 47.9738L13.0877 48.3273C13.2644 48.5629 13.4411 48.7986 13.6179 49.0932L13.7946 49.3877L14.0892 49.8002L14.3838 50.2715C15.0319 51.273 15.6799 52.2157 16.1512 53.1583L16.2101 53.2761C16.328 53.5118 16.4458 53.7475 16.5636 53.9831L16.7404 54.3366C16.8582 54.5723 16.976 54.8079 17.0939 55.0436C18.3311 57.6947 18.5667 59.4033 18.1543 59.6978C18.0365 59.7568 17.8008 59.7568 17.5063 59.6389C16.3869 59.1676 14.0892 57.2234 11.497 53.5707L11.6148 53.5118ZM18.3311 55.1025C18.0365 54.3955 17.683 53.6885 17.2706 52.9816C16.6226 51.8033 15.9745 50.6839 15.2675 49.6823C14.0892 47.9149 12.4396 45.8529 10.9078 44.3211C9.19928 42.6715 7.60857 41.6699 6.60702 42.318C6.31245 42.5536 6.13571 42.8482 6.0768 43.3195C5.90005 44.2033 6.25354 45.5583 6.84269 47.0312C6.96052 47.3257 7.07834 47.6203 7.19617 47.9149C7.72641 49.0932 8.37447 50.3304 9.08144 51.4498L9.25819 51.8033C9.37602 51.98 9.49385 52.1567 9.61168 52.3335L9.6706 52.4513L9.78843 52.6281L9.96518 52.9227L10.1419 53.2172L10.3776 53.5707L10.5543 53.8064C10.6721 53.9831 10.79 54.1599 10.9667 54.3366L11.0256 54.3955C11.9683 55.6917 13.0877 56.9878 14.1481 58.1071C14.3249 58.2839 14.5016 58.4606 14.6784 58.5785L14.9729 58.8141C15.9745 59.7568 16.9171 60.4048 17.7419 60.5816C18.1543 60.6994 18.5667 60.6405 18.8613 60.4048C19.9218 59.6979 19.4505 57.4591 18.3311 55.0436V55.1025Z" fill="#A96C39"/>
<path d="M18.0953 60.3458L17.6829 60.6404L13.4411 63.5272L12.5573 64.1163L12.3217 63.7039L11.4969 62.4667L11.3201 62.1722L8.8457 58.5194L8.4333 57.9892L5.19298 53.1582L5.01624 52.9225L4.66274 52.3334L2.18832 48.6807L2.01158 48.445L1.18677 47.2078L0.892197 46.7954L1.717 46.2062H1.77592L6.01779 43.3783L6.43019 43.0837L6.96043 43.7907L13.4411 53.4528L17.624 59.5799L18.0953 60.3458Z" fill="#D3996A"/>
<path d="M0.892149 46.795C2.07045 45.9702 5.66426 49.2106 8.90457 53.9827C12.1449 58.7548 13.7945 63.2912 12.6162 64.0571C11.4379 64.8819 7.84411 61.6416 4.60379 56.8695C1.36347 52.0974 -0.286148 47.5609 0.892149 46.795Z" fill="#FED0A9"/>
<path d="M7.13716 53.3351L6.66584 53.2762C4.66273 50.5661 3.01312 49.211 2.30614 48.6808H2.18831L2.1294 48.7986C2.30615 49.4467 2.77746 50.9196 3.83793 52.9227L3.42553 52.8637C2.42397 50.9196 2.01157 49.5645 1.83482 48.9165C1.77591 48.7397 1.89374 48.563 2.01157 48.4451C2.07049 48.3862 2.18831 48.3862 2.30614 48.3862C2.42397 48.3862 2.48289 48.4451 2.54181 48.4451C3.24878 48.9754 5.01622 50.5072 7.13716 53.394V53.3351Z" fill="#B08F75"/>
<path d="M12.3215 63.7038C11.7324 64.1162 8.60989 61.9952 5.01609 56.634C4.07345 55.22 3.30755 53.9239 2.7184 52.7456C1.06878 49.5642 0.774208 47.5022 1.18661 47.2076C1.71685 46.8541 4.54477 48.7394 7.90291 53.4526C8.07966 53.7472 8.31532 53.9828 8.49206 54.2774C12.0859 59.5797 12.9107 63.2914 12.3215 63.7038ZM9.31687 53.7472L9.14012 53.5115C7.0781 50.5068 3.83778 46.7363 1.71685 46.265C1.30444 46.1471 0.892047 46.206 0.597473 46.4417C-0.580824 47.2665 0.126152 49.8588 1.48119 52.5689C2.24709 54.2185 3.24863 55.8681 4.19127 57.2231C6.66569 60.8759 10.9665 65.8247 12.8518 64.5286C13.1463 64.2929 13.3231 63.9983 13.382 63.5859C13.7355 61.4061 11.32 56.8107 9.25795 53.7472H9.31687Z" fill="#A96C39"/>
<path d="M6.43005 43.0834C7.60835 42.2586 11.2021 45.4989 14.4425 50.271C17.6828 55.0431 19.3324 59.5795 18.1541 60.3454C16.9758 61.1702 13.382 57.9299 10.1417 53.1578C6.90137 48.3857 5.25176 43.8493 6.43005 43.0834Z" fill="#D3996A"/>
<path d="M5.7822 53.2166C5.60546 53.2166 5.42871 53.1577 5.25197 53.1577L5.01632 52.9221L5.13414 53.1577L4.72174 53.0988C4.66282 52.9221 4.60391 52.8042 4.545 52.6864L4.66282 52.3918L5.01632 52.4508C5.19306 52.5686 5.42872 52.8632 5.7822 53.2756V53.2166Z" fill="#B08F75"/>
<path d="M45.9622 52.6277C45.8444 52.8634 45.6676 53.0401 45.5498 53.2758C42.8397 57.1053 40.4831 59.1673 39.3048 59.6386C39.0102 59.7564 38.7746 59.8153 38.6568 59.6975C38.2444 59.4619 38.48 57.6944 39.7172 55.0432C39.8351 54.8076 39.9529 54.5719 40.0707 54.3363C40.3064 53.8649 40.542 53.4525 40.8366 52.9812C40.9544 52.8045 41.0723 52.5688 41.1901 52.3921L41.3668 52.0386C41.7203 51.4494 42.0738 50.9192 42.4862 50.3301L42.7808 49.8587L43.0754 49.4463L43.2521 49.1518L43.5467 48.7983L43.8413 48.4448L44.1358 48.0913C44.6072 47.5022 45.0196 46.9719 45.4909 46.4417C45.6676 46.2649 45.7855 46.0882 45.9622 45.9704L46.2568 45.6169C48.0831 43.7316 49.4382 43.0246 49.7917 43.2603C49.9095 43.3192 49.9684 43.5548 49.9684 43.9083C49.9684 45.2045 48.849 48.4448 45.9622 52.6867V52.6277ZM50.9111 43.3781C50.8521 42.9657 50.6754 42.6122 50.3808 42.3766C49.3793 41.7285 47.7886 42.73 46.08 44.3797C44.4893 45.9114 42.8986 47.9735 41.7203 49.7409C41.1312 50.6835 40.4242 51.744 39.8351 52.8045C39.4227 53.5704 39.0102 54.3952 38.6568 55.1611C37.5963 57.5766 37.0661 59.8153 38.1265 60.5223C38.4211 60.758 38.8335 60.758 39.2459 60.6991C40.1885 60.4634 41.3079 59.6386 42.4862 58.5192C42.663 58.3425 42.8397 58.1657 43.0754 57.9301C43.9591 56.9874 44.9017 55.8681 45.7265 54.8076L46.0211 54.3952C46.1389 54.2184 46.3157 54.0417 46.4335 53.865C46.5513 53.6882 46.6692 53.5115 46.8459 53.2758L46.9048 53.2169C47.0816 52.9223 47.2583 52.6867 47.4351 52.3921C47.5529 52.2153 47.6707 52.0386 47.7886 51.8619L47.9653 51.5084C48.6723 50.389 49.3204 49.1518 49.8506 47.9735C49.9684 47.6789 50.0862 47.3843 50.2041 47.0897C50.7932 45.6169 51.1467 44.3207 50.97 43.3781H50.9111Z" fill="#A96C39"/>
<path d="M56.0364 46.7954L55.7418 47.2078L54.917 48.445L54.7403 48.6807L52.2658 52.3334L51.9713 52.7458L51.8534 52.9225L48.4364 57.9892L48.0829 58.5194L45.6085 62.1722L45.4317 62.4667L44.6069 63.7039L44.3123 64.1163L43.4875 63.5272L39.2457 60.6404L38.7743 60.3458L39.3046 59.5799L43.6643 53.1582L49.9682 43.8496L50.4984 43.0837L50.9108 43.3783L55.1527 46.2062L56.0364 46.7954Z" fill="#D3996A"/>
<path d="M56.0366 46.795C54.8583 45.9702 51.2645 49.2106 48.0241 53.9827C44.7838 58.7548 43.1342 63.2912 44.3125 64.0571C45.4908 64.8819 49.0846 61.6416 52.3249 56.8695C55.5652 52.0974 57.2149 47.5609 56.0366 46.795Z" fill="#FED0A9"/>
<path d="M50.0271 52.9812C52.0302 50.33 53.6798 48.9161 54.3868 48.3858C54.4457 48.3269 54.5635 48.3269 54.6225 48.3269C54.7403 48.3269 54.7992 48.3858 54.917 48.3858C55.0938 48.5037 55.1527 48.6804 55.0938 48.8571C54.917 49.4463 54.5046 50.6835 53.6798 52.392L53.2674 52.4509C54.21 50.6246 54.6225 49.3285 54.7992 48.7393L54.7403 48.6215H54.6225C53.9744 49.0928 52.4426 50.3889 50.5573 52.8633L50.086 52.9223L50.0271 52.9812Z" fill="#B08F75"/>
<path d="M44.607 63.7038C44.0178 63.2914 44.8426 59.6387 48.4364 54.2774C48.731 53.865 49.0255 53.4526 49.2612 53.0991C52.5015 48.6216 55.1527 46.8541 55.7419 47.2076C56.1543 47.5022 55.8597 49.3875 54.4457 52.3332C53.8566 53.5704 53.0318 55.0433 51.9124 56.634C48.3186 61.9952 45.1961 64.1162 44.607 63.7038ZM56.2721 46.3828C55.9775 46.1472 55.5651 46.1472 55.1527 46.2061C53.1496 46.6774 50.0271 50.2123 47.9651 53.158C47.8473 53.3348 47.7294 53.5115 47.6116 53.6883C45.5496 56.7518 43.1341 61.3472 43.4876 63.527C43.5465 63.9394 43.7232 64.2929 44.0178 64.4697C45.9031 65.7658 50.2628 60.758 52.6783 57.1642C53.6798 55.6914 54.7403 53.865 55.5651 52.0976C56.7434 49.5053 57.3325 47.1487 56.2132 46.3828H56.2721Z" fill="#A96C39"/>
<path d="M50.4983 43.0834C49.32 42.2586 45.7262 45.4989 42.4859 50.271C39.2456 55.0431 37.596 59.5795 38.7743 60.3454C39.9526 61.1702 43.5464 57.9299 46.7867 53.1578C50.027 48.3857 51.6766 43.8493 50.4983 43.0834Z" fill="#D3996A"/>
<path d="M51.5001 52.8048C51.6768 52.6281 51.8536 52.4513 51.9714 52.3924L52.3249 52.3335L52.4427 52.6281V52.687L52.0892 52.7459C51.9125 52.7459 51.7357 52.8048 51.559 52.8048H51.5001Z" fill="#B08F75"/>
<path d="M12.8518 64.5288C13.1464 64.2932 13.3232 63.9986 13.3821 63.5862C13.3232 63.9986 13.1464 64.3521 12.8518 64.5288ZM7.07818 60.935C7.07818 60.935 7.07819 60.8761 7.01928 60.8761C7.01928 60.8761 7.01927 60.935 7.07818 60.935ZM18.0953 60.7583C17.9774 60.7583 17.8596 60.7583 17.7418 60.6994C17.8596 60.6994 17.9774 60.7583 18.0953 60.7583ZM38.8333 60.7583C38.5976 60.7583 38.362 60.6994 38.1263 60.5815C38.3031 60.6994 38.5387 60.7583 38.8333 60.7583ZM39.2457 60.6994C39.2457 60.6994 39.2457 60.6994 39.3046 60.6994C39.3046 60.6994 39.3046 60.6994 39.2457 60.6994ZM5.60531 59.0497C5.60531 59.0497 5.60532 58.9908 5.54641 58.9908C5.54641 58.9908 5.5464 59.0497 5.60531 59.0497ZM5.54641 58.9908C5.54641 58.9908 5.54641 58.9908 5.54641 58.9319C5.54641 58.9319 5.54641 58.9319 5.54641 58.9908ZM5.48749 58.9319C5.48749 58.9319 5.48749 58.9319 5.48749 58.873C5.48749 58.873 5.48749 58.873 5.48749 58.9319ZM5.42858 58.873C5.36966 58.8141 5.31074 58.7552 5.25183 58.6373C5.31074 58.6962 5.36966 58.7552 5.42858 58.873ZM5.19291 58.5784C5.19291 58.5784 5.19291 58.5195 5.13399 58.5195C5.13399 58.5195 5.134 58.5784 5.19291 58.5784ZM5.13399 58.5195C5.13399 58.5195 5.134 58.4606 5.07509 58.4606C5.07509 58.4606 5.07508 58.5195 5.13399 58.5195ZM4.95726 58.2839C4.95726 58.2839 4.95726 58.2249 4.89834 58.2249C4.89834 58.2249 4.89834 58.2839 4.95726 58.2839ZM4.60377 57.8125C4.60377 57.8125 4.60377 57.7536 4.54486 57.7536C4.54486 57.7536 4.54486 57.8125 4.60377 57.8125ZM4.54486 57.6947C4.48594 57.6358 4.48594 57.5769 4.42702 57.5769C4.48594 57.6358 4.48594 57.6947 4.54486 57.6947ZM4.25027 57.2823C4.25027 57.2823 4.25027 57.2823 4.25027 57.2234C4.25027 57.2234 4.25027 57.2234 4.25027 57.2823Z" fill="#E8E8E8"/>
<path d="M28.6411 58.2836H28.2287C25.1651 58.2836 22.3372 57.1053 20.1574 55.1022C19.5682 54.3952 19.038 53.5704 18.6256 52.7456C19.4504 52.5689 20.2163 52.3332 21.0411 52.0975C22.2194 54.9844 25.1062 57.0464 28.4055 57.0464C31.7636 57.0464 34.7093 54.9255 35.8287 51.9797C36.6535 52.2154 37.4783 52.3921 38.3032 52.5689C37.8907 53.5115 37.3016 54.3952 36.6535 55.1611C34.4737 57.1642 31.6458 58.3425 28.5822 58.3425L28.6411 58.2836Z" fill="#FF0000"/>
<path d="M20.3929 55.3381L18.272 55.1614C17.9774 54.4544 17.6239 53.7474 17.2115 53.0404C17.565 52.9815 17.8596 52.9226 18.2131 52.8637L18.6255 52.7458C19.0379 53.6296 19.5681 54.3955 20.1573 55.1025L20.334 55.2792L20.3929 55.3381Z" fill="#3C7474"/>
<path d="M36.5356 55.3379L36.7124 55.1611C37.3604 54.3952 37.8907 53.5115 38.362 52.5688L38.8333 52.6278C39.1868 52.6867 39.4814 52.7456 39.8349 52.8045C39.4224 53.5704 39.01 54.3952 38.6566 55.1611L36.5945 55.3379H36.5356Z" fill="#3C7474"/>
<path d="M28.4643 54.3361C26.3433 54.3361 24.517 53.0989 23.6333 51.3314C25.2829 50.919 26.9914 50.6833 28.6999 50.6833C30.2317 50.6833 31.7635 50.8601 33.2953 51.2136C32.4705 53.0399 30.5852 54.3361 28.4643 54.3361Z" fill="#393938"/>
<path d="M18.0955 60.6993C17.9776 60.6993 17.8598 60.6993 17.742 60.6404L18.0955 60.4047C18.0955 60.4047 18.1544 60.4047 18.1544 60.3458C19.097 59.6977 18.2722 56.752 16.2691 53.1582C16.6226 53.0993 16.9761 53.0404 17.2707 52.9814C17.6831 53.6884 18.0366 54.3954 18.3311 55.1024C18.9792 56.5753 19.4505 57.9892 19.4505 59.0497C19.4505 59.6977 19.2738 60.228 18.8614 60.4636C18.6846 60.5815 18.449 60.6404 18.1544 60.6404L18.0955 60.6993Z" fill="#9B6436"/>
<path d="M13.441 63.5268C13.7945 61.347 11.379 56.7516 9.31693 53.688L9.14018 53.4524C9.55259 53.4524 9.965 53.5113 10.3774 53.5113C13.2053 57.5764 16.21 60.4633 17.6828 60.4633C17.8007 60.4633 17.9774 60.4632 18.0952 60.3454L17.7418 60.5811L13.4999 63.4679L13.441 63.5268Z" fill="#C08C62"/>
<path d="M12.1448 63.7629C11.2611 63.7629 8.37428 61.5831 5.01613 56.6342C4.07349 55.2203 3.30759 53.9241 2.71844 52.7458C2.9541 52.8048 3.18977 52.8048 3.42543 52.8637C3.95566 53.8652 4.60373 55.0435 5.48745 56.2808C8.02079 59.9924 10.1417 61.8187 10.9665 62.4668C11.0254 62.5257 11.1433 62.5846 11.2022 62.5846C11.32 62.5846 11.3789 62.5257 11.4968 62.4668C11.6735 62.349 11.7324 62.1722 11.6735 61.9955C11.3789 60.9939 10.4952 58.3428 8.02079 54.6311C7.72621 54.2187 7.43163 53.8063 7.13706 53.3939C7.37272 53.4528 7.60838 53.4528 7.90296 53.4528C8.0797 53.7474 8.31536 53.9831 8.49211 54.2776C12.0859 59.58 12.9107 63.2916 12.3216 63.704C12.2627 63.7629 12.2037 63.7629 12.1448 63.7629ZM11.2022 62.2311C10.3774 61.642 8.25644 59.8156 5.78202 56.1629C5.01613 54.9846 4.36806 53.9242 3.89675 52.9815C4.19132 53.0404 4.48589 53.0993 4.78047 53.0993C5.01613 53.6296 5.48745 54.5722 6.31225 55.8094C7.37272 57.4001 8.25644 58.2249 8.55101 58.5195L8.90451 58.5784L9.02234 58.2839C8.8456 57.8715 8.43319 56.7521 7.31381 55.1614C6.78357 54.3365 6.25334 53.6885 5.84094 53.2761C6.13551 53.335 6.43008 53.335 6.72466 53.3939C7.07814 53.8652 7.43164 54.3366 7.78512 54.8668C10.2595 58.5195 11.1433 61.1707 11.3789 62.1722L11.32 62.2901H11.2022V62.2311ZM8.49211 57.9893C8.0797 57.5769 7.43163 56.811 6.60682 55.6327C5.89985 54.5722 5.42853 53.7474 5.19287 53.1583H5.25178H5.3107C5.7231 53.5707 6.31226 54.2776 7.01924 55.3381C7.84404 56.5753 8.31535 57.459 8.55101 57.9893H8.49211Z" fill="#E7BE9B"/>
<path d="M11.2024 62.5845C11.0846 62.5845 11.0257 62.5256 10.9667 62.4667C10.1419 61.8775 8.021 59.9922 5.48767 56.2806C4.60394 54.9845 3.95588 53.8651 3.42564 52.8635L3.83805 52.9225C4.30936 53.8651 4.95743 54.9255 5.72332 56.1038C8.19774 59.7566 10.3187 61.5829 11.1435 62.1721H11.2613L11.3202 62.0542C11.0257 61.1116 10.2008 58.4604 7.72642 54.7488C7.37294 54.2186 7.01944 53.7472 6.66596 53.2759L7.13727 53.3349C7.43185 53.7473 7.72643 54.1597 8.02101 54.5721C10.5543 58.2837 11.4381 60.9938 11.6737 61.9364C11.7326 62.1132 11.6737 62.2899 11.497 62.4077C11.4381 62.4666 11.3202 62.5256 11.2024 62.5256V62.5845Z" fill="#A1836C"/>
<path d="M12.1448 64.7056C12.0859 64.7056 12.0859 64.7056 12.027 64.7056H11.9681C10.8487 64.5877 9.31688 63.3505 7.84401 61.8187C7.7851 61.7598 7.72618 61.7009 7.66726 61.5831C7.49052 61.4063 7.31377 61.2296 7.13703 60.9939C7.13703 60.9939 7.13703 60.935 7.07811 60.935C7.07811 60.8761 7.01921 60.8761 7.01921 60.8172C6.54789 60.287 6.07656 59.6978 5.60524 59.1087C5.60524 59.1087 5.60525 59.1087 5.54634 59.0497C5.54634 59.0497 5.54634 58.9908 5.48742 58.9908C5.48742 58.9908 5.48742 58.9908 5.48742 58.9319C5.48742 58.9319 5.48742 58.9319 5.48742 58.873C5.42851 58.8141 5.36959 58.7552 5.31067 58.6373L5.25176 58.5784C5.25176 58.5784 5.25175 58.5195 5.19284 58.5195C5.19284 58.5195 5.19284 58.4606 5.13392 58.4606C5.07501 58.4017 5.07502 58.3428 5.0161 58.2839C5.0161 58.2839 5.0161 58.2249 4.95719 58.2249C4.95719 58.2249 4.95719 58.166 4.89827 58.166C4.89827 58.166 4.89827 58.1071 4.83935 58.1071L4.78044 58.0482L4.72152 57.9893C4.72152 57.9893 4.72152 57.9893 4.72152 57.9304C4.72152 57.9304 4.72152 57.8715 4.66261 57.8715C4.66261 57.8715 4.66262 57.8125 4.6037 57.8125C4.54479 57.7536 4.54478 57.6947 4.48587 57.6947C4.48587 57.6358 4.42695 57.6358 4.42695 57.5769L4.36804 57.518C4.36804 57.518 4.36804 57.518 4.36804 57.4591C4.36804 57.4591 4.36804 57.459 4.36804 57.4001C3.4254 56.0451 2.42385 54.3366 1.65796 52.7458C1.8347 52.8048 2.07035 52.8048 2.2471 52.8637C2.42384 52.9226 2.6595 52.9226 2.83625 52.9815C3.4254 54.1598 4.19129 55.4559 5.13392 56.8699C8.43316 61.8187 11.3789 63.9986 12.2626 63.9986C12.3215 63.9986 12.3805 63.9986 12.4394 63.9397C13.0285 63.5273 12.2037 59.8746 8.6099 54.5133C8.43316 54.2187 8.19751 53.9241 8.02076 53.6885C8.25642 53.6885 8.43316 53.7474 8.66882 53.7474C8.90448 53.7474 9.08122 53.7474 9.31688 53.8063L9.49363 54.042C11.5557 57.1056 13.9712 61.7009 13.6177 63.8808C13.5587 64.2932 13.382 64.6467 13.0874 64.8234C12.9107 64.9412 12.675 65.0001 12.3805 65.0001L12.1448 64.7056Z" fill="#9B6436"/>
<path d="M17.6831 60.4634C16.2691 60.4634 13.2055 57.5766 10.3776 53.5115C10.6133 53.5115 10.8489 53.5115 11.0846 53.5115C11.2613 53.5115 11.4381 53.5115 11.5559 53.5115C12.204 53.5115 12.7931 53.4526 13.4412 53.4526H13.7358C14.5606 53.3936 15.3854 53.2758 16.2102 53.158C18.2133 56.7518 19.0381 59.6975 18.0955 60.3456C18.0955 60.3456 18.0365 60.3456 18.0365 60.4045C17.9187 60.4634 17.8009 60.5223 17.6241 60.5223L17.6831 60.4634Z" fill="#C08C62"/>
<path d="M8.84568 58.5193L8.49219 58.4604C8.19762 58.1659 7.31389 57.3411 6.25342 55.7504C5.42861 54.5131 4.95729 53.5705 4.72163 53.0403L5.13404 53.0992C5.3697 53.6294 5.84102 54.5131 6.548 55.5736C7.37281 56.7519 8.02087 57.5178 8.43328 57.9302C8.19762 57.4 7.7263 56.4573 6.90149 55.279C6.19451 54.2775 5.60536 53.5705 5.19295 53.0992C5.3697 53.0992 5.54644 53.1581 5.72319 53.1581C6.13559 53.6294 6.60691 54.2186 7.19606 55.0434C8.25653 56.6341 8.72785 57.7535 8.90459 58.1659L8.78676 58.4604L8.84568 58.5193Z" fill="#A1836C"/>
<path d="M38.8333 60.699C38.5977 60.699 38.362 60.6401 38.1264 60.5223C37.714 60.2277 37.5372 59.7564 37.5372 59.1083C37.5372 58.0479 38.0085 56.6928 38.6566 55.161C39.0101 54.3951 39.4225 53.5703 39.8349 52.8044C40.1884 52.8634 40.5419 52.9223 40.8954 52.9812C38.7744 56.6928 37.8907 59.7564 38.8333 60.4045C38.8333 60.4045 38.8334 60.4045 38.8923 60.4045L39.3047 60.6401C39.3047 60.6401 39.3047 60.6401 39.2458 60.6401C39.1279 60.6401 39.0101 60.699 38.8923 60.699H38.8333Z" fill="#9B6436"/>
<path d="M43.4875 63.5269L39.2456 60.6401L38.8332 60.4044C38.9511 60.4633 39.0689 60.5222 39.2456 60.5222C40.7185 60.5222 43.8999 57.5176 46.7867 53.2757C47.1991 53.2757 47.6115 53.2168 48.0239 53.2168C47.9061 53.3935 47.7883 53.5703 47.6704 53.747C45.6084 56.8106 43.1929 61.406 43.5464 63.5858L43.4875 63.5269Z" fill="#C08C62"/>
<path d="M44.7248 64.7052C44.4892 64.7052 44.2535 64.6463 44.0178 64.5284C43.7233 64.2928 43.5465 63.9982 43.4876 63.5858C43.5465 63.9982 43.7233 64.3517 44.0178 64.5284C44.1946 64.6463 44.4302 64.7052 44.7248 64.7052ZM44.9016 64.7052C46.021 64.5874 47.5527 63.4091 49.0256 61.8184C47.5527 63.4091 46.021 64.6463 44.9016 64.7052Z" fill="#E8E8E8"/>
<path d="M44.7837 63.763C44.7247 63.763 44.6658 63.763 44.6069 63.7041C44.0178 63.2917 44.8426 59.6389 48.4364 54.2777C48.731 53.8653 49.0255 53.4529 49.2612 53.0994C49.4968 53.0994 49.7914 53.0405 50.0271 53.0405C49.6736 53.5118 49.2612 54.042 48.9077 54.6312C46.3744 58.3428 45.4906 61.0529 45.255 61.9955C45.1961 62.1723 45.3139 62.349 45.4317 62.4669C45.4906 62.5258 45.6085 62.5847 45.7263 62.5847C45.8441 62.5847 45.9031 62.5258 45.962 62.4669C46.7868 61.8777 48.9077 59.9924 51.441 56.2808C52.4426 54.8668 53.1496 53.5707 53.6798 52.4513C53.9155 52.3924 54.1511 52.3924 54.3868 52.3335C53.7976 53.5707 52.9728 55.0436 51.8534 56.6343C48.5542 61.5831 45.6085 63.763 44.7247 63.763H44.7837ZM45.7263 62.2312H45.6085L45.5496 62.1134C45.7852 61.1707 46.6689 58.5196 49.1433 54.8079C49.6147 54.1599 50.0271 53.5118 50.4395 52.9816C50.7341 52.9226 51.0875 52.9226 51.3821 52.8637C50.9697 53.335 50.3217 54.042 49.6147 55.1614C48.5542 56.7521 48.0829 57.8715 47.9061 58.2839L48.024 58.5785L48.3775 58.5195C48.672 58.225 49.5558 57.4002 50.6162 55.8095C51.6767 54.2777 52.148 53.1583 52.3248 52.7459C52.6193 52.687 52.9139 52.6281 53.2674 52.5692C52.7372 53.5707 52.0302 54.8079 51.1465 56.104C48.672 59.7568 46.5511 61.5831 45.7263 62.1723V62.2312Z" fill="#E7BE9B"/>
<path d="M49.6146 61.2295L49.6735 61.1705C49.6735 61.1705 49.6735 61.2295 49.6146 61.2295ZM52.148 58.107C52.2069 58.0481 52.2069 58.0481 52.2069 57.9891C52.1479 58.0481 52.148 58.0481 52.148 58.107ZM52.3836 57.8124C52.3836 57.8124 52.3836 57.8124 52.3836 57.7535C52.3836 57.7535 52.3836 57.7535 52.3836 57.8124Z" fill="#E8E8E8"/>
<path d="M45.7265 62.5844C45.6087 62.5844 45.5498 62.5255 45.4319 62.4665C45.2552 62.3487 45.1963 62.172 45.2552 61.9952C45.5497 60.9937 46.4335 58.3425 48.9079 54.6309C49.3203 54.0417 49.6738 53.5115 50.0273 53.0402L50.4986 52.9812C50.0862 53.5115 49.6149 54.1596 49.2025 54.8076C46.7281 58.4603 45.8443 61.1115 45.6087 62.113L45.6676 62.2309H45.7854C46.6102 61.6417 48.7312 59.8154 51.2056 56.1627C52.0893 54.8076 52.7963 53.6293 53.3265 52.6278L53.7389 52.5688C53.2087 53.6882 52.4428 54.9844 51.5002 56.3983C48.9668 60.11 46.8459 61.9363 46.0211 62.5844C45.9622 62.6433 45.8443 62.7022 45.7854 62.7022L45.7265 62.5844Z" fill="#A1836C"/>
<path d="M44.7248 64.7055C44.4891 64.7055 44.2534 64.6465 44.0178 64.5287C43.7232 64.293 43.5465 63.9985 43.4876 63.5861C43.1341 61.4062 45.5496 56.8109 47.6116 53.7473C47.7294 53.5705 47.8473 53.3938 47.9651 53.2171C48.2008 53.2171 48.3775 53.217 48.6131 53.1581C48.8488 53.1581 49.0255 53.0992 49.2612 53.0992C48.9666 53.4527 48.731 53.8651 48.4364 54.2775C44.8426 59.5799 44.0178 63.2915 44.607 63.7039C44.6659 63.7628 44.7248 63.7628 44.7837 63.7628C45.6674 63.7628 48.6131 61.5829 51.9124 56.6341C52.9728 55.0434 53.7977 53.6294 54.4457 52.3333C54.6225 52.2744 54.8581 52.2744 55.0349 52.2155C55.2116 52.1566 55.4473 52.1566 55.624 52.0977C54.7992 53.8651 53.7387 55.6915 52.7372 57.1643C52.7372 57.1643 52.7372 57.2233 52.6783 57.2233C52.6194 57.3411 52.5604 57.4 52.5015 57.5178C52.5015 57.5767 52.4426 57.5768 52.4426 57.6357C52.4426 57.6357 52.4426 57.6357 52.4426 57.6946C52.3837 57.7535 52.3837 57.8124 52.3248 57.8713C52.2659 57.9302 52.2659 57.9302 52.2659 57.9891C52.207 58.107 52.0891 58.2248 51.9713 58.3426C51.3232 59.2264 50.5573 60.169 49.7914 61.0527C49.7914 61.0527 49.7915 61.1116 49.7325 61.1116L49.6736 61.1705C49.6147 61.2295 49.5558 61.2884 49.4969 61.3473C49.438 61.4062 49.438 61.4062 49.379 61.4651C49.3201 61.524 49.2612 61.583 49.2023 61.6419C47.7294 63.2326 46.1976 64.4698 45.0783 64.5287H45.0194C44.9604 64.5287 44.9604 64.5287 44.9015 64.5287L44.7248 64.7055Z" fill="#9B6436"/>
<path d="M48.4364 57.9888C48.672 57.4585 49.1434 56.5159 49.9682 55.3376C50.793 54.1004 51.4411 53.3345 51.8535 52.9221C51.6178 53.4524 51.1465 54.395 50.3217 55.5733C49.4969 56.8105 48.8488 57.5764 48.4364 57.9888Z" fill="#E7BE9B"/>
<path d="M39.2459 60.4632C39.0691 60.4632 38.9513 60.4043 38.8335 60.3454C38.8335 60.3454 38.8335 60.3454 38.7746 60.3454C37.8319 59.6973 38.7157 56.5748 40.8366 52.9221C41.6614 53.0399 42.5451 53.0988 43.4289 53.1578H43.6645C44.3126 53.1578 44.9017 53.2167 45.5498 53.2167C45.9622 53.2167 46.3746 53.2167 46.787 53.2167C43.9002 57.4586 40.7188 60.4632 39.2459 60.4632Z" fill="#C08C62"/>
<path d="M48.0828 58.5193L47.965 58.2248C48.1418 57.8124 48.5542 56.693 49.6735 55.1023C50.3805 53.9829 51.0286 53.2759 51.441 52.8046C51.6177 52.8046 51.7945 52.7457 51.9712 52.7457L52.3247 52.6868C52.148 53.0992 51.6766 54.2186 50.6162 55.7503C49.5557 57.341 48.672 58.1658 48.3774 58.4604L48.0239 58.5193H48.0828ZM51.8534 52.9224C51.441 53.3348 50.734 54.1007 49.9681 55.3379C49.1433 56.5752 48.672 57.4589 48.4363 57.9891C48.8487 57.5767 49.5557 56.8108 50.3216 55.5736C51.1464 54.3364 51.6177 53.4527 51.8534 52.9224Z" fill="#A1836C"/>
<path d="M38.4798 28.414C37.1836 28.414 36.0053 27.8248 34.9449 26.5876C36.948 26.8233 39.0689 27.2357 41.0131 27.7659C40.1294 28.1783 39.2457 28.414 38.4798 28.414ZM20.1573 28.0016L20.2162 26.5287C20.8642 26.4698 21.5123 26.4108 22.1604 26.3519C21.5123 27.1178 20.8642 27.707 20.1573 28.0016ZM44.6069 25.7039C41.1309 24.1132 36.6534 23.4062 32.7061 23.0527L32.3526 22.4046C31.5867 20.9907 30.0549 20.107 28.4642 20.107C26.8735 20.107 25.3418 20.9907 24.5759 22.4046L24.3402 22.8171C23.0441 22.876 21.6301 22.9938 20.2751 23.1116L20.5107 11.8589H20.3929C18.5076 11.8589 16.3867 12.0356 14.3836 12.2713L14.8549 24.1721C14.4425 24.2899 14.089 24.4078 13.7355 24.5256L13.441 12.448C13.7355 12.3891 14.089 12.3302 14.3836 12.3302C16.4456 12.0356 18.5076 11.9178 20.3929 11.9178H20.5107C23.4565 11.9178 25.872 12.3302 27.3449 13.0372L28.4642 13.5674L29.5836 13.0372C31.0565 12.3302 33.5309 11.9178 36.5356 11.9178C39.5991 11.9178 43.1929 12.3302 46.3154 13.0372C46.61 13.0961 46.9635 13.2139 47.2581 13.2729H47.317C47.7294 13.3907 48.0829 13.8031 48.0829 14.2155C48.0829 14.2155 48.0829 14.2155 48.0829 14.2744L47.8472 19.9891C47.6705 21.2264 47.3759 22.2279 47.0224 23.0527L47.2581 13.2729C46.9635 13.2139 46.61 13.0961 46.3154 13.0372L46.1976 24.4078C45.7852 24.938 45.3139 25.4093 44.6658 25.8217L44.6069 25.7039Z" fill="#D4E3FF"/>
<path d="M41.0132 27.7657C39.069 27.2355 37.007 26.8231 34.945 26.5874C34.5326 26.1161 34.1791 25.5859 33.8256 24.9378L32.7651 23.0526C36.6535 23.406 41.19 24.1719 44.6659 25.7037C43.7233 26.3518 42.6039 27.0588 41.0721 27.7657H41.0132ZM15.0318 27.3533C14.6194 27.1177 14.207 26.9409 13.8535 26.7053L13.7946 24.5254C14.1481 24.4076 14.5605 24.2898 14.914 24.1719L15.0318 27.3533ZM20.2163 26.5285L20.2752 23.1115C21.6302 22.9347 22.9853 22.8758 24.3403 22.8169L23.1031 24.9967C22.8085 25.527 22.514 25.9983 22.1605 26.4107C21.5124 26.4696 20.8644 26.5285 20.2163 26.5874V26.5285Z" fill="#AB9480"/>
<path d="M11.6147 25.1144C10.1419 23.7594 9.49381 22.2276 9.14032 19.871L8.90466 14.1562C8.90466 14.1562 8.90466 14.1563 8.90466 14.0973C8.90466 13.626 9.19923 13.2725 9.67055 13.1547C10.024 13.0369 10.3775 12.9779 10.731 12.919L11.6147 25.1144Z" fill="#FFE8D4"/>
<path d="M47.8472 19.8714C47.6705 21.1086 47.3759 22.1101 47.0224 22.935C46.7867 23.4063 46.5511 23.8187 46.1976 24.2311C45.196 25.5272 43.6053 26.5287 41.072 27.707C40.1294 28.1194 39.3046 28.3551 38.5387 28.3551C36.7712 28.3551 35.1805 27.1768 33.8844 24.8791L32.4115 22.3458C31.6456 20.9318 30.1138 20.0481 28.5231 20.0481C26.9324 20.0481 25.4007 20.9318 24.6348 22.3458L23.1619 24.8791C22.2782 26.4109 21.3355 27.4714 20.2162 27.9427C19.6859 28.2373 19.0968 28.3551 18.5076 28.3551C17.7417 28.3551 16.858 28.1194 15.9743 27.707C15.6797 27.5892 15.3851 27.4125 15.0906 27.2946C14.6782 27.059 14.2658 26.8822 13.9123 26.6466C13.0285 26.1163 12.2626 25.645 11.6735 25.1148C10.2006 23.7598 9.55256 22.228 9.19907 19.8714L8.96342 14.1566C8.96342 13.6853 9.25799 13.2729 9.7293 13.1551C10.0828 13.0373 10.4363 12.9783 10.7898 12.9194C11.6735 12.7427 12.6161 12.5659 13.5588 12.3892C13.8533 12.3303 14.2068 12.2714 14.5014 12.2714C16.5634 11.9768 18.6254 11.859 20.5107 11.859H20.6286C23.5743 11.859 25.9898 12.2714 27.4627 12.9783L28.5821 13.5086L29.7014 12.9783C31.1743 12.2714 33.6487 11.859 36.6534 11.859C39.717 11.859 43.3108 12.2714 46.4332 12.9783C46.7278 13.0372 47.0813 13.1551 47.3759 13.214H47.4348C47.9061 13.3318 48.2007 13.7442 48.2007 14.2156L47.965 19.9303L47.8472 19.8714ZM47.965 10.7396C41.8968 9.2078 32.9418 8.50081 28.5231 10.6807C24.1045 8.50081 15.0906 9.2078 9.08124 10.7396C7.49054 11.152 6.37116 12.6248 6.43008 14.2745L6.66573 20.107C7.43162 25.2916 9.49365 27.4714 14.9138 30.0636C19.3324 32.1846 23.0441 30.476 25.4596 26.1753L26.9324 23.6419C27.2859 22.9939 27.9929 22.6404 28.641 22.6404C29.289 22.6404 29.9371 22.9939 30.3495 23.6419L31.8224 26.1753C34.2379 30.4171 37.8906 32.1846 42.3681 30.0636C47.7294 27.4714 49.8503 25.2916 50.6162 20.107L50.8519 14.2745C50.9108 12.6248 49.7914 11.152 48.2007 10.7396H47.965Z" fill="#407E7E"/>
<path d="M49.0845 19.9893C48.4364 24.4668 46.7868 26.411 41.6023 28.8854C40.5419 29.4156 39.4814 29.6513 38.4798 29.6513C35.6519 29.6513 33.7666 27.4125 32.7062 25.5273L31.2333 22.9939C30.6442 21.9924 29.5837 21.3443 28.4054 21.3443C27.2271 21.3443 26.1666 21.9334 25.5775 22.9939L24.1046 25.5273C23.0441 27.4125 21.1589 29.6513 18.331 29.6513C17.3294 29.6513 16.3279 29.4156 15.2085 28.8854C9.96505 26.411 8.37435 24.4668 7.72629 19.9893L7.49063 14.2156C7.43172 13.1551 8.13869 12.2125 9.19916 11.9179C12.6751 11.0342 16.7992 10.504 20.3341 10.504C23.5744 10.504 26.1666 10.9164 27.8162 11.7412L28.3465 12.0358L28.8767 11.7412C30.5263 10.9164 33.1186 10.504 36.3589 10.504C39.8349 10.504 44.0178 11.0342 47.4938 11.9179C48.4954 12.1536 49.2023 13.1551 49.2023 14.2156L48.9667 19.9893H49.0845ZM48.2008 9.50241C44.4891 8.55977 40.2473 8.02954 36.4767 8.02954C33.1186 8.02954 30.4085 8.44196 28.4643 9.26677C26.4612 8.44196 23.7511 8.02954 20.4519 8.02954C16.6813 8.02954 12.4395 8.55977 8.72784 9.50241C6.54799 10.0326 5.0162 12.0947 5.13403 14.3334L5.36969 20.166V20.2838C6.25342 26.2932 9.08133 28.7087 14.3248 31.1831C15.7387 31.8901 17.1527 32.2435 18.5077 32.2435C21.6891 32.2435 24.4581 30.3583 26.4612 26.8234L27.9341 24.29C28.1108 23.9955 28.4054 23.9366 28.5232 23.9366C28.6411 23.9366 28.9356 23.9955 29.1124 24.29L30.5852 26.8234C32.5884 30.3583 35.3573 32.2435 38.5387 32.2435C39.8938 32.2435 41.3077 31.8901 42.7217 31.1831C47.9651 28.6497 50.793 26.2932 51.6768 20.2838V20.166L51.9124 14.3334C51.9713 12.0947 50.4985 10.0326 48.3186 9.50241H48.2008Z" fill="#FF0000"/>
<path d="M11.7325 25.2912C11.6736 25.2323 11.6146 25.1734 11.5557 25.1145L10.672 12.9191C10.7898 12.9191 10.9077 12.8602 11.0255 12.8602C11.7914 12.6834 12.6162 12.5656 13.3821 12.4478L13.6767 24.5253C12.9697 24.761 12.3216 25.0555 11.6736 25.3501L11.7325 25.2912Z" fill="#FFF9F5"/>
<path d="M13.7945 26.6465C12.9697 26.1751 12.3216 25.7038 11.7325 25.2325C12.3806 24.9379 13.0286 24.6434 13.7356 24.4077L13.7945 26.5876V26.6465Z" fill="#EAE4DF"/>
<path d="M13.7946 26.6465C12.9109 26.1163 12.145 25.645 11.5558 25.1148C12.145 25.645 12.852 26.1752 13.7946 26.6465ZM11.0845 12.8016C11.8504 12.6248 12.6752 12.507 13.4411 12.3892C12.6163 12.507 11.8504 12.6837 11.0845 12.8016Z" fill="#CFDFDF"/>
<path d="M46.1388 24.2307L46.2566 12.8601C46.5512 12.919 46.9047 13.0369 47.1993 13.0958L46.9636 22.8756C46.7869 23.288 46.5512 23.7004 46.2566 24.0539C46.1977 24.1129 46.1977 24.1129 46.1388 24.1718V24.2307Z" fill="#FFF9F5"/>
<path d="M18.4488 28.4138C17.6829 28.4138 16.7992 28.1781 15.9155 27.7657C15.6798 27.6479 15.4441 27.5301 15.2085 27.4122C16.7992 26.9998 18.5077 26.7053 20.2163 26.5285L20.1573 28.0014C19.6271 28.296 19.0379 28.4138 18.4488 28.4138ZM14.855 24.113L14.3837 12.2122C16.4457 11.9176 18.5077 11.7998 20.393 11.7998H20.5108L20.2752 23.0525C18.4488 23.2882 16.5635 23.5828 14.855 24.113Z" fill="#FFF9F5"/>
<path d="M15.2085 27.4122C15.1496 27.3533 15.0907 27.3533 15.0317 27.2943L14.9139 24.1129C16.6225 23.6416 18.4488 23.2881 20.3341 23.0525L20.2752 26.4695C18.5666 26.6463 16.8581 26.9409 15.2674 27.3533L15.2085 27.4122Z" fill="#EAE4DF"/>
<path d="M18.4487 28.414C17.6828 28.414 16.7991 28.1783 15.9154 27.7659C16.858 28.1783 17.6828 28.414 18.4487 28.414Z" fill="#CFDFDF"/>
</svg>
