<svg width="67" height="65" viewBox="0 0 67 65" fill="none" xmlns="http://www.w3.org/2000/svg">
<path d="M64.7792 47.0104C63.496 45.1843 60.436 42.0996 60.436 42.0996H55.2291C55.2291 42.0996 52.1691 45.1843 50.8859 47.0104C49.6027 48.8365 49.6274 50.5392 49.6274 52.8589C49.6274 54.8578 49.6274 61.0764 49.6274 62.7545H66.0378C66.0378 61.0764 66.0378 54.8578 66.0378 52.8589C66.0378 50.5392 66.0624 48.8612 64.7792 47.0104Z" fill="#FF0000"/>
<path d="M53.8472 43.4075H61.67V42.1489H53.8472V43.4075Z" fill="#DB3938"/>
<path d="M61.67 35.412C61.67 34.6223 61.0283 33.9561 60.214 33.9561H55.3032C54.5135 33.9561 53.8472 34.5977 53.8472 35.412V42.0996H55.3032V36.3991C55.3032 36.177 55.4759 36.0043 55.698 36.0043C55.9201 36.0043 56.0929 36.177 56.0929 36.3991V42.0996H57.4255V36.3991C57.4255 36.177 57.5982 36.0043 57.8203 36.0043C58.0424 36.0043 58.2151 36.177 58.2151 36.3991V42.0996H59.5477V36.3991C59.5477 36.177 59.7204 36.0043 59.9425 36.0043C60.1646 36.0043 60.3374 36.177 60.3374 36.3991V42.0996H61.6206V35.412H61.67Z" fill="#FACD2A"/>
<path d="M55.698 35.9795C55.4759 35.9795 55.3031 36.1522 55.3031 36.3743V42.0748H56.1175V36.3743C56.1175 36.1522 55.9447 35.9795 55.7226 35.9795H55.698Z" fill="#F7B030"/>
<path d="M57.8449 35.9795C57.6228 35.9795 57.45 36.1522 57.45 36.3743V42.0748H58.2644V36.3743C58.2644 36.1522 58.0917 35.9795 57.8696 35.9795H57.8449Z" fill="#F7B030"/>
<path d="M59.9672 35.9795C59.7451 35.9795 59.5723 36.1522 59.5723 36.3743V42.0748H60.3867V36.3743C60.3867 36.1522 60.2139 35.9795 59.9918 35.9795H59.9672Z" fill="#F7B030"/>
<path d="M63.1506 55.3757C63.1506 58.3617 60.7322 60.7554 57.7709 60.7554C54.785 60.7554 52.3913 58.337 52.3913 55.3757C52.3913 52.3898 54.8096 49.9961 57.7709 49.9961C60.7569 49.9961 63.1506 52.4145 63.1506 55.3757Z" fill="#FACD2A"/>
<path d="M57.7709 50.2675C54.9577 50.2675 52.638 52.5625 52.638 55.4004C52.638 58.2136 54.933 60.5333 57.7709 60.5333C60.5841 60.5333 62.9038 58.2383 62.9038 55.4004C62.9038 52.5872 60.6088 50.2675 57.7709 50.2675ZM57.7709 61.0268C54.6616 61.0268 52.1198 58.4851 52.1198 55.3757C52.1198 52.2664 54.6616 49.7246 57.7709 49.7246C60.8802 49.7246 63.422 52.2664 63.422 55.3757C63.422 58.4851 60.8802 61.0268 57.7709 61.0268Z" fill="#171A21"/>
<path d="M55.7226 57.2019C55.9694 56.9798 56.2655 56.5356 56.2655 56.5356C56.3889 56.511 56.537 56.4616 56.6357 56.4616C56.6604 56.585 56.6851 56.6837 56.7344 56.7824C56.9812 57.3747 57.5241 57.3747 57.8202 57.3747C58.1163 57.3747 58.6592 57.3747 58.906 56.7824C58.9554 56.6837 58.98 56.585 59.0047 56.4616C59.0787 56.4863 59.2021 56.511 59.3255 56.5356C59.4242 56.659 59.6957 57.0539 59.8931 57.2266C60.2139 57.498 60.4607 58.4358 60.7568 58.7319C61.0282 59.028 61.0776 58.88 60.8555 58.5592C60.6581 58.2384 60.4113 57.4487 60.1645 57.1772C59.9918 56.9798 59.7697 56.6837 59.6463 56.5109C59.671 56.4863 59.6463 56.4122 59.5476 56.3382C59.3996 56.2395 59.1775 56.1161 59.0541 56.0668C59.0541 55.968 59.0541 55.8693 59.0541 55.7706C59.1528 55.7953 59.2515 55.7953 59.3502 55.82C59.4489 55.8447 59.597 55.894 59.7204 55.9187C59.8684 55.9681 60.1399 56.0421 60.2879 56.1161C60.436 56.1902 60.6334 56.4369 60.9295 56.7824C61.2503 57.1279 61.3737 57.2513 61.5712 57.2513C61.7192 57.2513 61.4231 57.0539 61.201 56.7824C61.0529 56.6343 60.6334 56.0668 60.436 55.9434C60.2386 55.82 59.745 55.6472 59.745 55.6472C59.671 55.6226 59.597 55.5732 59.4983 55.5485C59.3502 55.4992 59.2021 55.4745 59.1034 55.4745C59.0787 55.4745 59.0541 55.4745 59.0047 55.4745C58.98 55.4005 58.98 55.3018 58.9554 55.2277C59.1034 55.129 59.3749 54.9316 59.5229 54.8082C59.5723 54.7589 59.6217 54.7342 59.6463 54.6848C59.7944 54.6108 60.0165 54.4627 60.1892 54.364C60.4607 54.1913 61.4971 53.7471 61.6945 53.5497C61.892 53.3523 61.6205 53.4016 61.2997 53.5497C61.0036 53.6977 60.1892 54.0679 59.9671 54.1913C59.7944 54.2653 59.5723 54.4381 59.4489 54.5121C59.3008 54.5614 59.1034 54.6848 58.98 54.7589C58.906 54.8082 58.8813 54.8329 58.8813 54.8329V54.8823C58.8567 54.8082 58.832 54.7342 58.8073 54.6602C58.906 54.5368 59.1281 54.2406 59.1775 54.0926C59.3008 53.9445 59.5723 53.6484 59.6957 53.4757C59.8684 53.2289 60.1645 52.834 60.3373 52.5132C60.436 52.3158 60.6087 52.1431 60.6581 52.0444C60.7568 51.8223 60.51 51.995 60.3866 52.1431C60.3126 52.2418 59.745 52.9821 59.5723 53.2042C59.4736 53.3523 59.1281 53.7224 58.9554 53.9445C58.9307 53.9692 58.8813 53.9692 58.8567 53.9939C58.7826 54.0679 58.7086 54.1419 58.6592 54.216C58.6346 54.2406 58.6346 54.2653 58.6099 54.29C58.4865 54.0679 58.3384 53.9692 58.1904 53.8952C58.215 53.7965 58.2397 53.6484 58.2397 53.5497C58.1904 53.3029 58.0423 53.4263 58.0423 53.5743C58.0423 53.6484 58.0176 53.7471 57.9929 53.8458C57.9436 53.8458 57.8696 53.8211 57.8202 53.8211C57.7462 53.8211 57.6721 53.8211 57.5981 53.8458C57.5734 53.7471 57.5488 53.6484 57.5488 53.5743C57.5488 53.4263 57.4007 53.3029 57.3513 53.5497C57.3267 53.6731 57.376 53.8211 57.4007 53.9198C57.2773 53.9692 57.1292 54.0926 57.0305 54.2653C57.0059 54.2406 57.0059 54.216 56.9812 54.1913C56.9318 54.1172 56.8578 54.0432 56.7838 53.9692C56.7344 53.9198 56.6851 53.8952 56.6357 53.8952C56.6357 53.8952 56.1421 53.4016 55.9941 53.1795C55.846 52.9574 55.2784 52.2171 55.1797 52.1184C55.0563 51.9703 54.8096 51.7976 54.9083 52.0197C54.9576 52.1184 55.1304 52.3158 55.2291 52.4886C55.4265 52.834 55.698 53.2042 55.8707 53.451C56.0434 53.6977 56.463 54.0679 56.463 54.0679C56.5123 54.216 56.7344 54.5121 56.8331 54.6355C56.8084 54.7095 56.7838 54.7835 56.7591 54.8576V54.8329C56.7591 54.8329 56.7097 54.8082 56.6604 54.7589C56.537 54.6848 56.3396 54.5614 56.1915 54.5121C56.0681 54.4381 55.7473 54.1913 55.5499 54.0926C55.3278 53.9692 54.5134 53.6237 54.2173 53.451C53.9212 53.3029 53.6497 53.2536 53.8225 53.451C54.0199 53.6484 55.0564 54.0926 55.3278 54.2653C55.5252 54.3887 55.7967 54.5614 55.9447 54.6355C55.9694 54.6848 56.0188 54.7342 56.0928 54.8082C56.2409 54.9316 56.5123 55.1043 56.6357 55.2031C56.611 55.2771 56.611 55.3758 56.5863 55.4498C56.5617 55.4498 56.537 55.4498 56.5123 55.4498C56.4136 55.4498 56.2902 55.4745 56.1175 55.5239C56.0188 55.5485 55.9447 55.5979 55.8707 55.6226C55.8707 55.6226 55.3525 55.7953 55.1797 55.9187C54.9823 56.0421 54.5628 56.6097 54.4147 56.7577C54.168 57.0045 53.8718 57.2266 54.0446 57.2266C54.2667 57.2266 54.3654 57.1032 54.6862 56.7577C55.007 56.4122 55.1797 56.1655 55.3278 56.0914C55.4759 56.0174 55.7473 55.9434 55.8954 55.894C55.9447 55.894 55.9941 55.8693 56.0434 55.8693C56.1175 55.8447 56.2162 55.82 56.2655 55.7953C56.3642 55.7706 56.463 55.746 56.537 55.746C56.537 55.8447 56.537 55.9434 56.537 56.0421C56.4136 56.0914 56.1668 56.2148 56.0434 56.3135C55.9694 56.3876 55.9201 56.4122 55.9447 56.4616C55.7967 56.6343 55.5992 56.9305 55.4018 57.1279C55.1551 57.3993 54.9083 58.189 54.7109 58.5098C54.5135 58.8306 54.5381 58.9787 54.8096 58.6825C55.081 58.3864 55.3525 57.4487 55.6733 57.1772L55.7226 57.2019Z" fill="#EF4737"/>
<path d="M61.966 51.7728L54.168 59.5708L53.7732 59.176L61.5712 51.3779L61.966 51.7728Z" fill="#171A21"/>
<path d="M49.6273 64.1117H66.0377V62.7544H49.6273V64.1117Z" fill="#DB3938"/>
<path d="M52.5146 48.7131H63.0272V47.8247H52.5146V48.7131Z" fill="#FACD2A"/>
<path d="M7.52794 13.0048H11.7231V10.2656H7.52794V13.0048Z" fill="#EF4737"/>
<path d="M14.783 14.8311C14.5116 13.2024 13.105 11.9438 11.4022 11.9438H7.89807C6.19534 11.9438 4.78874 13.2024 4.51729 14.8311H14.8077H14.783Z" fill="#171A21"/>
<path d="M0.026001 58.6335H15.0545V24.0112H0.026001V58.6335Z" fill="#FF0000"/>
<path d="M0.026001 58.6333V64.5312H15.0545V58.6333H0.026001Z" fill="#171A21"/>
<path d="M15.0545 58.6335H19.299V24.0112H15.0545V58.6335Z" fill="#FF0000"/>
<path d="M15.0545 58.6333V64.5312H19.299V58.6333H15.0545Z" fill="#171A21"/>
<path d="M13.5492 14.6582C13.179 14.6582 12.8582 14.6582 12.5374 14.6582C12.5374 14.6582 12.5374 14.6582 6.81228 14.6582C6.49147 14.6582 6.14599 14.6582 5.80051 14.6582C-0.93639 14.6582 0.0506971 24.7512 0.0506971 24.7512H15.0792V14.8556C14.6103 14.7322 14.1168 14.6582 13.5492 14.6582Z" fill="#171A21"/>
<path d="M19.299 22.3823V24.3812C19.3237 23.9617 19.3484 23.2707 19.299 22.3823Z" fill="#171A21"/>
<path d="M19.299 24.3814V22.3825C19.151 19.7667 18.386 15.769 15.0545 14.856V24.7515H19.2743C19.2743 24.7515 19.299 24.6035 19.299 24.3814Z" fill="#171A21"/>
<path d="M2.76518 27.4658H15.0545V26.2812H2.76518V27.4658Z" fill="#FEFEFE"/>
<path d="M2.76518 30.6738H15.0545V29.4893H2.76518V30.6738Z" fill="#FEFEFE"/>
<path d="M4.764 2.12225C4.04836 2.12225 3.45611 2.7145 3.45611 3.43014V6.93433C3.45611 7.64997 4.04836 8.24223 4.764 8.24223H14.4622C15.1778 8.24223 15.7701 7.64997 15.7701 6.93433V3.43014C15.7701 2.7145 15.1778 2.12225 14.4622 2.12225H4.764ZM14.4622 10.3645H4.764C2.88853 10.3645 1.33386 8.83448 1.33386 6.93433V3.43014C1.33386 1.55467 2.86385 0 4.764 0H14.4622C16.3377 0 17.8923 1.52999 17.8923 3.43014V6.93433C17.8923 8.80981 16.3623 10.3645 14.4622 10.3645Z" fill="#EF4737"/>
<path d="M15.9675 49.5766C15.9675 53.3769 12.8829 56.4369 9.08255 56.4369C5.28225 56.4369 2.19759 53.3769 2.19759 49.5766C2.19759 45.7763 5.28225 42.7163 9.08255 42.7163C12.8829 42.7163 15.9675 45.7763 15.9675 49.5766Z" fill="#171A21"/>
<path d="M12.0192 50.4404C11.7231 50.2924 11.4763 49.9716 11.3283 49.7741C11.3776 49.6014 11.3283 49.4533 11.2049 49.4533C11.1308 49.4533 10.9828 49.5027 10.8347 49.5274C10.8347 49.5027 10.8347 49.4533 10.81 49.4286C10.736 49.0832 10.662 48.7377 10.5633 48.4662C10.6373 48.4416 10.7113 48.3922 10.7607 48.3429C10.9334 48.5649 11.2049 48.8858 11.501 49.1325C11.9699 49.5027 12.5621 49.4286 12.5868 49.1819C12.6115 48.9845 12.0439 48.9845 11.5997 48.7624C11.3036 48.6143 11.0568 48.2935 10.9087 48.0961C10.9581 47.9233 10.9087 47.7753 10.7853 47.7753C10.7113 47.7753 10.5386 47.8246 10.3658 47.874C10.2178 47.5285 10.1191 47.3064 10.0944 47.3064C10.0944 47.3064 10.0697 47.1337 9.99567 46.9116C9.94632 46.7635 9.87229 46.5661 9.74891 46.3933C9.82294 46.3193 9.94632 46.1959 10.0944 46.0972C10.3905 45.8998 10.7853 45.6037 10.9581 45.1842C11.1062 44.7893 11.2049 44.2958 11.2049 44.0737C11.2049 43.7282 11.0074 43.7529 11.0074 44.0737C11.0074 44.4192 10.81 45.1101 10.5633 45.3569C10.1931 45.7517 9.6502 45.9985 9.45278 46.0725C9.30472 45.9492 9.1073 45.8751 8.8852 45.8751C8.73714 45.8751 8.61375 45.8998 8.51504 45.9492C8.44101 45.9738 8.39165 45.9985 8.3423 46.0479C8.09553 45.9492 7.62665 45.7024 7.30585 45.3569C7.05908 45.0855 6.86166 44.4192 6.86166 44.0737C6.86166 43.7529 6.63957 43.7282 6.66424 44.0737C6.66424 44.2958 6.76295 44.7893 6.91101 45.1842C7.08375 45.6037 7.4786 45.8998 7.77472 46.0972C7.89811 46.1712 7.99682 46.2699 8.07085 46.344C7.7994 46.7635 7.77472 47.3064 7.77472 47.3064C7.77472 47.3064 7.65134 47.5285 7.50327 47.8987C7.33053 47.8493 7.13311 47.8 7.05908 47.8C6.93569 47.8 6.88634 47.948 6.93569 48.1207C6.78763 48.3182 6.54085 48.639 6.24472 48.787C5.80053 49.0091 5.23296 49.0091 5.25764 49.2066C5.28232 49.4287 5.87457 49.5274 6.34344 49.1572C6.63956 48.9351 6.91101 48.5896 7.08375 48.3675C7.13311 48.4169 7.23182 48.4909 7.33053 48.5156C7.23182 48.8117 7.15778 49.1325 7.08375 49.4533C7.08375 49.5027 7.05908 49.5274 7.05908 49.5767C6.91102 49.5274 6.71359 49.478 6.63956 49.478C6.51617 49.478 6.46682 49.6261 6.51618 49.7988C6.36811 49.9962 6.12134 50.317 5.82521 50.4651C5.38102 50.6872 4.81344 50.6872 4.83812 50.8846C4.8628 51.1067 5.45506 51.2054 5.92393 50.8352C6.22005 50.6132 6.4915 50.2677 6.66424 50.0456C6.7136 50.0949 6.8123 50.1443 6.91101 50.1937C6.93569 50.1937 6.96037 50.2183 6.98505 50.2183C6.96037 50.4898 6.93569 50.7612 6.91101 51.0327C6.91101 51.0327 6.91101 51.0327 6.91101 51.0574C6.73827 51.082 6.54085 51.082 6.46682 51.1314C6.34343 51.1807 6.34343 51.3288 6.46682 51.4769C6.41747 51.699 6.26941 52.0938 6.04731 52.3406C5.72651 52.7107 5.18361 52.9081 5.25764 53.0809C5.35635 53.303 5.9486 53.1549 6.24472 52.6367C6.44214 52.3159 6.59021 51.8964 6.66424 51.6496C6.73828 51.6743 6.81231 51.699 6.88634 51.699C6.88634 52.0444 6.91101 52.3653 6.96037 52.6614C6.96037 52.6614 6.96037 52.8341 7.03441 53.0809C7.08376 53.377 7.13311 53.6485 7.20715 53.8952C7.2565 54.142 7.42924 54.4875 7.65134 54.833C7.94747 55.2772 8.39165 55.6473 8.93455 55.6967C8.93455 55.6967 8.93456 55.6967 8.95923 55.6967H8.98391H9.00859C9.00859 55.6967 9.00858 55.6967 9.03326 55.6967C9.971 55.6473 10.6373 54.4628 10.7607 53.9199C10.8347 53.6485 10.8841 53.3523 10.9334 53.0315C10.9828 52.7848 10.9828 52.6367 10.9828 52.6367C11.0074 52.3652 11.0321 52.0444 11.0321 51.7236C11.1062 51.7236 11.1555 51.699 11.2049 51.6743C11.2789 51.9457 11.427 52.3406 11.6244 52.6614C11.9452 53.1796 12.5128 53.3277 12.6115 53.1056C12.6855 52.9328 12.1673 52.7107 11.8218 52.3652C11.5997 52.1185 11.4763 51.7236 11.4023 51.5015C11.501 51.3535 11.501 51.2054 11.4023 51.1561C11.3282 51.1314 11.1802 51.1067 11.0074 51.1067C11.0074 50.8352 10.9828 50.5638 10.9334 50.2677H10.9581C11.0568 50.243 11.1308 50.169 11.2049 50.1196C11.3776 50.3417 11.6491 50.6625 11.9452 50.9093C12.4141 51.2795 13.0063 51.2054 13.031 50.9586C13.0557 50.7612 12.4881 50.7612 12.0439 50.5391L12.0192 50.4404Z" fill="#EF4737"/>
<path d="M9.08258 42.8397C5.45502 42.8397 2.49375 45.8009 2.49375 49.4285C2.49375 53.0561 5.45502 56.0174 9.08258 56.0174C12.7101 56.0174 15.6714 53.0561 15.6714 49.4285C15.6714 45.8009 12.7101 42.8397 9.08258 42.8397ZM9.08258 56.733C5.06018 56.733 1.77811 53.4509 1.77811 49.4285C1.77811 45.4061 5.06018 42.124 9.08258 42.124C13.105 42.124 16.3871 45.4061 16.3871 49.4285C16.3871 53.4509 13.105 56.733 9.08258 56.733Z" fill="#FEFEFE"/>
<path d="M4.41858 54.6107L3.92503 54.1172L13.8206 44.3696L14.3142 44.8632L4.41858 54.6107Z" fill="#FEFEFE"/>
<path d="M32.0818 19.4212L29.4166 19.3965C29.4166 19.3965 29.3426 21.0992 30.0829 22.3824C30.8726 23.715 31.8597 23.9865 31.8597 23.9865L34.3027 24.554L32.0818 19.4458V19.4212Z" fill="#171A21"/>
<path d="M31.8597 24.7269H36.1289V23.9619H31.8597V24.7269Z" fill="#171A21"/>
<path d="M47.6039 22.6787H51.2314V20.5317H47.6039V22.6787Z" fill="#171A21"/>
<path d="M46.9868 23.2462H48.196V19.9888H46.9868V23.2462Z" fill="#737473"/>
<path d="M35.1171 23.2461H44.914V20.1367H35.1171V23.2461Z" fill="#171A21"/>
<path d="M37.3381 21.4938C37.3381 23.1718 35.9808 24.5291 34.3028 24.5291C32.6247 24.5291 31.2675 23.1718 31.2675 21.4938C31.2675 19.8157 32.6247 18.4585 34.3028 18.4585C35.9808 18.4585 37.3381 19.8157 37.3381 21.4938Z" fill="#575757"/>
<path d="M41.9774 23.9615H43.2853V19.4209H41.9774V23.9615Z" fill="#737473"/>
<path d="M43.2853 24.7264H47.3324V18.6558H43.2853V24.7264Z" fill="#171A21"/>
<path d="M43.2853 19.9887H47.3324V19.3965H43.2853V19.9887Z" fill="#575757"/>
<path d="M43.2853 21.9878H47.3324V21.3955H43.2853V21.9878Z" fill="#575757"/>
<path d="M43.2853 23.8383H47.3324V23.2461H43.2853V23.8383Z" fill="#575757"/>
<path d="M42.6437 23.9618H43.2853V19.3965H42.6437V23.9618Z" fill="#171A21"/>
<path d="M36.4744 21.4196C36.4744 22.6288 35.4873 23.5913 34.3028 23.5913C33.0936 23.5913 32.1312 22.6288 32.1312 21.4196C32.1312 20.2105 33.0936 19.248 34.3028 19.248C35.512 19.248 36.4744 20.2105 36.4744 21.4196Z" fill="#737473"/>
<path d="M50.0222 23.2462H51.2313V19.9888H50.0222V23.2462Z" fill="#737473"/>
<path d="M31.8597 24.7266L31.2675 25.763H34.0066V24.7266H31.8597Z" fill="#171A21"/>
<path d="M36.1289 24.7266L36.7211 25.763H34.0066V24.7266H36.1289Z" fill="#171A21"/>
<path d="M31.2675 26.8243H36.7211V25.7632H31.2675V26.8243Z" fill="#575757"/>
<path d="M30.5765 30.3778H37.3381V26.8242H30.5765V30.3778Z" fill="#171A21"/>
<path d="M31.2675 29.5634H31.8104V26.8242H31.2675V29.5634Z" fill="#616364"/>
<path d="M36.1782 29.5634H36.7211V26.8242H36.1782V29.5634Z" fill="#616364"/>
<path d="M32.5014 29.5634H33.0443V26.8242H32.5014V29.5634Z" fill="#616364"/>
<path d="M33.7352 29.5634H34.2781V26.8242H33.7352V29.5634Z" fill="#616364"/>
<path d="M34.9691 29.5634H35.512V26.8242H34.9691V29.5634Z" fill="#616364"/>
<path d="M28.6763 64.9998H44.5932C45.2595 64.9998 45.8024 64.4569 45.8024 63.7906C45.8024 63.7906 45.8024 63.7413 45.8024 63.6426H27.4671C27.4671 63.7413 27.4671 63.7906 27.4671 63.7906C27.4671 64.4569 28.01 64.9998 28.6763 64.9998Z" fill="#171A21"/>
<path d="M44.5685 44.1478C44.4945 41.384 44.1737 40.7917 42.6437 39.5825C41.1877 38.4474 39.559 37.7318 38.3992 36.72C36.7458 35.3134 38.3251 33.4132 37.7822 32.3274C37.3627 31.4884 36.1289 30.3779 36.1289 30.3779H30.5765C30.5765 30.3779 30.0582 30.9949 29.5647 31.5871C28.8491 32.4755 29.7374 33.3392 30.1076 34.6224C30.4778 35.9056 29.4413 37.0655 28.9231 38.3487C28.4049 39.6319 27.5412 40.6683 27.5412 43.0127C27.5412 45.4311 27.4671 61.8661 27.4671 63.6182H44.5932C44.6178 58.2139 44.6425 46.2701 44.5932 44.1478H44.5685Z" fill="#171A21"/>
<path d="M45.7284 44.345C45.531 41.6305 45.1855 40.5447 44.3711 39.5576C43.384 38.3485 40.4968 37.164 39.3863 36.2756C38.8187 35.8314 38.2758 34.4741 38.646 33.5611C39.0162 32.6233 39.0162 32.4506 38.4733 31.5375C38.0291 30.7972 37.3381 30.353 37.3381 30.353H36.1289C36.1289 30.353 37.3628 31.4635 37.7823 32.3025C38.3252 33.3883 36.7459 35.2638 38.3992 36.6951C39.5837 37.7069 41.2124 38.4225 42.6437 39.5576C44.1737 40.7668 44.5192 41.3838 44.5686 44.123C44.6179 46.2452 44.5932 58.189 44.5686 63.5933H45.8024C45.8024 61.8906 45.8271 45.9491 45.7037 44.3204L45.7284 44.345Z" fill="#737473"/>
<path d="M42.0762 43.21H31.0701C30.4038 43.21 29.8609 43.7529 29.8609 44.4191V49.0585C29.8609 49.7248 30.4038 50.2677 31.0701 50.2677H42.0762C42.7424 50.2677 43.2853 49.7248 43.2853 49.0585V44.4191C43.2853 43.7529 42.7424 43.21 42.0762 43.21Z" fill="#171A21"/>
<path d="M42.0762 54.4136H31.0701C30.4038 54.4136 29.8609 54.9565 29.8609 55.6228V60.2621C29.8609 60.9284 30.4038 61.4713 31.0701 61.4713H42.0762C42.7424 61.4713 43.2853 60.9284 43.2853 60.2621V55.6228C43.2853 54.9565 42.7424 54.4136 42.0762 54.4136Z" fill="#171A21"/>
<path d="M42.0762 59.9164H31.0701C30.4038 59.9164 29.8609 59.3735 29.8609 58.7072V46.1218C29.8609 45.4555 30.4038 44.9126 31.0701 44.9126H42.0762C42.7424 44.9126 43.2853 45.4555 43.2853 46.1218V58.7072C43.2853 59.3735 42.7424 59.9164 42.0762 59.9164Z" fill="#FF0000"/>
<path d="M31.9091 33.6844H36.0796V32.9688H31.9091V33.6844Z" fill="#171A21"/>
<path d="M31.9091 35.19H36.0796V34.499H31.9091V35.19Z" fill="#171A21"/>
<path d="M36.573 56.1407C36.573 56.1407 36.573 56.1653 36.5977 56.1653C36.5977 56.1653 36.5977 56.1407 36.573 56.1407ZM36.5484 56.3628C36.5484 56.3628 36.5484 56.3628 36.5484 56.3381C36.5484 56.3381 36.5484 56.3381 36.5484 56.3628ZM36.5237 56.3874C36.5237 56.3874 36.5237 56.3874 36.5237 56.3628C36.5237 56.3628 36.5237 56.3628 36.5237 56.3874ZM36.499 56.4121C36.499 56.4121 36.499 56.4121 36.499 56.3874C36.499 56.3874 36.499 56.3874 36.499 56.4121ZM36.4743 56.4368C36.4743 56.4368 36.4743 56.4368 36.4743 56.4121C36.4743 56.4121 36.4743 56.4121 36.4743 56.4368ZM36.4497 56.4615C36.4497 56.4615 36.4497 56.4615 36.4497 56.4368C36.4497 56.4368 36.4497 56.4368 36.4497 56.4615ZM36.425 56.0173C36.4003 56.0173 36.3756 55.9926 36.3756 55.9926C36.4003 55.9926 36.425 56.0173 36.425 56.0173ZM39.9538 52.3404C39.9291 52.291 39.8058 52.2417 39.6577 52.2417C39.4109 52.2417 39.0161 52.2416 38.72 52.3404C38.5225 52.3897 38.4238 52.4637 38.3745 52.5131C38.3498 52.4884 38.3004 52.4884 38.2511 52.5378C38.1771 52.5871 37.9056 52.8339 37.8316 52.9079C37.7329 52.9079 37.5601 52.8833 37.4367 52.8833C37.2887 52.8833 36.9925 52.9079 36.8692 52.9079C36.8445 52.8092 36.8198 52.7105 36.7951 52.6365C36.8198 52.5871 36.8198 52.5378 36.8198 52.4637C36.9926 52.4144 37.3627 52.291 37.5108 52.217C37.5848 52.1676 37.6095 52.0936 37.6342 52.0442C37.6835 52.0442 37.8069 51.9949 37.8563 51.8468C37.9303 51.6494 37.9796 51.5013 38.0043 51.4273C38.0537 51.4273 38.103 51.4026 38.1524 51.3779C38.2264 51.3286 38.3745 51.2299 38.5225 51.1559C38.6953 51.0571 38.9914 50.9091 39.1888 50.835C39.3863 50.761 39.4109 50.687 39.3616 50.6376C39.3122 50.5883 39.1888 50.613 39.0654 50.6376C38.8434 50.7117 38.4732 50.8844 38.2511 51.0818C38.0784 51.2299 38.0043 51.3533 37.9796 51.4026C37.9303 51.4273 37.8316 51.5013 37.7575 51.6741C37.6835 51.8468 37.6342 51.9455 37.6095 52.0196C37.5848 52.0196 37.5354 52.0195 37.4861 52.0689C37.3874 52.1183 36.9679 52.2416 36.7951 52.2663C36.7951 52.2416 36.7705 52.217 36.7705 52.1676C36.7211 52.0689 36.6717 51.9949 36.6717 51.9702C36.6471 51.8962 36.6224 51.8468 36.573 51.7975C36.7458 51.7975 36.9926 51.7728 37.1159 51.6741C37.19 51.6 37.264 51.1559 37.2887 50.7363C37.3134 50.4402 37.2393 50.1934 37.1159 50.07C37.2146 49.996 37.338 49.922 37.4614 49.7739C37.7082 49.5025 37.9303 48.7622 38.0043 48.4907C38.103 48.1946 37.9303 48.0218 37.7822 48.4414C37.6342 48.9102 37.4121 49.4778 37.338 49.5765C37.264 49.6752 37.1406 49.8479 36.9679 49.9713H36.9432C36.9926 49.7492 37.0913 49.2804 37.0172 49.0583C36.8938 48.7622 36.6964 48.8115 36.6964 48.8115C36.6964 48.8115 36.8938 48.9596 36.8692 49.157C36.8445 49.2804 36.6717 49.2804 36.6717 49.2804C36.6717 49.2804 36.8692 49.3791 36.8198 49.5025C36.7705 49.6012 36.6471 49.6259 36.6471 49.6259C36.6471 49.6259 36.7705 49.7492 36.7458 49.9713H36.2276C36.2029 49.7492 36.3263 49.6259 36.3263 49.6259C36.3263 49.6259 36.2029 49.6012 36.1535 49.5025C36.0795 49.3791 36.3016 49.2804 36.3016 49.2804C36.3016 49.2804 36.1288 49.2804 36.1042 49.157C36.0548 48.9596 36.2769 48.8115 36.2769 48.8115C36.2769 48.8115 36.0548 48.7622 35.9561 49.0583C35.8821 49.2557 35.9808 49.7492 36.0301 49.9713C35.8574 49.8479 35.734 49.6999 35.66 49.5765C35.5859 49.4531 35.3638 48.9102 35.2158 48.4414C35.0924 48.0218 34.9197 48.1946 34.9937 48.4907C35.0924 48.7868 35.3145 49.5272 35.5366 49.7739C35.6353 49.8973 35.734 49.9713 35.8327 50.0454C35.7093 50.1688 35.6106 50.4155 35.6353 50.7363C35.66 51.1559 35.734 51.6 35.808 51.6741C35.9068 51.7728 36.1535 51.7975 36.3263 51.7975C36.2769 51.8468 36.2276 51.8962 36.2276 51.9455C36.2276 51.9455 36.1535 52.0442 36.1042 52.217C35.9314 52.1676 35.5613 52.0936 35.4872 52.0196C35.4132 51.9702 35.3885 51.9702 35.3639 51.9702C35.3392 51.9209 35.2898 51.7975 35.2158 51.6247C35.1418 51.452 35.043 51.378 34.9937 51.3533C34.969 51.3039 34.895 51.1805 34.7222 51.0325C34.5001 50.835 34.13 50.6623 33.9079 50.5883C33.7845 50.5389 33.6611 50.5389 33.6118 50.5883C33.5624 50.6376 33.5871 50.7117 33.7845 50.7857C33.9819 50.8597 34.278 51.0078 34.4508 51.1065C34.5989 51.2052 34.7469 51.2792 34.8209 51.3286C34.8703 51.3533 34.9443 51.3779 34.969 51.3779C34.9937 51.452 35.043 51.6001 35.1171 51.7975C35.1664 51.9455 35.2898 51.9949 35.3392 51.9949C35.3392 52.0442 35.3638 52.1183 35.4626 52.1676C35.5859 52.2416 35.9314 52.3404 36.1042 52.3897C36.1042 52.4144 36.1042 52.4638 36.1042 52.4884C36.1042 52.5378 36.1288 52.5625 36.1535 52.6118C36.1288 52.6858 36.1042 52.7599 36.0795 52.8586C35.9561 52.8586 35.6847 52.8339 35.5366 52.8339C35.4132 52.8339 35.2158 52.8586 35.1418 52.8586C35.0677 52.7846 34.8209 52.5378 34.7222 52.4884C34.6729 52.4638 34.6235 52.4637 34.5989 52.4637C34.5495 52.4144 34.4508 52.3404 34.2534 52.291C33.9572 52.1923 33.5624 52.1923 33.3156 52.1923C33.1922 52.1923 33.0689 52.2417 33.0195 52.291C32.9948 52.3404 33.0442 52.4144 33.2663 52.3897C33.4884 52.3897 33.8092 52.4144 34.0066 52.4391C34.1793 52.4637 34.3274 52.4884 34.4261 52.5131C34.4755 52.5131 34.5001 52.5131 34.5495 52.5131C34.6235 52.5624 34.7963 52.7599 34.9443 52.8833C34.9937 52.9079 35.0677 52.9079 35.1171 52.8833C35.1911 52.9326 35.3145 53.0066 35.4872 52.982C35.66 52.982 35.9068 53.0067 36.0548 53.0313C36.0548 53.1054 36.0548 53.1794 36.0795 53.2287C36.0795 53.2534 36.0795 53.2534 36.1042 53.2781C35.9561 53.3275 35.4132 53.5002 35.2898 53.5742C35.1911 53.6236 35.1418 53.747 35.1171 53.7963C35.043 53.821 34.895 53.9197 34.7222 54.1912C34.6482 54.2899 34.6482 54.4133 34.6729 54.4873C34.6235 54.5613 34.5001 54.7341 34.3274 54.9808C34.1793 55.2029 33.8339 55.6471 33.5624 55.8445C33.3897 55.9679 33.439 56.0173 33.6118 55.9926C33.9819 55.9186 34.5248 55.1042 34.6235 54.9315C34.7469 54.6847 34.7469 54.5613 34.7222 54.4873C34.7469 54.4379 34.821 54.3639 34.9197 54.2405C35.1664 53.9691 35.1911 53.8457 35.1664 53.7963C35.2405 53.747 35.3638 53.6729 35.5613 53.5989C35.8327 53.5002 36.1042 53.4262 36.2276 53.4015C36.2522 53.4015 36.2522 53.4262 36.2769 53.4262L36.2522 53.5742C36.1288 53.6483 36.0301 53.747 35.9561 53.9197C35.9067 54.0184 35.8574 54.2158 35.808 54.4873C35.808 54.5366 35.7834 54.66 35.7834 54.7341C35.7834 54.7587 35.7834 54.7587 35.7834 54.7834C35.7834 54.8081 35.7834 54.8081 35.7834 54.8328C35.7587 55.0795 35.7587 55.351 35.808 55.5978C35.8327 55.6965 35.8574 55.7952 35.8821 55.8692C35.9068 55.9432 35.9314 55.9926 35.9808 56.0419C36.2522 56.3874 36.4743 56.4121 36.5237 56.4368H36.5484C36.5484 56.4368 36.8198 56.4368 37.1159 56.0419C37.4861 55.5731 37.264 54.1665 37.1159 53.895C37.0419 53.747 36.9432 53.6483 36.8445 53.5742V53.4262C36.8692 53.4015 36.9185 53.4015 36.9432 53.3768C37.0666 53.4015 37.338 53.4755 37.6342 53.5742C37.8316 53.6483 37.9796 53.7223 38.029 53.7716C38.029 53.821 38.0537 53.9444 38.2758 54.2158C38.3745 54.3392 38.4485 54.4132 38.4732 54.4626C38.4485 54.5366 38.4485 54.66 38.5719 54.9068C38.6459 55.0795 39.2135 55.8939 39.5837 55.9679C39.7564 55.9926 39.8058 55.9432 39.633 55.8199C39.3616 55.6224 39.0161 55.1783 38.868 54.9562C38.6953 54.6847 38.5719 54.512 38.5225 54.4626C38.5225 54.3886 38.5225 54.2652 38.4732 54.1665C38.3004 53.895 38.1277 53.7963 38.0784 53.7716C38.0537 53.6976 38.029 53.5989 37.9056 53.5496C37.7575 53.4755 37.1653 53.2781 37.0666 53.2534C37.0913 53.1794 37.1159 53.1054 37.1159 53.0313C37.264 53.0067 37.5601 52.9573 37.7329 52.9573C37.9056 52.9573 38.029 52.8833 38.103 52.8586C38.1524 52.8833 38.2264 52.9079 38.2758 52.8586C38.4238 52.7352 38.6213 52.5625 38.6706 52.4884C38.6953 52.4884 38.7446 52.4884 38.794 52.4884C38.8927 52.4638 39.0408 52.4391 39.2135 52.4144C39.4109 52.3897 39.7317 52.365 39.9538 52.365C40.1512 52.365 40.2253 52.3157 40.2006 52.2663L39.9538 52.3404Z" fill="#FBFBFF"/>
<path d="M36.4496 47.2325C33.513 47.2325 31.0947 49.6262 31.0947 52.5875C31.0947 55.524 33.4884 57.9424 36.4496 57.9424C39.3862 57.9424 41.8046 55.5487 41.8046 52.5875C41.8046 49.6509 39.4109 47.2325 36.4496 47.2325ZM36.4496 58.584C33.1429 58.584 30.4284 55.8942 30.4284 52.5628C30.4284 49.256 33.1182 46.5415 36.4496 46.5415C39.7564 46.5415 42.4709 49.2313 42.4709 52.5628C42.4709 55.8695 39.7811 58.584 36.4496 58.584Z" fill="#FEFEFE"/>
<path d="M29.8609 42.1736H43.2853V41.2358H29.8609V42.1736Z" fill="#FEFEFE"/>
</svg>
