<svg width="91" height="65" viewBox="0 0 91 65" fill="none" xmlns="http://www.w3.org/2000/svg">
<path d="M37.6238 9.86978C36.8523 9.78076 36.0809 9.72142 35.3391 9.72142L35.3688 8.94995C36.1402 8.97962 36.9414 9.00929 37.7128 9.09831L37.6238 9.86978ZM30.7993 9.98846L30.6806 9.217C31.4521 9.09831 32.2532 9.00929 33.0247 8.97962L33.084 9.75109C32.3126 9.81043 31.5708 9.86978 30.7993 9.98846ZM42.1339 10.7006C41.3921 10.4929 40.6503 10.3149 39.9085 10.1962L40.0569 9.4247C40.8284 9.57306 41.5998 9.75109 42.3416 9.95879L42.1339 10.7006ZM26.3782 11.0566L26.1408 10.3149C26.8826 10.0478 27.6541 9.8401 28.3959 9.66207L28.5739 10.4039C27.8321 10.5819 27.0903 10.7896 26.3782 11.0566ZM46.466 12.2138C45.7539 11.9171 45.0417 11.6204 44.3296 11.383L44.5967 10.6412C45.3385 10.9083 46.0506 11.1753 46.7924 11.5017L46.4957 12.2138H46.466ZM22.1945 12.926L21.8088 12.2435C22.4912 11.8578 23.2033 11.5017 23.9154 11.205L24.2418 11.9171C23.5594 12.2138 22.8769 12.5699 22.1945 12.926ZM50.531 14.3502C49.8783 13.9645 49.1958 13.5787 48.543 13.2227L48.8991 12.5402C49.5815 12.8963 50.264 13.282 50.9464 13.6974L50.531 14.3502ZM18.3668 15.4481L17.8921 14.825C18.5152 14.3502 19.168 13.8755 19.7911 13.4601L20.2065 14.1128C19.5834 14.5282 18.9603 14.9733 18.3372 15.4481H18.3668ZM54.24 17.0207C53.6466 16.5459 53.0531 16.0712 52.43 15.6261L52.8751 15.003C53.5279 15.4481 54.151 15.9525 54.7444 16.4272L54.24 17.0207ZM71.5386 17.3174C70.7672 17.258 69.9957 17.258 69.2539 17.2877L69.2242 16.5163C69.9957 16.4866 70.7672 16.5163 71.5683 16.5459L71.509 17.3174H71.5386ZM74.2388 17.6141C74.0904 17.5844 73.9717 17.5548 73.8234 17.5548L73.9421 16.7833C74.0904 16.813 74.2388 16.813 74.3871 16.8426L74.2684 17.6141H74.2388ZM64.7438 17.8812L64.5658 17.1394C65.3076 16.9613 66.1087 16.813 66.8802 16.724L66.9692 17.4954C66.1977 17.5844 65.4559 17.7328 64.7438 17.9108V17.8812ZM14.9249 18.5043L14.3611 17.9702C14.9249 17.4064 15.4887 16.8723 16.0524 16.3679L16.5568 16.9613C15.9931 17.4657 15.4293 17.9998 14.8952 18.5339L14.9249 18.5043ZM60.4711 19.4538L60.115 18.7713C60.7975 18.4152 61.5393 18.0889 62.281 17.8218L62.5481 18.5339C61.836 18.801 61.1238 19.0977 60.4711 19.4538ZM57.4742 20.2549C56.9995 19.6911 56.4951 19.1274 55.9313 18.5636L56.4654 17.9998C57.0588 18.5636 57.5929 19.157 58.0677 19.7208L57.4742 20.2252V20.2549ZM11.7797 21.8868L11.1863 21.3824C11.6907 20.8187 12.2248 20.2549 12.7589 19.6615L13.3226 20.1956C12.7885 20.7593 12.2544 21.3528 11.7797 21.9165V21.8868ZM56.7621 22.0352L56.228 21.4714C56.7918 20.9373 57.4149 20.4329 58.0677 19.9878L58.5127 20.611C57.8896 21.056 57.2962 21.5308 56.7621 22.0352ZM59.8183 24.0826C59.5809 23.4594 59.2545 22.777 58.8095 22.0945L59.4622 21.6791C59.937 22.4209 60.293 23.1331 60.5304 23.8155L59.8183 24.0826ZM8.81252 25.4475L8.18941 24.9727C8.66416 24.3793 9.13891 23.7858 9.673 23.1627L10.2664 23.6671C9.76201 24.2606 9.28726 24.8837 8.81252 25.4475ZM54.062 25.6255L53.3498 25.2991C53.6762 24.6166 54.0916 23.9342 54.5961 23.2517L55.2192 23.7265C54.7444 24.3496 54.3587 25.0024 54.0323 25.6255H54.062ZM61.2722 28.563L60.5007 28.5333C60.5007 28.4443 60.5007 28.3553 60.5007 28.2366C60.5007 27.6432 60.4414 26.9904 60.3524 26.2783L61.1239 26.1596C61.2425 26.9014 61.3019 27.5838 61.3019 28.2366C61.3019 28.3553 61.3019 28.4443 61.3019 28.563H61.2722ZM6.11238 29.1861L5.45961 28.7707C5.87501 28.1476 6.32009 27.4948 6.79484 26.842L7.41794 27.2871C6.94319 27.9399 6.49812 28.563 6.11238 29.1861ZM52.8158 30.0763C52.6674 29.6015 52.5784 29.0971 52.5784 28.5333C52.5784 28.2366 52.6081 27.9102 52.6377 27.6135L53.4092 27.7322C53.3795 27.9992 53.3498 28.2959 53.3498 28.563C53.3498 29.0377 53.4092 29.4531 53.5575 29.8685L52.8158 30.1059V30.0763ZM59.0765 32.8061L58.7501 32.0939C59.3435 31.8269 59.8183 31.3225 60.115 30.64L60.8271 30.9367C60.4414 31.7972 59.8776 32.4203 59.1062 32.8061H59.0765ZM56.5841 33.0731C55.7533 32.9247 54.9521 32.5984 54.2993 32.1236L54.7444 31.5005C55.3082 31.9159 55.9906 32.2126 56.7028 32.3313L56.5544 33.1028L56.5841 33.0731ZM3.76831 33.1324L3.08586 32.7764C3.44193 32.0939 3.82766 31.4115 4.24306 30.729L4.89584 31.1148C4.48044 31.7972 4.12438 32.45 3.76831 33.1028V33.1324ZM1.92867 37.3162L1.18687 37.0491C1.42424 36.337 1.72096 35.5952 2.04735 34.8534L2.75947 35.1798C2.43309 35.8919 2.16604 36.604 1.92867 37.3162ZM0.890153 41.7373L0.118687 41.6482C0.207702 40.8768 0.356061 40.1053 0.534092 39.3338L1.27589 39.5119C1.09786 40.2537 0.949497 41.0251 0.860481 41.7373H0.890153ZM0.237374 46.3661C0.0890153 45.5946 0.0296718 44.7934 0 43.9923H0.771466C0.771466 44.7638 0.860481 45.5056 0.979168 46.2474L0.207702 46.3661H0.237374ZM1.80998 50.8168C1.42425 50.1047 1.09786 49.3926 0.83081 48.6508L1.5726 48.3837C1.80998 49.0959 2.13637 49.7783 2.49243 50.4311L1.80998 50.7871V50.8168ZM4.65847 54.5851C4.0947 54.0214 3.56061 53.3983 3.11554 52.8048L3.73864 52.3301C4.18372 52.9235 4.68814 53.4873 5.22223 54.051L4.65847 54.5851ZM8.3081 57.582C7.65532 57.1369 7.00254 56.6622 6.4091 56.1874L6.88385 55.594C7.44761 56.0687 8.07072 56.5138 8.7235 56.9589L8.3081 57.6117V57.582ZM12.4028 59.8964C11.6907 59.5403 10.9786 59.1843 10.3258 58.8282L10.7115 58.1457C11.3643 58.5018 12.0467 58.8579 12.7589 59.2139L12.4325 59.9261L12.4028 59.8964ZM16.7349 61.6767C15.9931 61.4096 15.2513 61.1426 14.5392 60.8459L14.8359 60.1338C15.5183 60.4305 16.2601 60.6975 17.0019 60.9646L16.7349 61.7064V61.6767ZM21.2153 63.0416C20.5032 62.8636 19.7614 62.6559 18.9603 62.4185L19.1976 61.6767C19.9988 61.9141 20.7406 62.1218 21.423 62.2998L21.245 63.0416H21.2153ZM25.8144 63.9911C25.7848 63.9911 24.9243 63.8724 23.5 63.5757L23.6484 62.8042C25.043 63.1009 25.9035 63.2196 25.9331 63.2196L25.8441 63.9911H25.8144Z" fill="#D7D9DD"/>
<path d="M19.4644 55.1192C19.5534 54.4368 19.5831 53.962 19.5831 53.962L15.1027 52.8345C15.1027 52.8345 14.8059 53.4576 14.4796 54.2588C13.8564 53.9917 13.2927 53.6357 12.7289 53.2499C13.352 52.8048 13.8268 52.3894 13.8268 52.3894L11.6014 48.3541C11.6014 48.3541 10.4739 48.7101 9.40568 49.2146C9.04962 48.4431 8.78258 47.6123 8.63422 46.7815C9.79142 46.6925 10.9189 46.4254 10.9189 46.4254L10.8893 41.8263C10.8893 41.8263 10.0288 41.6483 9.01995 41.5889C9.37601 40.5801 9.88043 39.6009 10.5629 38.7108C11.3047 39.4822 12.0761 40.135 12.0761 40.135L15.6961 37.2865C15.6961 37.2865 15.251 36.3964 14.6576 35.5359C15.5774 35.1501 16.5566 34.8831 17.5357 34.7644C17.3874 35.7139 17.3577 36.5744 17.3577 36.5744L21.8382 37.7019C21.8382 37.7019 22.3722 36.6337 22.7283 35.5359C23.5888 35.8919 24.4196 36.3964 25.1911 37.0195C24.4196 37.7019 23.7965 38.414 23.7965 38.414L26.4966 42.1527C26.4966 42.1527 27.3571 41.7373 28.2473 41.2032C28.544 41.945 28.7517 42.7164 28.8407 43.4879C27.8022 43.6066 26.8824 43.8143 26.8824 43.8143L26.912 48.4134C26.912 48.4134 27.5055 48.5321 28.2769 48.6211C27.8912 49.63 27.3571 50.5795 26.645 51.4399C25.9329 50.6685 25.1614 50.0157 25.1614 50.0157L21.5414 52.8642C21.5414 52.8642 21.9272 53.6653 22.4613 54.4961C21.5118 54.8819 20.5029 55.0896 19.4941 55.1786L19.4644 55.1192ZM18.6929 39.5416C17.5357 39.5416 16.3489 39.9273 15.3697 40.6988C13.0256 42.5384 12.6399 45.921 14.4796 48.2651C15.5477 49.6003 17.1203 50.3124 18.7226 50.3124C19.8798 50.3124 21.0667 49.9267 22.0459 49.1552C24.3899 47.3156 24.7757 43.933 22.936 41.5889C21.8678 40.2537 20.2952 39.5416 18.6929 39.5416Z" fill="#E9EEF7"/>
<path d="M12.0763 40.135C12.0763 40.135 11.3049 39.4823 10.5631 38.7108C9.88063 37.9987 9.25752 37.1679 9.31687 36.6338C9.43555 35.5656 11.5422 33.7556 12.7291 33.7556C12.8181 33.7556 12.8775 33.7556 12.9368 33.7853C13.4709 33.904 14.1237 34.7051 14.6578 35.5359C15.2512 36.4261 15.6963 37.2866 15.6963 37.2866L12.0763 40.135Z" fill="#E9EEF7"/>
<path d="M24.42 56.3357C24.3904 56.3357 24.331 56.3357 24.3014 56.3357C23.7376 56.2764 23.0255 55.3269 22.4617 54.4367C21.9276 53.6059 21.5419 52.8048 21.5419 52.8048L25.1618 49.9563C25.1618 49.9563 25.9036 50.6091 26.6454 51.3805C27.2982 52.0927 27.951 52.9235 27.951 53.4576C27.951 54.5554 25.6366 56.3061 24.4497 56.3061L24.42 56.3357Z" fill="#E9EEF7"/>
<path d="M7.92241 46.8112C7.2993 46.8112 6.73553 46.7222 6.46849 46.4848C5.63768 45.6837 5.54866 42.5978 6.43882 41.8857C6.73553 41.6483 7.35864 41.5593 8.07076 41.5593C8.39715 41.5593 8.72354 41.589 9.04993 41.589C10.0291 41.678 10.9193 41.8264 10.9193 41.8264L10.9489 46.4255C10.9489 46.4255 9.79173 46.6925 8.6642 46.7816C8.42683 46.8112 8.18945 46.8112 7.95208 46.8112H7.92241Z" fill="#E9EEF7"/>
<path d="M10.118 54.5556C10.0289 54.5556 9.9696 54.5556 9.91026 54.526C8.8124 54.1996 7.2398 51.5588 7.68487 50.4906C7.8629 50.0455 8.6047 49.6005 9.40584 49.2147C10.474 48.7103 11.6015 48.3542 11.6015 48.3542L13.8269 52.3896C13.8269 52.3896 13.3522 52.805 12.7291 53.2501C11.8983 53.8732 10.8004 54.5853 10.118 54.5853V54.5556Z" fill="#E9EEF7"/>
<path d="M26.4673 42.0933L23.7672 38.3547C23.7672 38.3547 24.3903 37.6425 25.1617 36.9601C25.8738 36.337 26.7047 35.7139 27.2684 35.7139C27.2981 35.7139 27.3278 35.7139 27.3871 35.7139C28.5146 35.8919 30.384 38.325 30.0872 39.4525C29.9389 39.9866 29.0784 40.6097 28.2179 41.1438C27.3278 41.6779 26.4673 42.0933 26.4673 42.0933Z" fill="#E9EEF7"/>
<path d="M21.8387 37.6723L17.3582 36.5448C17.3582 36.5448 17.4176 35.714 17.5362 34.7348C17.6846 33.6963 17.9813 32.5391 18.4264 32.1831C18.6638 32.005 19.0495 31.916 19.4649 31.916C20.7111 31.916 22.4618 32.5688 22.9068 33.2809C23.1442 33.6963 22.9662 34.5865 22.6991 35.447C22.3431 36.5448 21.809 37.613 21.809 37.613L21.8387 37.6723Z" fill="#E9EEF7"/>
<path d="M17.4471 58.5315C16.2009 58.5315 14.4503 57.8787 14.0052 57.1666C13.6788 56.6325 14.0645 55.2972 14.4799 54.2587C14.7766 53.4576 15.103 52.8345 15.103 52.8345L19.5835 53.962C19.5835 53.962 19.5538 54.4664 19.4648 55.1192C19.3164 56.2467 19.0494 57.849 18.4856 58.2941C18.2482 58.4721 17.8625 58.5611 17.4471 58.5611V58.5315Z" fill="#E9EEF7"/>
<path d="M29.7312 48.651C29.2268 48.651 28.7224 48.6213 28.2476 48.5619C27.4762 48.4729 26.8827 48.3542 26.8827 48.3542L26.8531 43.7551C26.8531 43.7551 27.8026 43.5474 28.8114 43.4287C29.1675 43.3991 29.5235 43.3694 29.8499 43.3694C30.473 43.3694 31.0368 43.4584 31.3038 43.6958C32.1346 44.4969 32.2237 47.5828 31.3335 48.2949C31.0368 48.5323 30.4137 48.6213 29.7016 48.6213L29.7312 48.651Z" fill="#E9EEF7"/>
<path d="M46.8515 18.3561C44.5074 20.1957 41.1248 19.7803 39.2852 17.4659C37.4455 15.1218 37.8609 11.7393 40.1753 9.89961C42.5194 8.05996 45.902 8.47536 47.7416 10.7898C49.5813 13.1338 49.1659 16.5164 46.8515 18.3561ZM37.2081 6.10162C32.7574 9.60289 32.0156 16.0417 35.4872 20.4628C38.9884 24.9135 45.4272 25.6553 49.8483 22.1837C54.2991 18.6825 55.0409 12.2437 51.5693 7.82258C48.068 3.37182 41.6292 2.63002 37.2081 6.10162Z" fill="#D5E6FF"/>
<path d="M40.5316 6.48743L36.9116 9.33592C36.9116 9.33592 34.0038 6.9325 34.1521 5.83465C34.3005 4.67745 36.6446 2.71911 37.7721 2.98616C38.87 3.22353 40.5316 6.48743 40.5316 6.48743Z" fill="#DAE2F2"/>
<path d="M49.9672 19.157L46.3473 22.0055C46.3473 22.0055 48.0089 25.3881 49.1067 25.5067C50.2639 25.6551 52.7267 23.8155 52.7267 22.6583C52.7267 21.5307 49.9672 19.157 49.9672 19.157Z" fill="#D5E6FF"/>
<path d="M35.7251 11.0269L35.7548 15.626C35.7548 15.626 32.0755 16.4568 31.2743 15.6557C30.4435 14.8545 30.3545 11.7687 31.2447 11.0566C32.1051 10.3444 35.7251 11.0269 35.7251 11.0269Z" fill="#DAE2F2"/>
<path d="M36.4074 17.5547L38.6328 21.59C38.6328 21.59 35.7843 24.0528 34.7161 23.7561C33.6183 23.4297 32.0457 20.7889 32.4908 19.7207C32.9062 18.6822 36.4074 17.5547 36.4074 17.5547Z" fill="#DAE2F2"/>
<path d="M51.2727 11.294L48.5726 7.55533C48.5726 7.55533 51.0947 4.76618 52.1925 4.94421C53.32 5.12224 55.1894 7.55533 54.8926 8.68285C54.5959 9.75104 51.2727 11.294 51.2727 11.294Z" fill="#D5E6FF"/>
<path d="M42.1636 5.7454L46.644 6.87293C46.644 6.87293 48.3057 3.49035 47.7419 2.54085C47.1485 1.56168 44.1813 0.730875 43.2615 1.41333C42.3713 2.09578 42.1636 5.7454 42.1636 5.7454Z" fill="#DAE2F2"/>
<path d="M44.3892 23.1629L39.9087 22.0354C39.9087 22.0354 38.2471 25.418 38.8109 26.3675C39.4043 27.3466 42.3715 28.1775 43.2913 27.495C44.1815 26.8126 44.3892 23.1629 44.3892 23.1629Z" fill="#DAE2F2"/>
<path d="M51.7179 17.5845L51.6882 12.9854C51.6882 12.9854 55.3675 12.1546 56.1687 12.9557C56.9995 13.7568 57.0885 16.8427 56.1983 17.5548C55.3379 18.267 51.7476 17.5845 51.7476 17.5845H51.7179Z" fill="#D5E6FF"/>
<path d="M20.0015 25.3341C19.2003 25.3044 18.4289 25.1561 17.6871 24.889C17.9541 24.4439 18.1321 24.0879 18.1321 24.0879L15.3133 21.9218C15.3133 21.9218 14.8979 22.2779 14.4528 22.723C14.0968 22.3372 13.8001 21.9218 13.533 21.4768C14.1265 21.3581 14.5715 21.2097 14.5715 21.2097L14.2451 17.6788C14.2451 17.6788 13.5924 17.6194 12.8506 17.6194C12.7022 17.6194 12.5539 17.6194 12.4055 17.6194C12.3758 16.9667 12.4648 16.2842 12.6132 15.6611C13.444 15.9578 14.3342 16.1062 14.3342 16.1062L15.7287 12.8423C15.7287 12.8423 15.165 12.4565 14.4825 12.1005C15.0463 11.4774 15.6991 10.9433 16.4409 10.5279C16.7079 11.2993 17.064 12.0115 17.064 12.0115L20.5059 11.0916C20.5059 11.0916 20.4465 10.3202 20.2982 9.51904C21.0697 9.51904 21.8411 9.63773 22.5532 9.8751C22.1675 10.4982 21.8708 11.0916 21.8708 11.0916L22.5829 11.6257C22.2862 11.7741 21.9895 11.9225 21.7224 12.0708L22.1082 12.7533C22.4939 12.5456 22.8796 12.3379 23.295 12.1302L24.7193 13.228C24.7193 13.228 25.4017 12.6346 25.9952 11.9521C26.4996 12.4862 26.9447 13.0797 27.2711 13.7621C26.5293 13.9995 25.8468 14.2962 25.8468 14.2962L26.6183 17.7678C26.6183 17.7678 27.3601 17.7381 28.1612 17.6491C28.1315 18.2722 28.0425 18.8657 27.8942 19.4591C27.1227 19.2217 26.4106 19.0734 26.4106 19.0734L25.016 22.3372C25.016 22.3372 25.4017 22.6043 25.9358 22.901C25.3424 23.4944 24.6599 23.9989 23.9181 24.4143C23.6511 23.6428 23.3247 22.9604 23.3247 22.9604L19.8828 23.8802C19.8828 23.8802 19.9125 24.5626 20.0311 25.3044L20.0015 25.3341ZM16.1441 17.115C16.1145 17.5601 16.1441 18.0348 16.2628 18.5096C16.7672 20.3789 18.4289 21.5955 20.2685 21.5955C20.6246 21.5955 20.9806 21.5361 21.3367 21.4471C23.5621 20.8537 24.8676 18.5986 24.3039 16.3732C23.7995 14.5039 22.1378 13.2874 20.2982 13.2874C20.1202 13.2874 19.9421 13.2874 19.7344 13.317C19.5564 13.3467 19.408 13.3764 19.23 13.406C17.7167 13.8215 16.6189 15.0083 16.2628 16.4326L16.0255 16.1655C15.4617 16.6699 14.8683 17.204 14.3342 17.7678L14.8979 18.3019C15.3133 17.8865 15.7584 17.4711 16.1738 17.0557L16.1441 17.115Z" fill="#EF1912"/>
<path d="M17.0639 12.0116C17.0639 12.0116 16.7078 11.2994 16.4408 10.528C16.1738 9.81585 15.9957 9.04438 16.2034 8.65865C16.5298 8.09488 17.8947 7.56079 18.8739 7.56079C19.2003 7.56079 19.4673 7.62014 19.6454 7.73882C19.9717 7.9762 20.2091 8.74766 20.3278 9.48946C20.4762 10.2906 20.5355 11.0621 20.5355 11.0621L17.0936 11.9819L17.0639 12.0116Z" fill="#EF1912"/>
<path d="M21.5445 27.3814C21.2182 27.3814 20.9214 27.3221 20.7434 27.2331C20.3577 26.9957 20.15 26.1352 20.0016 25.3341C19.8829 24.5923 19.8533 23.9098 19.8533 23.9098L23.2952 22.99C23.2952 22.99 23.6216 23.6724 23.8886 24.4439C24.126 25.156 24.3337 25.9275 24.1557 26.3132C23.8886 26.9363 22.5237 27.3814 21.5149 27.3814H21.5445Z" fill="#EF1912"/>
<path d="M14.3044 16.1359C14.3044 16.1359 13.4142 15.9578 12.5834 15.6908C11.9306 15.4534 11.2778 15.1567 11.1295 14.8006C10.8031 13.9698 11.6636 11.7741 12.524 11.5368C12.5834 11.5071 12.6427 11.5071 12.7317 11.5071C13.1768 11.5071 13.8593 11.8038 14.4527 12.1302C15.1352 12.4862 15.6989 12.872 15.6989 12.872L14.3044 16.1359Z" fill="#EF1912"/>
<path d="M11.8715 21.7441C11.5452 21.7441 11.2484 21.6848 11.1001 21.5661C10.4176 21.0023 10.1209 18.6583 10.7737 18.0351C11.0407 17.7681 11.6935 17.6791 12.376 17.6494C12.5243 17.6494 12.6727 17.6494 12.821 17.6494C13.5628 17.6494 14.2156 17.7088 14.2156 17.7088L14.542 21.2397C14.542 21.2397 14.0969 21.3881 13.5035 21.5067C12.9991 21.6254 12.376 21.7441 11.8715 21.7441ZM12.6727 19.4891C12.1386 20.0825 11.6045 20.6463 11.1001 21.21L11.6935 21.7144C12.1979 21.1507 12.7024 20.5869 13.2364 19.9935L12.6727 19.4594V19.4891Z" fill="#EF1912"/>
<path d="M11.6934 21.7144L11.1 21.21C11.6044 20.6462 12.1385 20.0824 12.6726 19.489L13.2363 20.0231C12.7023 20.5869 12.1682 21.1803 11.6934 21.7441V21.7144Z" fill="#EF1912"/>
<path d="M26.7049 17.9999L25.9334 14.5283C25.9334 14.5283 26.5862 14.2316 27.3576 13.9942C27.8621 13.8162 28.4258 13.6975 28.8116 13.6975C29.0193 13.6975 29.1676 13.7272 29.2863 13.8162C30.0281 14.2909 30.6215 16.6053 30.0578 17.2878C29.7907 17.6142 28.9896 17.7922 28.2181 17.9109C27.417 18.0296 26.6752 18.0296 26.6752 18.0296L26.7049 17.9999Z" fill="#FFE9B8"/>
<path d="M23.3518 12.3328L22.6694 11.7987C23.0848 11.591 23.5002 11.3833 23.9156 11.2053L24.242 11.9174C23.9453 12.0361 23.6486 12.1844 23.3815 12.3328H23.3518ZM26.3487 11.0866L26.1113 10.3448C26.2893 10.2854 26.497 10.2261 26.6751 10.1667C26.7938 10.3448 26.8828 10.5228 26.8828 10.7008C26.8828 10.7602 26.8828 10.8492 26.8531 10.9382C26.6751 10.9976 26.497 11.0569 26.3487 11.1162V11.0866Z" fill="#EF1912"/>
<path d="M15.8477 26.8474C14.9279 26.8474 13.3256 25.4825 13.207 24.6517C13.1476 24.1769 13.8301 23.3461 14.4235 22.723C14.8686 22.2483 15.284 21.9219 15.284 21.9219L18.1028 24.0879C18.1028 24.0879 17.9248 24.444 17.6577 24.8891C17.2126 25.6605 16.5302 26.699 15.9961 26.8177C15.9368 26.8177 15.8774 26.8474 15.8181 26.8474H15.8477Z" fill="#EF1912"/>
<path d="M28.0691 23.9345C27.535 23.9345 26.6746 23.4894 25.9921 23.1333C25.4877 22.8366 25.0723 22.5696 25.0723 22.5696L26.4669 19.3057C26.4669 19.3057 27.2086 19.454 27.9504 19.6914C28.6922 19.9288 29.4637 20.2552 29.6417 20.6409C29.9681 21.4717 29.1076 23.6674 28.2472 23.9048C28.1878 23.9345 28.1285 23.9345 28.0395 23.9345H28.0691Z" fill="#FFE9B8"/>
<path d="M72.0723 17.5251L70.292 16.991L72.3394 14.8843L79.9353 17.4954L72.0723 17.5251Z" fill="#EF1912"/>
<path d="M71.9245 20.4627L79.9359 17.4955L72.1322 16.457L71.9245 20.4627Z" fill="#EF1912"/>
<path d="M79.9359 17.4955L72.2509 15.4184L72.8443 11.7688L79.9359 17.4955Z" fill="#EF1912"/>
<path d="M70.292 16.9911L72.1317 16.457L72.0723 17.5252L70.292 16.9911Z" fill="#EF1912"/>
<path d="M43.2615 12.3327L42.1636 12.0064L43.4098 10.7305L47.9793 12.3031L43.2615 12.3327Z" fill="#F0C542"/>
<path d="M43.1721 14.113L47.9789 12.303L43.2908 11.6799L43.1721 14.113Z" fill="#FAD77E"/>
<path d="M47.9794 12.303L43.3506 11.0568L43.7067 8.86108L47.9794 12.303Z" fill="#FAD784"/>
<path d="M42.1636 12.0063L43.2911 11.6799L43.2615 12.3327L42.1636 12.0063Z" fill="#DBAB33"/>
<path d="M49.7296 20.5812C49.7296 23.0143 47.7713 24.9727 45.3382 24.9727C42.9051 24.9727 40.9468 23.0143 40.9468 20.5812V16.3975C40.9468 13.9644 42.9051 12.0061 45.3382 12.0061C47.7713 12.0061 49.7296 13.9644 49.7296 16.3975V20.5812Z" fill="#5F82D6"/>
<path d="M26.3486 22.3024C26.7047 30.8775 31.5412 37.6724 37.1195 37.4943C42.6978 37.2866 46.8815 30.1951 46.5254 21.6199C46.1397 13.0448 41.3329 6.24995 35.7546 6.42798C30.1763 6.63568 25.9629 13.7272 26.3486 22.3024Z" fill="#FFBD9C"/>
<path d="M45.1902 14.1129C45.1902 14.1129 39.8196 14.9733 30.5621 11.5017C30.5621 11.5017 23.4705 18.2966 28.129 28.9191C28.129 28.9191 21.3045 22.7473 24.687 12.0062C28.0399 1.23531 35.0128 3.25299 38.7811 1.94743C42.5494 0.612199 46.7925 2.98594 49.5817 0.46384C52.3115 -2.02859 53.2906 7.61474 45.2199 14.1129H45.1902Z" fill="#2E3B57"/>
<path d="M24.5092 22.243C24.5685 24.5871 25.6367 26.4564 26.8532 26.3971C28.0995 26.3377 29.049 24.3794 28.9599 22.0353C28.9006 19.6912 27.8324 17.8219 26.5862 17.8813C25.34 17.9406 24.3905 19.8989 24.4795 22.243H24.5092Z" fill="#FFC190"/>
<path d="M35.7548 39.3042C24.0047 39.3042 14.1537 50.2234 11.3942 65H60.1153C57.3558 50.2234 47.5048 39.3042 35.7548 39.3042Z" fill="#EF1912"/>
<path d="M40.0274 43.3394L36.4371 47.6121L32.8468 43.3394V35.239H40.0274V43.3394Z" fill="#FFC190"/>
<path d="M29.1079 21.1748C29.1079 23.6078 27.1496 25.5662 24.7165 25.5662C22.2834 25.5662 20.3251 23.6078 20.3251 21.1748V16.991C20.3251 14.5579 22.2834 12.5996 24.7165 12.5996C27.1496 12.5996 29.1079 14.5579 29.1079 16.991V21.1748Z" fill="#5F82D6"/>
<path d="M37.7126 1.73975H30.8287C26.6153 1.73975 23.1734 5.18167 23.1734 9.39506V14.1129H25.3691V10.1665C25.3691 6.78395 28.1286 4.02447 31.5112 4.02447H37.0301C40.4127 4.02447 43.1722 6.78395 43.1722 10.1665V14.1129H45.3679V9.39506C45.3679 5.18167 41.9556 1.73975 37.7126 1.73975Z" fill="#5F82D6"/>
<path d="M32.8463 7.19935C32.8463 7.19935 35.4575 2.21449 38.9587 1.85843C42.46 1.50237 46.3767 2.27383 47.979 1.35401C49.5812 0.434182 51.8956 -1.40547 51.5396 1.85843C51.1835 5.09265 52.4891 12.4513 45.6349 16.1009C45.6349 16.1009 32.9354 15.8635 30.5913 11.4721L32.876 7.19935H32.8463Z" fill="#2E3B57"/>
<path d="M42.9942 30.6103C42.9942 31.4708 42.3117 32.1532 41.4512 32.1532H39.9083C39.0478 32.1532 38.3654 31.4708 38.3654 30.6103C38.3654 29.7498 39.0478 29.0674 39.9083 29.0674H41.4512C42.3117 29.0674 42.9942 29.7498 42.9942 30.6103Z" fill="#5F82D6"/>
<path d="M43.6473 31.4114C42.5495 31.4114 41.4516 31.3224 40.5911 31.2334L40.7692 29.6904C43.5286 29.9872 46.3771 29.8388 46.7332 29.3641C47.564 26.8716 46.7332 23.8154 46.7035 23.7858L48.1871 23.3704C48.2168 23.5187 49.1663 26.9013 48.1871 29.8685C47.7717 31.085 45.754 31.4114 43.677 31.4114H43.6473Z" fill="#5F82D6"/>
<path d="M90.4393 37.9096C90.4393 45.0605 81.5674 49.0069 74.4462 49.0069C67.2953 49.0069 62.1028 44.9715 62.1028 37.8206C62.1028 30.6697 68.2151 26.7827 75.366 26.7827C82.5169 26.7827 90.4393 30.7884 90.4393 37.9393V37.9096Z" fill="#EF1912"/>
<path d="M63.5567 52.3598L68.2745 46.6331L64.2688 40.9065L63.5567 52.3598Z" fill="#EF1912"/>
<path d="M68.6307 40.9063V40.0459L69.4021 39.3337C70.7374 38.1469 71.3605 37.4644 71.3901 36.7523C71.3901 36.2479 71.0934 35.8621 70.3813 35.8621C69.8472 35.8621 69.4021 36.1292 69.0758 36.3666L68.6603 35.3577C69.1054 35.0017 69.8175 34.7346 70.6484 34.7346C72.0133 34.7346 72.7847 35.5358 72.7847 36.6336C72.7847 37.6425 72.0429 38.4733 71.1824 39.2447L70.6187 39.7195V39.7492H72.9034V40.9063H68.601H68.6307Z" fill="white"/>
<path d="M76.3157 38.3845V37.0492C76.3157 36.6932 76.3454 36.3074 76.3751 35.9217H76.3454C76.1377 36.3074 75.9893 36.6635 75.7816 37.0492L74.9805 38.3845V38.4141H76.3454L76.3157 38.3845ZM76.3157 40.9066V39.4526H73.6453V38.5328L75.93 34.8535H77.651V38.4141H78.3928V39.4823H77.651V40.9362H76.3157V40.9066Z" fill="white"/>
<path d="M78.7486 41.2626L80.7367 34.5271H81.6862L79.6685 41.2626H78.7486Z" fill="white"/>
<path d="M86.4039 34.8535V35.7437L83.9115 40.9066H82.4279L84.9203 36.0107H82.1312V34.8535H86.4039Z" fill="white"/>
</svg>
