<svg width="46" height="65" viewBox="0 0 46 65" fill="none" xmlns="http://www.w3.org/2000/svg">
<g clip-path="url(#clip0_437_32)">
<path fill-rule="evenodd" clip-rule="evenodd" d="M16.0995 21.2725C15.9884 20.0538 14.9332 16.4807 12.1146 11.3703C9.29597 6.27373 11.5592 3.15764 15.8773 3.33768C20.1816 3.51772 19.6262 0 23.139 0C26.6518 0 26.0826 3.53157 30.4007 3.33768C34.705 3.15764 36.9821 6.25988 34.1635 11.3703C31.3449 16.4668 30.2896 20.0399 30.1786 21.2725C29.1511 32.1165 17.1408 32.1165 16.1134 21.2725H16.0995Z" fill="#7C0406"/>
<path fill-rule="evenodd" clip-rule="evenodd" d="M23.0141 19.4722C35.7186 19.4722 46.0071 29.6652 46.0071 42.2404C46.0071 54.8156 47.0485 65.0086 23.0141 65.0086C-1.02036 65.0086 0.020996 54.8156 0.020996 42.2404C0.020996 29.6652 10.3096 19.4722 23.0141 19.4722Z" fill="#7C0406"/>
<path fill-rule="evenodd" clip-rule="evenodd" d="M23.014 19.4722C29.3732 19.4722 35.1354 22.0343 39.3008 26.1752C40.7309 29.139 41.5224 32.4628 41.5224 35.9667C41.5224 48.5418 42.5637 58.7349 18.5293 58.7349C9.75416 58.7349 4.33913 57.3777 0.965149 55.0372C-0.145626 51.3948 0.00710516 46.9907 0.00710516 42.2404C0.00710516 29.6652 10.2957 19.4722 23.0002 19.4722H23.014Z" fill="#EF1912"/>
<path fill-rule="evenodd" clip-rule="evenodd" d="M13.628 15.8159H32.414C33.136 15.8159 33.7192 16.3976 33.7192 17.1178C33.7192 17.8379 33.136 18.4196 32.414 18.4196H13.628C12.906 18.4196 12.3228 17.8379 12.3228 17.1178C12.3228 16.3976 12.906 15.8159 13.628 15.8159Z" fill="#7C0406"/>
<path fill-rule="evenodd" clip-rule="evenodd" d="M13.628 18.4197H32.414C33.136 18.4197 33.7192 19.0013 33.7192 19.7215C33.7192 20.4417 33.136 21.0233 32.414 21.0233H13.628C12.906 21.0233 12.3228 20.4417 12.3228 19.7215C12.3228 19.0013 12.906 18.4197 13.628 18.4197Z" fill="#EF1912"/>
<path d="M25.4994 30.1638C26.5408 30.4546 27.4155 30.9255 28.1236 31.5903C29.0955 32.5182 29.7204 33.7508 29.9842 35.3019L26.0548 35.8143C25.9437 35.2603 25.7632 34.8033 25.4994 34.4155V30.1638ZM25.4994 39.7891C27.2766 40.3984 28.5402 41.1324 29.2622 42.0049C30.1647 43.0713 30.609 44.4424 30.609 46.1182C30.609 47.9878 30.0397 49.5667 28.915 50.8408C28.0403 51.8379 26.9018 52.5304 25.4994 52.9182V49.2343C25.7077 49.0819 25.9021 48.9019 26.0826 48.6942C26.5685 48.1125 26.8184 47.4477 26.8184 46.6722C26.8184 45.9797 26.6102 45.3842 26.2075 44.8856C26.027 44.664 25.791 44.4563 25.5133 44.2901V39.7891H25.4994ZM21.931 49.5528V43.0575C21.5839 42.9605 21.2507 42.8498 20.9313 42.7251V38.0302C21.209 38.2656 21.5423 38.4595 21.931 38.6257V33.266C21.5423 33.3907 21.209 33.5846 20.9313 33.82V30.0392C21.2507 29.9699 21.5839 29.9145 21.931 29.873V28.3357H24.1804V29.873C24.6524 29.9284 25.0829 30.0115 25.4994 30.1223V34.374C25.1801 33.8893 24.7357 33.543 24.1804 33.2937V39.3459C24.6524 39.4705 25.0829 39.609 25.4994 39.7475V44.2485C25.1384 44.0269 24.708 43.8469 24.1804 43.6946V49.7329C24.6802 49.6359 25.1106 49.4559 25.4994 49.1927V52.8766C25.0829 53.0013 24.6386 53.0844 24.1804 53.1536V56.0481H21.931V53.2229C21.5839 53.1813 21.2507 53.1259 20.9313 53.0428V48.7911C21.2368 49.0958 21.5839 49.3312 21.931 49.4974V49.5528ZM20.9313 42.739C19.404 42.1711 18.2516 41.4094 17.4602 40.44C16.516 39.2628 16.0439 37.8363 16.0439 36.1744C16.0439 34.4848 16.5854 33.0583 17.6545 31.9088C18.5154 30.9809 19.6123 30.3715 20.9313 30.0807V33.8616C20.7647 34.0001 20.612 34.1662 20.4731 34.3601C20.1121 34.8587 19.9316 35.4127 19.9316 36.0082C19.9316 36.5483 20.0983 37.0607 20.4315 37.5316C20.5703 37.7255 20.737 37.9056 20.9452 38.0717V42.7667L20.9313 42.739ZM20.9313 53.0982C19.5845 52.7797 18.4599 52.1703 17.5574 51.2701C16.4327 50.1622 15.7246 48.5834 15.4191 46.5475L19.4734 46.1182C19.6401 46.9491 19.9455 47.6555 20.4037 48.251C20.5703 48.4726 20.737 48.6665 20.9175 48.8465V53.0982H20.9313Z" fill="white"/>
<path fill-rule="evenodd" clip-rule="evenodd" d="M13.0448 13.1014C12.7671 12.5475 12.4478 11.9658 12.1284 11.3703C9.30986 6.27373 11.5731 3.15764 15.8912 3.33768C20.1955 3.51772 19.6401 0 23.1529 0C26.6657 0 26.0965 3.53157 30.4146 3.33768C31.2477 3.29613 32.0113 3.39308 32.6639 3.60082C32.1224 5.19348 31.8308 6.37067 31.5393 7.11854C28.9012 13.6831 19.6956 15.4697 13.0726 13.1153L13.0448 13.1014Z" fill="#EF1912"/>
</g>
<defs>
<clipPath id="clip0_437_32">
<rect width="46" height="65" fill="white"/>
</clipPath>
</defs>
</svg>
