<svg width="110" height="65" viewBox="0 0 110 65" fill="none" xmlns="http://www.w3.org/2000/svg">
<path d="M65.0284 47.7605C65.9335 45.9242 67.3948 44.4048 69.0082 43.171C70.3121 42.1755 71.7839 41.2063 73.3265 40.6352C74.6933 40.127 74.9976 41.3215 76.1021 41.7302C76.8078 41.9922 77.5896 41.5914 78.1458 41.0858C78.681 40.5959 79.1244 39.9829 79.7619 39.6162C80.2341 39.3464 80.9372 39.2101 81.4304 39.5009C82.0443 39.8598 81.9394 40.7452 82.7684 40.8474C83.1541 40.8945 83.5397 40.7557 83.8886 40.5854C84.7098 40.182 85.5257 39.81 86.4072 39.5507C87.2047 39.3176 88.2384 39.239 88.6975 39.9305C89.1382 40.5933 88.7185 41.4918 88.1885 42.0865C86.9083 43.5141 85.0167 44.2843 83.1147 44.5384C82.5953 44.6065 82.0627 44.6432 81.5826 44.8554C81.1025 45.0649 80.6801 45.4998 80.6617 46.0237C80.6512 46.304 80.7562 46.5791 80.7614 46.8594C80.7719 47.64 80.0006 48.2242 79.2372 48.3971C77.2748 48.845 75.9972 47.1239 74.1529 46.8594C72.062 46.5607 68.8403 46.8856 67.3895 48.6459L65.0284 47.7657V47.7605Z" fill="#AFEDFF"/>
<path d="M68.4756 46.9039C70.4984 45.0204 73.1796 43.7735 75.9867 43.4094C77.7339 43.1841 79.5074 43.2915 81.2625 43.1317C83.0176 42.9719 84.8383 42.5004 86.1029 41.332" stroke="white" stroke-opacity="0.501961" stroke-width="1.19442" stroke-miterlimit="10" stroke-linecap="round" stroke-linejoin="round"/>
<path d="M77.6395 39.1341C78.6836 38.5316 79.8065 37.6907 79.51 36.4124C79.413 35.9932 79.1034 35.6108 79.1559 35.1811C79.19 34.8982 79.3788 34.6651 79.5153 34.4162C79.8406 33.8242 79.8878 33.0855 79.6359 32.4568C79.3657 31.7835 78.7938 31.2753 78.437 30.644C78.1458 30.128 78.0041 29.5281 78.0304 28.936C76.9259 29.0513 75.9736 29.7481 74.9058 30.0467C74.0899 30.2773 73.2163 30.272 72.4109 30.5366C70.9391 31.0186 69.832 32.4515 69.7402 33.9945C69.0318 33.9395 68.3051 34.2591 67.8696 34.817C67.4053 35.4117 67.1875 36.2159 67.3029 36.9599C67.783 40.0641 69.3834 42.5317 71.4297 44.8317C70.9837 44.3314 72.3505 42.7754 72.6155 42.4715C73.7646 41.1538 75.3413 40.3941 76.8472 39.569C77.0859 39.438 77.3614 39.2939 77.6421 39.1315L77.6395 39.1341Z" fill="#AFEDFF"/>
<path d="M71.6737 40.6667C71.4139 39.3359 71.7602 37.9659 72.1879 36.6796C72.6024 35.4248 73.1008 34.1884 73.8171 33.0777C74.5359 31.967 75.4856 30.9846 76.6583 30.3743" stroke="white" stroke-opacity="0.501961" stroke-width="1.19442" stroke-miterlimit="10" stroke-linecap="round" stroke-linejoin="round"/>
<path d="M72.0278 31.6292C71.999 32.8394 72.2299 34.2723 72.647 35.4092" stroke="white" stroke-opacity="0.501961" stroke-width="1.19442" stroke-miterlimit="10" stroke-linecap="round" stroke-linejoin="round"/>
<path d="M72.8333 34.9585C74.1214 33.9552 76.1808 33.2296 77.8126 33.1746" stroke="white" stroke-opacity="0.501961" stroke-width="1.19442" stroke-miterlimit="10" stroke-linecap="round" stroke-linejoin="round"/>
<path d="M69.504 35.4878C71.2172 36.03 71.5058 38.4453 71.6133 39.129" stroke="white" stroke-opacity="0.501961" stroke-width="1.19442" stroke-miterlimit="10" stroke-linecap="round" stroke-linejoin="round"/>
<path d="M71.9229 37.5494C73.1008 36.5303 75.1288 35.4432 76.5009 35.658" stroke="white" stroke-opacity="0.501961" stroke-width="1.19442" stroke-miterlimit="10" stroke-linecap="round" stroke-linejoin="round"/>
<path d="M71.6737 40.5434C72.6103 39.2965 75.1682 37.7719 76.5402 37.9867" stroke="white" stroke-opacity="0.501961" stroke-width="1.19442" stroke-miterlimit="10" stroke-linecap="round" stroke-linejoin="round"/>
<path d="M74.7694 30.7515C74.4336 31.2544 74.389 31.8176 74.4624 32.1975" stroke="white" stroke-opacity="0.501961" stroke-width="1.19442" stroke-miterlimit="10" stroke-linecap="round" stroke-linejoin="round"/>
<path d="M74.7904 31.8256C75.3439 31.4746 76.1152 31.3358 76.9679 31.4668" stroke="white" stroke-opacity="0.501961" stroke-width="1.19442" stroke-miterlimit="10" stroke-linecap="round" stroke-linejoin="round"/>
<path d="M47.8839 49.9974C46.4698 46.1309 42.8442 42.5211 39.2736 40.4621C38.4026 39.9591 37.1328 39.5793 36.7341 40.779C36.477 41.5492 35.5771 41.3501 35.0629 40.9939C34.4254 40.5511 34.0555 39.836 33.5124 39.2964C33.0769 38.8615 32.5234 38.5288 31.9173 38.4319C31.3113 38.335 30.6502 38.4921 30.2042 38.9165C29.8658 39.2387 29.6638 39.6893 29.2912 39.9696C28.6642 40.4359 27.7512 40.263 27.0849 39.8543C26.4185 39.4457 25.8938 38.8405 25.2458 38.4005C24.6004 37.9604 23.7294 37.701 23.0395 38.073C22.1291 38.5655 22.0452 39.8805 22.4308 40.8419C22.6695 41.4339 23.0473 42.2958 23.5012 42.7595C24.1466 43.4196 25.0832 43.8571 25.9804 44.0326C26.6415 44.1609 27.3236 44.1583 27.9795 44.3129C28.2156 44.3679 28.4884 44.4701 28.5357 44.7399C28.6039 45.1328 28.1159 45.3738 27.8326 45.5179C27.3394 45.7668 26.854 46.3064 27.0823 46.8067C27.2265 47.1211 27.5938 47.2599 27.9349 47.3176C28.958 47.4905 29.9733 47.1971 30.944 46.8984C31.5343 46.7177 32.0511 46.3483 32.6572 46.1911C32.972 46.1099 33.7774 46.0733 33.6908 46.605C33.6646 46.7701 33.5439 46.9063 33.418 47.0163C33.2894 47.1263 33.1451 47.2206 33.0402 47.349C32.5758 47.9148 33.0349 48.5802 33.6488 48.7269C34.1184 48.8395 34.609 48.719 35.0786 48.609C38.1534 47.8912 41.375 47.6136 44.4707 48.2397C45.1292 48.3733 45.8507 48.5985 46.1812 49.1827L47.8839 49.9974Z" fill="#AFEDFF"/>
<path d="M44.5678 47.5614C42.3064 45.4709 39.3103 44.093 36.1805 43.7027C34.2313 43.4591 32.2558 43.5875 30.2987 43.4198C28.3415 43.2521 26.311 42.7335 24.8969 41.4368" stroke="white" stroke-opacity="0.501961" stroke-width="1.19442" stroke-miterlimit="10" stroke-linecap="round" stroke-linejoin="round"/>
<path d="M45.2709 47.8599C45.2709 47.8599 39.8954 44.2894 38.3764 40.6665C39.4022 40.9442 40.0659 41.2769 40.7847 41.861C41.5613 42.956 43.4108 44.6378 44.6649 45.7302C44.8433 46.3274 45.0453 47.0295 45.2709 47.8599Z" fill="#FBCCB1" fill-opacity="0.25098"/>
<path d="M45.0663 46.634C44.8643 45.3739 44.3081 44.1218 44.0903 42.8382C43.7414 40.7818 43.6863 38.7149 44.0667 36.6743C44.392 34.9348 44.9298 33.1116 44.3396 31.3512C44.1821 30.8823 43.8936 30.3768 43.2849 30.382C43.0409 30.3846 42.8101 30.4842 42.6343 30.6413C42.1909 31.0343 42.1096 31.5975 42.0388 32.1345L41.7974 33.9342C41.7187 34.5183 40.8267 34.5891 40.6457 34.0206C40.6431 34.0154 40.6431 34.0101 40.6404 34.0075C40.4935 33.5281 40.5198 33.0225 40.5591 32.5301C40.6431 31.456 40.7795 30.3741 40.6168 29.3053C40.4174 28.0113 39.7065 26.6988 38.3213 26.2116C37.8307 26.0387 37.2876 26.0177 36.7918 26.1592C35.404 26.5548 35.1232 27.8593 35.4013 28.9543C35.5981 29.7245 36.031 30.4213 36.4297 31.1233C37.4004 32.8366 36.8757 34.4633 37.1197 36.3782C37.6365 40.436 41.6111 44.3549 45.0663 46.6366V46.634Z" fill="#AFEDFF"/>
<path d="M37.4739 28.5063C40.3781 32.0166 39.3287 40.3024 44.392 44.774" stroke="white" stroke-opacity="0.501961" stroke-width="1.19442" stroke-miterlimit="10" stroke-linecap="round" stroke-linejoin="round"/>
<path d="M43.1432 32.6296C43.4764 34.4031 42.3326 36.394 42.0676 37.4995C41.8026 38.6023 41.6636 40.4832 41.9469 41.5913" stroke="white" stroke-opacity="0.501961" stroke-width="1.19442" stroke-miterlimit="10" stroke-linecap="round" stroke-linejoin="round"/>
<path d="M34.8005 49.9635C34.6746 49.2536 32.6913 44.8317 30.3957 46.0157C29.0315 46.7204 29.2781 49.3086 31.4084 51.2654C30.9912 50.862 30.5085 50.4036 29.9366 50.2909C29.627 50.2307 29.2519 50.3721 29.021 50.5843C28.8164 50.7729 28.756 51.0742 28.7455 51.3519C28.7114 52.3656 29.2414 53.382 30.094 53.9374C29.6218 53.6754 29.2151 53.3454 28.6773 53.2982C28.5016 53.2825 28.2051 53.382 28.1264 53.5392C28.0372 53.7095 28.0451 54.3434 29.0813 54.815C24.8523 54.0134 24.6057 55.813 26.1273 55.813C27.6463 55.813 38.5915 55.813 38.5915 55.813L34.8032 49.9608L34.8005 49.9635Z" fill="#E8F9FF" fill-opacity="0.501961"/>
<path d="M42.7235 46.4506C42.5215 45.3137 40.4279 38.1753 36.7524 40.0719C34.5697 41.1984 34.9606 45.3452 38.3711 48.4782C37.7021 47.8312 36.9282 47.0977 36.0152 46.9169C35.522 46.82 34.9186 47.0453 34.5487 47.3858C34.2208 47.6897 34.1237 48.1691 34.108 48.6144C34.0529 50.2386 34.9002 51.8653 36.2671 52.7508C35.5115 52.329 34.8583 51.8025 33.9978 51.7291C33.7171 51.7056 33.2448 51.8653 33.1137 52.1142C32.972 52.384 32.9825 53.4004 34.6431 54.1575C27.8745 52.8765 27.4784 55.7554 29.913 55.7554C32.345 55.7554 45.9924 55.7554 45.9924 55.7554L42.7235 46.448V46.4506Z" fill="#D6F6FF" fill-opacity="0.501961"/>
<path d="M78.9355 49.9635C79.0614 49.2536 81.0448 44.8317 83.3403 46.0157C84.7045 46.7204 84.4579 49.3086 82.3277 51.2654C82.7448 50.862 83.2275 50.4036 83.7994 50.2909C84.1064 50.2307 84.4842 50.3721 84.715 50.5843C84.9197 50.7729 84.98 51.0742 84.9905 51.3519C85.0246 52.3656 84.4947 53.382 83.642 53.9374C84.1143 53.6754 84.5209 53.3454 85.0587 53.2982C85.2345 53.2825 85.5309 53.382 85.6096 53.5392C85.6988 53.7095 85.691 54.3434 84.6547 54.815C88.8838 54.0134 89.1304 55.813 87.6087 55.813C86.0897 55.813 75.1445 55.813 75.1445 55.813L78.9329 49.9608L78.9355 49.9635Z" fill="#E8F9FF" fill-opacity="0.501961"/>
<path d="M71.0125 46.4506C71.2146 45.3137 73.3081 38.1753 76.9836 40.0719C79.1663 41.1984 78.7754 45.3452 75.3649 48.4782C76.0339 47.8312 76.8078 47.0977 77.7208 46.9169C78.214 46.82 78.8174 47.0453 79.1873 47.3858C79.5153 47.6897 79.6123 48.1691 79.6281 48.6144C79.6832 50.2386 78.8358 51.8653 77.469 52.7508C78.2245 52.329 78.8778 51.8025 79.7383 51.7291C80.019 51.7056 80.4912 51.8653 80.6224 52.1142C80.7641 52.384 80.7536 53.4004 79.0929 54.1575C85.8615 52.8765 86.2576 55.7554 83.823 55.7554C81.3911 55.7554 67.7437 55.7554 67.7437 55.7554L71.0125 46.448V46.4506Z" fill="#D6F6FF" fill-opacity="0.501961"/>
<path d="M59.5978 31.8306C57.7351 31.3171 56.3184 29.7401 56.2082 27.8147C56.203 27.7204 56.2003 27.6287 56.2003 27.5371C56.2003 27.5109 56.2003 27.482 56.2056 27.4532C56.2003 27.427 56.2003 27.3982 56.2003 27.3694C56.2003 27.2777 56.2056 27.186 56.2082 27.0917C56.3184 25.1663 57.7377 23.5893 59.5978 23.0759C66.613 21.1374 71.7655 14.7168 71.7655 7.09636C71.7655 6.0721 71.6737 5.0688 71.4926 4.09431C71.4638 3.92665 71.4297 3.76424 71.3956 3.60182C71.3693 3.48132 71.3431 3.36344 71.3142 3.24294C71.3142 3.2377 71.3116 3.22722 71.309 3.22198C71.2933 3.15911 71.2801 3.09886 71.2618 3.03599C71.2329 2.91549 71.2041 2.80023 71.17 2.68497C71.1201 2.50683 71.0703 2.3287 71.0125 2.15057H70.4459C70.4642 2.2082 70.4852 2.26583 70.4983 2.32346C70.5036 2.33394 70.5062 2.3418 70.5088 2.35228C70.5403 2.45182 70.5718 2.55399 70.598 2.65353C70.6164 2.71902 70.6374 2.78451 70.6505 2.85C70.6794 2.95478 70.7082 3.05695 70.7345 3.16173C70.7528 3.22722 70.7686 3.29533 70.7817 3.3582C70.8105 3.46561 70.8341 3.57039 70.8551 3.67517C70.863 3.71185 70.8735 3.74852 70.8788 3.7852C70.8814 3.79829 70.884 3.81401 70.8866 3.82711C70.9129 3.94761 70.9365 4.07073 70.9575 4.19123C71.1332 5.13429 71.2224 6.1114 71.2224 7.09374C71.2224 14.2819 66.3795 20.6397 59.4508 22.552C57.3075 23.144 55.7832 24.9515 55.6651 27.0577C55.6599 27.1598 55.6573 27.262 55.6573 27.3642C55.6573 27.393 55.6573 27.4218 55.6599 27.448C55.6573 27.4768 55.6573 27.5056 55.6573 27.5318C55.6573 27.634 55.6599 27.7361 55.6651 27.8383C55.7858 29.9445 57.3075 31.7546 59.4508 32.344C66.3795 34.2589 71.2224 40.6193 71.2224 47.8049C71.2224 48.7898 71.1332 49.7669 70.9575 50.71C70.7161 52.0538 70.2963 53.3636 69.7113 54.6053H40.609C40.0239 53.3636 39.6042 52.0538 39.3602 50.7074C39.1844 49.7669 39.0978 48.7872 39.0978 47.8049C39.0978 40.6193 43.9408 34.2589 50.8694 32.344C53.0128 31.7546 54.5344 29.9445 54.6551 27.8383C54.6604 27.7361 54.663 27.634 54.663 27.5318C54.663 27.5056 54.663 27.4768 54.6604 27.448C54.663 27.4218 54.663 27.393 54.663 27.3642C54.663 27.262 54.6604 27.1598 54.6551 27.0577C54.5344 24.9515 53.0128 23.1414 50.8694 22.552C43.9408 20.637 39.0978 14.2793 39.0978 7.09374C39.0978 6.10878 39.1844 5.13429 39.3602 4.19123C39.389 4.02358 39.4231 3.85592 39.4599 3.68827C39.4599 3.68303 39.4625 3.68041 39.4625 3.67517C39.4992 3.51276 39.5359 3.35034 39.5753 3.18793C39.5779 3.18007 39.5805 3.16959 39.5805 3.15911C39.612 3.03599 39.6435 2.91025 39.6802 2.78713C39.6829 2.77665 39.6855 2.76879 39.6881 2.75831C39.6986 2.71116 39.7143 2.66139 39.7275 2.61424C39.7511 2.52517 39.7799 2.4361 39.8062 2.34966C39.8088 2.33918 39.8114 2.33132 39.8167 2.32084C39.8324 2.26321 39.8508 2.20558 39.8691 2.14795H39.3025C39.2474 2.32608 39.1949 2.50159 39.1477 2.68235C39.1136 2.80023 39.0847 2.91549 39.0558 3.03337C39.0375 3.09624 39.0244 3.15649 39.0086 3.21936C39.006 3.2246 39.0034 3.23508 39.0034 3.24032C38.9745 3.36082 38.9483 3.4787 38.9221 3.5992C38.8853 3.76162 38.8538 3.92665 38.825 4.09169C38.644 5.06618 38.5521 6.06948 38.5521 7.09374C38.5521 14.7141 43.7047 21.1348 50.7199 23.0733C52.5799 23.5867 53.9992 25.1637 54.1094 27.0891C54.1147 27.1834 54.1173 27.2751 54.1173 27.3668C54.1173 27.3956 54.1173 27.4244 54.1147 27.4506C54.1173 27.4794 54.1173 27.5082 54.1173 27.5344C54.1173 27.6261 54.1147 27.7178 54.1094 27.8121C53.9992 29.7375 52.5799 31.3145 50.7199 31.828C43.7047 33.7691 38.5521 40.1871 38.5521 47.8075C38.5521 48.8317 38.644 49.8351 38.825 50.8095C39.1031 52.342 39.5937 53.7985 40.2627 55.1502H70.0445C70.7135 53.7985 71.2041 52.342 71.4822 50.8095C71.6632 49.8351 71.755 48.8317 71.755 47.8075C71.755 40.1871 66.5998 33.7665 59.5873 31.828L59.5978 31.8306Z" fill="#389EE4" fill-opacity="0.2"/>
<path d="M71.2251 47.8129C71.2251 48.7979 71.1359 49.775 70.9601 50.7181C70.7187 52.0619 70.299 53.3717 69.7139 54.6134H40.6116C40.0265 53.3717 39.6068 52.0619 39.3628 50.7154C39.187 49.775 39.1004 48.7953 39.1004 47.8129C39.1004 40.6274 43.9434 34.267 50.872 32.3521C53.0154 31.7627 54.5371 29.9525 54.6577 27.8464C54.663 27.7442 54.6656 27.642 54.6656 27.5399C54.6656 27.5137 54.6656 27.4849 54.663 27.4561C54.6656 27.4299 54.6656 27.401 54.6656 27.3722C54.6656 27.2701 54.663 27.1679 54.6577 27.0657C54.5371 24.9596 53.0154 23.1494 50.872 22.56C43.9434 20.6451 39.1004 14.2873 39.1004 7.1018C39.1004 6.11683 39.187 5.14234 39.3628 4.19929C39.3917 4.03164 39.4258 3.86398 39.4625 3.69633C39.4625 3.69109 39.4651 3.68847 39.4651 3.68323C39.4992 3.52081 39.5386 3.3584 39.5779 3.19598C39.5805 3.18813 39.5832 3.17765 39.5832 3.16717C39.6173 3.03357 39.6514 2.89997 39.6934 2.76637C39.7301 2.63015 39.7694 2.49393 39.814 2.35771C39.835 2.28961 39.856 2.2215 39.877 2.15601H70.4459C70.4669 2.2215 70.4879 2.28961 70.5088 2.35771C70.5403 2.45726 70.5718 2.55942 70.598 2.65897C70.6164 2.72446 70.6374 2.78995 70.6505 2.85544C70.6794 2.96022 70.7082 3.06239 70.7345 3.16717C70.7528 3.23266 70.7686 3.30077 70.7817 3.36364C70.8105 3.47104 70.8342 3.57583 70.8551 3.68061C70.8656 3.73038 70.8761 3.78015 70.8866 3.83255C70.9129 3.95305 70.9365 4.07617 70.9575 4.19667C71.1332 5.13972 71.2224 6.11683 71.2224 7.09918C71.2224 14.2873 66.3795 20.6451 59.4508 22.5574C57.3075 23.1494 55.7832 24.957 55.6651 27.0631C55.6599 27.1653 55.6573 27.2674 55.6573 27.3696C55.6573 27.3984 55.6573 27.4272 55.6599 27.4534C55.6573 27.4822 55.6573 27.5111 55.6573 27.5373C55.6573 27.6394 55.6599 27.7416 55.6651 27.8438C55.7858 29.9499 57.3075 31.76 59.4508 32.3495C66.3795 34.2644 71.2224 40.6248 71.2224 47.8103L71.2251 47.8129Z" fill="white"/>
<path d="M71.2251 47.8129C71.2251 48.7979 71.1359 49.775 70.9601 50.7181C70.7187 52.0619 70.299 53.3717 69.7139 54.6134H40.6116C40.0265 53.3717 39.6068 52.0619 39.3628 50.7154C39.187 49.775 39.1004 48.7953 39.1004 47.8129C39.1004 40.6274 43.9434 34.267 50.872 32.3521C53.0154 31.7627 54.5371 29.9525 54.6577 27.8464C54.663 27.7442 54.6656 27.642 54.6656 27.5399C54.6656 27.5137 54.6656 27.4849 54.663 27.4561C54.6656 27.4299 54.6656 27.401 54.6656 27.3722C54.6656 27.2701 54.663 27.1679 54.6577 27.0657C54.5371 24.9596 53.0154 23.1494 50.872 22.56C43.9434 20.6451 39.1004 14.2873 39.1004 7.1018C39.1004 6.11683 39.187 5.14234 39.3628 4.19929C39.3917 4.03164 39.4258 3.86398 39.4625 3.69633C39.4625 3.69109 39.4651 3.68847 39.4651 3.68323C39.4992 3.52081 39.5386 3.3584 39.5779 3.19598C39.5805 3.18813 39.5832 3.17765 39.5832 3.16717C39.6173 3.03357 39.6514 2.89997 39.6934 2.76637C39.7301 2.63015 39.7694 2.49393 39.814 2.35771C39.835 2.28961 39.856 2.2215 39.877 2.15601H70.4459C70.4669 2.2215 70.4879 2.28961 70.5088 2.35771C70.5403 2.45726 70.5718 2.55942 70.598 2.65897C70.6164 2.72446 70.6374 2.78995 70.6505 2.85544C70.6794 2.96022 70.7082 3.06239 70.7345 3.16717C70.7528 3.23266 70.7686 3.30077 70.7817 3.36364C70.8105 3.47104 70.8342 3.57583 70.8551 3.68061C70.8656 3.73038 70.8761 3.78015 70.8866 3.83255C70.9129 3.95305 70.9365 4.07617 70.9575 4.19667C71.1332 5.13972 71.2224 6.11683 71.2224 7.09918C71.2224 14.2873 66.3795 20.6451 59.4508 22.5574C57.3075 23.1494 55.7832 24.957 55.6651 27.0631C55.6599 27.1653 55.6573 27.2674 55.6573 27.3696C55.6573 27.3984 55.6573 27.4272 55.6599 27.4534C55.6573 27.4822 55.6573 27.5111 55.6573 27.5373C55.6573 27.6394 55.6599 27.7416 55.6651 27.8438C55.7858 29.9499 57.3075 31.76 59.4508 32.3495C66.3795 34.2644 71.2224 40.6248 71.2224 47.8103L71.2251 47.8129Z" fill="#D6EBF9" fill-opacity="0.501961"/>
<path d="M41.9155 16.5453C41.9155 16.5453 44.4498 20.6922 50.5231 22.5966C52.0789 23.0524 52.6036 23.3903 53.4982 24.2155C54.3928 25.0407 54.6997 26.4893 54.6656 27.6367C54.6525 28.5247 55.1641 41.5127 55.1641 43.1316C55.1641 44.6588 55.3635 43.5272 55.3189 43.1997C55.4763 34.0076 55.6652 27.2464 55.6652 27.2464C55.6652 27.2464 56.2161 24.357 57.0687 23.9588C57.9214 23.5606 61.0092 22.1277 62.2764 21.774C63.5409 21.4204 66.5972 18.6384 66.5972 18.6384C66.5972 18.6384 70.48 13.111 70.7161 12.4011C70.9522 11.6938 68.961 11.6257 68.961 11.6257L41.9207 16.548L41.9155 16.5453Z" fill="#FF0000"/>
<path d="M70.8184 11.4816C71.0834 13.1607 64.7005 15.5524 56.5624 16.8282C48.4243 18.1013 41.6164 17.7739 41.3514 16.0973C41.0891 14.4182 47.4694 12.0265 55.6074 10.7507C63.7455 9.4776 70.5534 9.80505 70.8184 11.4816Z" fill="#FF0000"/>
<path d="M50.7934 20.5218C50.6176 20.5218 50.4418 20.493 50.266 20.4327C49.1038 20.0346 48.0282 19.5264 47.068 18.9239C46.3098 18.4497 46.0816 17.449 46.559 16.692C47.0339 15.9349 48.0361 15.707 48.7943 16.1838C49.5446 16.6553 50.3946 17.0535 51.3207 17.3704C52.1681 17.6612 52.6167 18.5807 52.3281 19.4268C52.0972 20.0974 51.4676 20.5192 50.796 20.5192L50.7934 20.5218Z" fill="white" fill-opacity="0.501961"/>
<path d="M44.455 15.749C43.9198 15.749 43.3951 15.4844 43.0855 14.9998C40.26 10.5648 40.9867 5.58762 41.0209 5.37805C41.1573 4.49525 41.9863 3.8875 42.8678 4.02372C43.7519 4.15994 44.3579 4.98249 44.2241 5.86268C44.2136 5.92817 43.6732 9.88899 45.8192 13.2604C46.2993 14.0149 46.0763 15.0155 45.3207 15.4949C45.0505 15.6652 44.7488 15.749 44.4524 15.749H44.455Z" fill="white" fill-opacity="0.501961"/>
<path d="M50.7934 34.2092C50.6176 34.2092 50.4418 34.238 50.266 34.2983C49.1038 34.6965 48.0282 35.2047 47.068 35.8072C46.3098 36.2813 46.0816 37.282 46.559 38.0391C47.0339 38.7961 48.0361 39.024 48.7943 38.5473C49.5446 38.0757 50.3946 37.6776 51.3207 37.3606C52.1681 37.0698 52.6167 36.1504 52.3281 35.3042C52.0972 34.6336 51.4676 34.2119 50.796 34.2119L50.7934 34.2092Z" fill="white" fill-opacity="0.501961"/>
<path d="M44.455 38.9822C43.9198 38.9822 43.3951 39.2468 43.0855 39.7314C40.26 44.1664 40.9867 49.1436 41.0209 49.3532C41.1573 50.236 41.9863 50.8437 42.8678 50.7075C43.7519 50.5713 44.3579 49.7487 44.2241 48.8685C44.2136 48.803 43.6732 44.8422 45.8192 41.4708C46.2993 40.7163 46.0763 39.7157 45.3207 39.2363C45.0505 39.066 44.7488 38.9822 44.4524 38.9822H44.455Z" fill="white" fill-opacity="0.501961"/>
<path d="M59.5978 31.8306C57.7351 31.3171 56.3184 29.7401 56.2082 27.8147C56.203 27.7204 56.2003 27.6287 56.2003 27.5371C56.2003 27.5109 56.2003 27.482 56.2056 27.4532C56.2003 27.427 56.2003 27.3982 56.2003 27.3694C56.2003 27.2777 56.2056 27.186 56.2082 27.0917C56.3184 25.1663 57.7377 23.5893 59.5978 23.0759C66.613 21.1374 71.7655 14.7168 71.7655 7.09636C71.7655 6.0721 71.6737 5.0688 71.4926 4.09431C71.4638 3.92665 71.4297 3.76424 71.3956 3.60182C71.3693 3.48132 71.3431 3.36344 71.3142 3.24294C71.3142 3.2377 71.3116 3.22722 71.309 3.22198C71.2933 3.15911 71.2801 3.09886 71.2618 3.03599C71.2329 2.91549 71.2041 2.80023 71.17 2.68497C71.1201 2.50683 71.0703 2.3287 71.0125 2.15057H70.4459C70.4642 2.20558 70.4826 2.26583 70.4983 2.32346C70.5036 2.33394 70.5062 2.3418 70.5088 2.35228C70.5403 2.45182 70.5718 2.55399 70.598 2.65353C70.6164 2.71902 70.6374 2.78451 70.6505 2.85C70.6794 2.95478 70.7082 3.05695 70.7345 3.16173C70.7528 3.22722 70.7686 3.29533 70.7817 3.3582C70.8105 3.46561 70.8341 3.57039 70.8551 3.67517C70.863 3.71185 70.8709 3.74852 70.8788 3.7852C70.8814 3.79829 70.884 3.81401 70.8866 3.82711C70.9129 3.94761 70.9365 4.07073 70.9575 4.19123C71.1332 5.13429 71.2224 6.1114 71.2224 7.09374C71.2224 14.2819 66.3795 20.6397 59.4508 22.552C57.3075 23.144 55.7832 24.9515 55.6651 27.0577C55.6599 27.1598 55.6573 27.262 55.6573 27.3642C55.6573 27.393 55.6573 27.4218 55.6599 27.448C55.6573 27.4768 55.6573 27.5056 55.6573 27.5318C55.6573 27.634 55.6599 27.7361 55.6651 27.8383C55.7858 29.9445 57.3075 31.7546 59.4508 32.344C66.3795 34.2589 71.2224 40.6193 71.2224 47.8049C71.2224 48.7898 71.1332 49.7669 70.9575 50.71C70.7161 52.0538 70.2963 53.3636 69.7113 54.6053H40.609C40.0239 53.3636 39.6042 52.0538 39.3602 50.7074C39.1844 49.7669 39.0978 48.7872 39.0978 47.8049C39.0978 40.6193 43.9408 34.2589 50.8694 32.344C53.0128 31.7546 54.5344 29.9445 54.6551 27.8383C54.6604 27.7361 54.663 27.634 54.663 27.5318C54.663 27.5056 54.663 27.4768 54.6604 27.448C54.663 27.4218 54.663 27.393 54.663 27.3642C54.663 27.262 54.6604 27.1598 54.6551 27.0577C54.5344 24.9515 53.0128 23.1414 50.8694 22.552C43.9408 20.637 39.0978 14.2793 39.0978 7.09374C39.0978 6.10878 39.1844 5.13429 39.3602 4.19123C39.389 4.02358 39.4231 3.85331 39.4599 3.68827C39.4599 3.68303 39.4625 3.68041 39.4625 3.67517C39.4992 3.51276 39.5359 3.35034 39.5753 3.18793C39.5779 3.18007 39.5805 3.16959 39.5805 3.15911C39.612 3.03599 39.6435 2.91025 39.6802 2.78713C39.6829 2.77665 39.6855 2.76879 39.6881 2.75831C39.7012 2.71116 39.7143 2.66139 39.7275 2.61424C39.7511 2.52517 39.7799 2.4361 39.8062 2.34966C39.8088 2.33918 39.8114 2.33132 39.8167 2.32084C39.835 2.26321 39.8508 2.20296 39.8691 2.14795H39.3025C39.2474 2.32608 39.1949 2.50159 39.1477 2.68235C39.1136 2.80023 39.0847 2.91549 39.0558 3.03337C39.0375 3.09624 39.0244 3.15649 39.0086 3.21936C39.006 3.2246 39.0034 3.23508 39.0034 3.24032C38.9745 3.36082 38.9483 3.4787 38.9221 3.5992C38.8853 3.76162 38.8538 3.92665 38.825 4.09169C38.644 5.06618 38.5521 6.06948 38.5521 7.09374C38.5521 14.7141 43.7047 21.1348 50.7199 23.0733C52.5799 23.5867 53.9992 25.1637 54.1094 27.0891C54.1147 27.1834 54.1173 27.2751 54.1173 27.3668C54.1173 27.3956 54.1173 27.4244 54.1147 27.4506C54.1173 27.4794 54.1173 27.5082 54.1173 27.5344C54.1173 27.6261 54.1147 27.7178 54.1094 27.8121C53.9992 29.7375 52.5799 31.3145 50.7199 31.828C43.7047 33.7691 38.5521 40.1871 38.5521 47.8075C38.5521 48.8317 38.644 49.8351 38.825 50.8095C39.1031 52.342 39.5937 53.7985 40.2627 55.1502H70.0445C70.7135 53.7985 71.2041 52.342 71.4822 50.8095C71.6632 49.8351 71.755 48.8317 71.755 47.8075C71.755 40.1871 66.5998 33.7665 59.5873 31.828L59.5978 31.8306Z" fill="#B6DDF6"/>
<path d="M75.8581 54.2727C75.8581 55.1398 75.155 55.8419 74.2867 55.8419H36.0362C35.1678 55.8419 34.4648 55.1398 34.4648 54.2727C34.4648 53.4057 35.1678 52.7036 36.0362 52.7036H74.2867C75.155 52.7036 75.8581 53.4057 75.8581 54.2727Z" fill="#FF0000"/>
<path d="M67.8749 12.1157C67.9011 12.2336 67.581 12.4012 67.1613 12.4903C66.7415 12.5793 66.3821 12.5558 66.3559 12.4353C66.3296 12.3174 66.6497 12.1497 67.0695 12.0607C67.4892 11.9716 67.8486 11.9952 67.8749 12.1157Z" fill="#FF0000"/>
<path d="M66.9094 13.478C66.9357 13.5958 66.7389 13.7373 66.4713 13.7949C66.2037 13.8526 65.965 13.8002 65.9414 13.6823C65.9151 13.5644 66.1119 13.4229 66.3795 13.3653C66.6471 13.3077 66.8858 13.3601 66.9094 13.478Z" fill="#FF0000"/>
<path d="M65.6816 13.1164C65.7079 13.2343 65.5111 13.3757 65.2435 13.4334C64.9759 13.491 64.7372 13.4386 64.7136 13.3207C64.6873 13.2028 64.8841 13.0614 65.1517 13.0037C65.4193 12.9461 65.658 12.9985 65.6816 13.1164Z" fill="#FF0000"/>
<path d="M57.213 14.2061C57.2261 14.269 57.1212 14.3476 56.9769 14.3764C56.8326 14.4078 56.7041 14.379 56.6909 14.3161C56.6778 14.2533 56.7828 14.1747 56.9271 14.1459C57.0713 14.1144 57.1999 14.1432 57.213 14.2061Z" fill="#FF0000"/>
<path d="M63.756 12.2205C63.7691 12.2834 63.6642 12.362 63.5199 12.3908C63.3756 12.4222 63.247 12.3934 63.2339 12.3305C63.2208 12.2677 63.3257 12.1891 63.47 12.1603C63.6143 12.1288 63.7429 12.1577 63.756 12.2205Z" fill="#FF0000"/>
<path d="M61.3844 14.502C61.3975 14.5649 61.2925 14.6435 61.1483 14.6723C61.004 14.7037 60.8754 14.6749 60.8623 14.612C60.8492 14.5492 60.9541 14.4706 61.0984 14.4418C61.2427 14.4103 61.3713 14.4391 61.3844 14.502Z" fill="#FF0000"/>
<path d="M58.2204 16.011C58.2336 16.0739 58.1286 16.1525 57.9843 16.1813C57.84 16.2128 57.7115 16.1839 57.6984 16.1211C57.6852 16.0582 57.7902 15.9796 57.9345 15.9508C58.0788 15.9194 58.2073 15.9482 58.2204 16.011Z" fill="#FF0000"/>
<path d="M55.3451 41.484L55.2349 41.4395L55.1247 41.484C55.1247 41.484 54.1698 48.9498 43.9067 52.7037C49.5288 52.7037 53.081 52.7037 55.3084 52.7037C58.2887 52.7037 58.8947 52.7037 58.8947 52.7037C60.558 52.7037 62.9952 52.7037 66.5658 52.7037C56.3027 48.9525 55.3477 41.484 55.3477 41.484H55.3451Z" fill="#FF0000"/>
<path d="M71.065 2.3209C71.065 3.15393 63.9449 3.82978 55.1615 3.82978C46.378 3.82978 39.2579 3.15393 39.2579 2.3209C39.2579 1.48787 46.378 0.812012 55.1615 0.812012C63.9449 0.812012 71.065 1.48787 71.065 2.3209Z" fill="#B8DBEF"/>
<path d="M74.2868 0H36.039C35.6061 0 35.2126 0.175513 34.9267 0.458429C34.6433 0.741345 34.4675 1.13428 34.4675 1.56914C34.4675 2.4336 35.1706 3.13565 36.039 3.13565H39.3131H39.8798H70.4487H71.0154H74.2895C75.1578 3.13565 75.8609 2.4336 75.8609 1.56914C75.8609 0.702051 75.1578 0 74.2895 0H74.2868Z" fill="#FF0000"/>
<path d="M0 55.8394H109.032" stroke="#FF0000" stroke-width="1.32531" stroke-miterlimit="10"/>
<path d="M5.39127 63.7428C5.39127 64.3506 11.2207 64.843 18.409 64.843C25.6 64.843 31.4268 64.3506 31.4268 63.7428C31.4268 63.1351 25.5974 62.6426 18.409 62.6426C11.218 62.6426 5.39127 63.1351 5.39127 63.7428Z" fill="#E6EBEF"/>
<path d="M18.6923 25.1221C18.6005 25.6224 18.5795 26.1437 18.6268 26.6755L18.8235 26.7174L18.834 26.72L18.9809 26.7174L19.1383 26.5498L19.2118 25.4941L19.0124 24.8785L17.5957 23.904L17.3701 23.8228L18.6897 25.1247L18.6923 25.1221Z" fill="#FFBC1C"/>
<path d="M17.3992 28.0535L17.9659 29.4078L17.9685 29.4156L19.6134 29.4078H19.8023C20.0935 29.8269 20.4372 30.2015 20.8255 30.5264L20.7651 32.491L22.132 33.0516L23.3781 31.7942L23.4201 31.7523C23.9159 31.844 24.4301 31.8623 24.9548 31.8152L24.947 31.8178L26.2902 33.2481L27.5678 32.7137L27.6544 32.677L27.6439 30.8459C28.0663 30.5552 28.4441 30.2094 28.7694 29.8191L30.6898 29.8819L30.7344 29.8846L31.2958 28.5197L29.9945 27.2335C30.0864 26.7358 30.1074 26.2171 30.0575 25.6906L30.0601 25.6958L31.4926 24.3677L30.9233 23.0055H30.9206L29.0868 23.016C28.8009 22.6021 28.4598 22.2301 28.0768 21.9079V21.8686L28.1214 19.9301L26.7545 19.3695L26.7493 19.3747L25.4664 20.6688C24.9784 20.5798 24.4747 20.5588 23.9579 20.6033L23.8372 20.475L22.5963 19.1704L22.5858 19.1756L21.2347 19.7389L21.2452 21.57C20.8228 21.8634 20.4424 22.2118 20.1171 22.6021L18.1547 22.534L17.5933 23.8988L18.8946 25.185C18.8027 25.6801 18.7844 26.1935 18.8316 26.7175L18.8264 26.7096L18.8211 26.7148L17.3939 28.0508L17.3992 28.0535Z" fill="#FF0000"/>
<path d="M19.5423 26.8327C19.8834 29.5754 22.3862 31.5218 25.133 31.1812C27.8798 30.8407 29.829 28.3416 29.488 25.5989C29.1469 22.8562 26.6441 20.9098 23.8973 21.2503C21.1505 21.5909 19.2013 24.09 19.5423 26.8327Z" fill="#FF9A2F" fill-opacity="0.301961"/>
<path d="M20.6154 26.5575C20.8777 28.6558 22.7929 30.1464 24.8943 29.8844C26.9957 29.6225 28.4884 27.7102 28.2261 25.6119C27.9637 23.5136 26.0486 22.023 23.9472 22.285C21.8458 22.547 20.353 24.4593 20.6154 26.5575Z" fill="#FFF9E4"/>
<path d="M24.4194 22.2537V22.7461" stroke="#FF0000" stroke-width="0.474494" stroke-miterlimit="10"/>
<path d="M27.1531 23.4167L26.8042 23.7652" stroke="#FF0000" stroke-width="0.474494" stroke-miterlimit="10"/>
<path d="M28.2602 26.1672H27.767" stroke="#FF0000" stroke-width="0.474494" stroke-miterlimit="10"/>
<path d="M27.0954 28.8969L26.7464 28.5459" stroke="#FF0000" stroke-width="0.474494" stroke-miterlimit="10"/>
<path d="M24.3407 30.0025V29.51" stroke="#FF0000" stroke-width="0.474494" stroke-miterlimit="10"/>
<path d="M21.6096 28.8394L21.9586 28.491" stroke="#FF0000" stroke-width="0.474494" stroke-miterlimit="10"/>
<path d="M21.0508 26.0889H20.5576" stroke="#FF0000" stroke-width="0.474494" stroke-miterlimit="10"/>
<path d="M21.691 23.3853L22.0399 23.7337" stroke="#FF0000" stroke-width="0.474494" stroke-miterlimit="10"/>
<path d="M25.9095 22.5366L25.7915 22.8169" stroke="#FF0000" stroke-width="0.474494" stroke-miterlimit="10"/>
<path d="M28.0215 24.627L27.7408 24.7422" stroke="#FF0000" stroke-width="0.474494" stroke-miterlimit="10"/>
<path d="M28.0372 27.5952L27.7565 27.4773" stroke="#FF0000" stroke-width="0.474494" stroke-miterlimit="10"/>
<path d="M25.9437 29.7039L25.8282 29.4236" stroke="#FF0000" stroke-width="0.474494" stroke-miterlimit="10"/>
<path d="M22.9713 29.7195L23.0867 29.4392" stroke="#FF0000" stroke-width="0.474494" stroke-miterlimit="10"/>
<path d="M20.8593 27.6292L21.1401 27.5139" stroke="#FF0000" stroke-width="0.474494" stroke-miterlimit="10"/>
<path d="M20.8436 24.6611L21.1243 24.7764" stroke="#FF0000" stroke-width="0.474494" stroke-miterlimit="10"/>
<path d="M22.9371 22.5522L23.0526 22.8325" stroke="#FF0000" stroke-width="0.474494" stroke-miterlimit="10"/>
<path d="M24.1308 26.0862C24.1308 26.246 24.262 26.377 24.422 26.377C24.5821 26.377 24.7132 26.246 24.7132 26.0862C24.7132 25.9264 24.5821 25.7954 24.422 25.7954C24.262 25.7954 24.1308 25.9264 24.1308 26.0862Z" fill="#8CC64B"/>
<path d="M24.0993 26.2065C24.0993 26.4135 24.2673 26.5785 24.4719 26.5785C24.4876 26.5785 24.5034 26.5759 24.5217 26.5733L25.5318 28.2813L26.0643 28.5196C26.1404 28.5537 26.2218 28.4882 26.206 28.407L26.0958 27.8333L26.088 27.8255L24.687 26.4921C24.8024 26.4292 24.8444 26.3454 24.8444 26.2065C24.8444 26.0127 24.6949 25.8555 24.5034 25.8372L24.7395 23.9799L24.5742 23.5424C24.5453 23.4664 24.4404 23.4664 24.4089 23.5398L24.2253 23.9642V23.972L24.3958 25.8293C24.2095 25.8503 24.0967 26.0153 24.0967 26.2065H24.0993Z" fill="#3D3D3D" fill-opacity="0.301961"/>
<path d="M24.4929 23.5321L24.6267 23.8884C24.6319 23.9015 24.6319 23.9146 24.6319 23.9277L24.3906 25.8164L24.1833 23.9146C24.1807 23.9015 24.1833 23.8858 24.1885 23.8727L24.3381 23.5295C24.3669 23.4614 24.4666 23.464 24.4929 23.5321Z" fill="#FF0000"/>
<path d="M26.1588 28.3782L25.7075 28.1765C25.6892 28.1686 25.6734 28.1555 25.6629 28.1372L24.5663 26.2852L26.1693 27.7338C26.185 27.7469 26.1955 27.7678 26.2008 27.7888L26.2926 28.2708C26.3083 28.3494 26.2296 28.4123 26.1562 28.3782H26.1588Z" fill="#FF0000"/>
<path d="M24.0364 26.1281C24.0364 26.335 24.2043 26.5001 24.4089 26.5001C24.6162 26.5001 24.7815 26.3324 24.7815 26.1281C24.7815 25.9211 24.6136 25.7561 24.4089 25.7561C24.2017 25.7561 24.0364 25.9238 24.0364 26.1281Z" fill="#FF0000"/>
<path d="M24.0836 26.1281C24.0836 26.3062 24.2305 26.4529 24.4089 26.4529C24.5873 26.4529 24.7342 26.3062 24.7342 26.1281C24.7342 25.9499 24.5873 25.8032 24.4089 25.8032C24.2305 25.8032 24.0836 25.9499 24.0836 26.1281Z" fill="#FF0000"/>
<path d="M19.3377 20.8496C19.3377 20.8496 21.3683 20.9072 20.2927 23.2177C19.217 25.5282 19.3377 20.8496 19.3377 20.8496Z" fill="#1F3A70"/>
<path d="M19.9018 21.6931C19.9018 21.6931 20.4475 22.0284 20.4396 23.8359C20.4396 23.8988 20.6626 24.4332 20.6809 24.4961C20.757 24.7397 20.6049 24.7554 20.3976 24.8576C20.3137 26.2224 20.109 26.1962 19.928 26.3167C19.7234 26.4529 18.1519 26.1307 17.1445 25.6303C16.1371 25.13 15.7934 23.6421 16.2184 22.7278C16.646 21.8136 18.7212 20.9046 19.9018 21.6931Z" fill="#FFC8AF"/>
<path d="M15.3605 22.9714C15.1979 23.828 15.6202 25.1378 17.3019 25.7063C17.3019 25.7063 17.4514 25.1876 17.559 24.682C17.6666 24.1738 19.0937 23.5949 19.7129 23.0395C19.7444 23.0107 19.7732 22.9845 19.7995 22.9557C20.2402 22.492 20.2166 21.7664 19.8152 21.2713C19.4689 20.8443 18.7028 20.1396 17.3281 20.6033C16.103 21.0172 15.5599 21.9131 15.3605 22.9714Z" fill="#1F3A70"/>
<path d="M19.4191 24.8785C19.1541 25.164 19.1042 25.743 19.1252 26.2983C19.1305 26.3926 19.1383 26.4869 19.1436 26.5786C19.1908 27.1471 19.2957 27.6186 19.2957 27.6186L17.3544 27.5714C17.4278 26.872 17.3071 25.7037 17.3071 25.7037C17.3071 25.7037 20.0461 24.2026 19.4191 24.8785Z" fill="#FFC8AF"/>
<path d="M19.1436 26.5759C18.4274 26.3296 17.8555 25.9236 17.8555 25.9236C18.3985 26.0991 19.1252 26.2956 19.1252 26.2956C19.1305 26.3899 19.1383 26.4842 19.1436 26.5759Z" fill="#F2A180"/>
<path d="M20.5262 40.3235L17.4908 37.0569C17.4908 37.0569 15.6517 38.998 15.9928 41.1304C16.1607 42.1782 16.465 42.7257 16.5647 43.226C16.6591 43.6923 16.8979 50.1706 16.7641 50.6264C16.6303 51.0822 15.9246 52.3134 15.5468 53.6546C15.0929 55.2683 14.6312 57.605 14.2639 59.0012C13.894 60.3975 14.5026 62.26 14.6338 61.7885C15.7567 57.7569 18.695 53.1202 19.1751 51.0953C19.6552 49.0703 20.0251 45.3007 20.5262 40.3235Z" fill="#FFBD9C"/>
<path d="M15.5573 58.8599C15.5573 58.8599 14.6259 61.4978 14.702 61.8331C14.7466 62.0374 14.9539 62.7264 15.0011 62.8259C15.0195 62.8652 15.6858 63.3944 15.2425 63.3839C14.8043 63.3734 13.7681 61.9955 13.6133 61.8934C13.3562 61.7205 13.2539 61.4506 13.3063 61.2149C13.3981 60.8088 13.671 60.4997 13.8704 60.2168C14.0724 59.9339 14.2324 59.1271 14.2324 59.1271L15.5547 58.8625L15.5573 58.8599Z" fill="#FFBD9C"/>
<path d="M15.8327 63.4991C15.6596 63.2345 15.1165 62.928 15.1165 62.928C15.0352 62.8232 14.967 62.7577 15.0011 62.8232C15.0588 62.9359 14.7624 62.9935 14.6181 62.873C14.1091 62.4643 13.9648 61.8592 13.713 61.5711C13.3562 61.1624 13.6054 60.6202 13.6448 60.5311C13.5267 60.5206 13.0413 60.7642 12.9128 60.8585C12.7947 60.945 12.577 61.1519 12.5245 61.2908C12.4904 61.3851 12.3068 61.8749 12.1756 62.0845L12.6583 62.467L13.1253 62.0452C13.1253 62.0452 13.1253 62.0452 13.2539 62.1814C13.3824 62.3176 13.4795 62.5508 13.5031 62.6896C13.5136 62.7499 13.566 62.9123 13.6238 63.0669C13.6946 63.2607 13.8205 63.4284 13.9806 63.5593C13.9806 63.5593 14.0802 63.6405 14.1852 63.727C14.34 63.8527 14.5315 63.9208 14.7309 63.9208H15.5599H15.6858C15.817 63.9208 15.9272 63.8082 15.9088 63.6798C15.901 63.6274 15.88 63.5698 15.8354 63.5043L15.8327 63.4991Z" fill="#1F3A70"/>
<path d="M22.8479 63.0932C22.7824 63.0068 22.0058 62.8077 21.6516 62.6191C21.3132 62.4409 20.9302 61.9301 20.8646 61.7232C20.799 61.5162 20.9092 60.5024 20.959 60.0781C21.2975 57.1493 22.3337 53.0523 22.5672 51.3443C22.9739 48.3711 22.8637 45.2564 22.1449 40.363L18.1598 36.6956C18.1598 36.6956 16.7588 38.8148 16.9687 40.9786C17.0894 42.2334 18.0994 42.5163 18.228 43.0114C18.3592 43.5065 20.2507 51.4779 20.2507 51.4779C20.2507 51.4779 19.5948 53.1047 19.4007 54.9358C19.2354 56.4971 19.6735 58.2574 19.642 60.0676C19.6263 60.4212 19.6106 61.2674 19.482 61.5241C19.3246 61.841 18.9678 62.1973 18.9468 62.6112C18.9337 62.8522 19.0885 63.0958 19.3823 63.219C19.6761 63.3395 19.8624 63.1797 19.9674 63.1849C20.5734 63.2137 20.7019 63.6433 21.7461 63.7376C22.0688 63.7664 22.5489 63.6302 22.8191 63.4023C22.924 63.3133 22.9135 63.1797 22.8479 63.0932Z" fill="#FFBD9C"/>
<path d="M22.903 63.4705C22.8637 63.5439 22.7928 63.6277 22.6879 63.7089C22.4964 63.853 22.2577 63.9185 22.0163 63.9185H21.5073C21.3001 63.9185 21.0981 63.8635 20.9171 63.7613C20.7728 63.6775 20.6285 63.5858 20.5865 63.5465C20.4816 63.4522 20.2586 63.3343 20.0723 63.3107C19.886 63.2872 19.7417 63.3029 19.7417 63.3029L19.705 63.9185H19.0019C19.0229 63.7063 18.8576 63.1352 18.8235 63.0383C18.7763 62.8968 18.8366 62.6401 18.8734 62.4987C18.9127 62.3441 19.2301 61.8542 19.3272 61.7861C19.3561 61.8804 19.503 62.4567 20.0434 62.5484C20.4186 62.6139 20.9171 62.9911 21.5677 62.9833C21.7566 62.9833 21.9507 62.7528 21.8353 62.703C21.7198 62.6532 22.0425 62.7108 22.2472 62.7842C22.4518 62.8575 22.8086 63.054 22.9109 63.1116C22.9817 63.1509 22.9739 63.3396 22.903 63.4679V63.4705Z" fill="#1F3A70"/>
<path d="M14.2114 32.5512C14.2114 32.5512 14.4161 33.5991 14.5446 34.0313C14.6732 34.4635 15.308 37.2062 15.9088 37.1591C16.5096 37.1119 19.8073 34.364 19.8073 34.364L19.3403 33.4314L16.4388 34.8119C16.4388 34.8119 16.1764 31.6763 15.9455 30.9297L14.2088 32.5512H14.2114Z" fill="#FFC8AF"/>
<path d="M15.0483 32.6666C15.3553 33.7511 15.9482 35.4198 16.1738 35.7342C16.2761 35.8756 18.2201 35.1736 18.2254 34.4191L16.2079 32.1375L15.0483 32.6666Z" fill="#F2A180"/>
<path d="M16.8821 27.6265C16.8821 27.6265 15.88 27.6579 15.1192 28.2237C13.8625 29.1563 14.1616 32.6823 14.1616 32.6823C14.1616 32.6823 14.1012 32.8657 14.9355 32.8185C15.7698 32.7713 16.4414 32.5356 16.4414 32.5356L16.2 29.709L16.8848 27.6265H16.8821Z" fill="#FF0000"/>
<path d="M14.7912 29.7588C14.7912 29.7588 14.6863 31.7864 15.0536 32.8106C15.4182 32.8028 15.7357 32.7216 15.7357 32.7216L14.7912 29.7588Z" fill="#FF0000"/>
<path d="M16.8428 27.8151C16.8769 27.5845 16.9399 27.3173 17.1524 27.2257C17.2127 27.1995 17.2783 27.1916 17.3413 27.1864C17.9971 27.113 17.921 27.0816 18.5795 27.0921C18.8524 27.0973 19.1357 27.1104 19.3797 27.2309C19.7627 27.4221 19.9726 27.8334 20.1589 28.2185L16.8428 27.8124V27.8151Z" fill="#FF0000"/>
<path d="M16.8428 27.8151C16.8769 27.5845 16.9399 27.3173 17.1524 27.2257C17.2127 27.1995 17.2783 27.1916 17.3413 27.1864C17.9971 27.113 17.921 27.0816 18.5795 27.0921C18.8524 27.0973 19.1357 27.1104 19.3797 27.2309C19.7627 27.4221 19.9726 27.8334 20.1589 28.2185L16.8428 27.8124V27.8151Z" fill="#FF0000"/>
<path d="M14.2455 58.6712C14.5026 57.5422 15.1585 54.6318 15.6255 53.3954C16.0925 52.1589 16.7405 50.8282 16.7641 50.6239C16.7851 50.4536 16.6119 49.204 16.5568 48.8006C16.5516 48.7901 16.5463 48.7823 16.5463 48.7718C16.5516 48.633 15.8642 43.4933 15.6386 42.7153C15.5546 42.4298 15.1506 41.4946 15.2241 40.0878C15.3028 38.6811 16.423 37.002 16.73 36.6981L21.9166 36.6143C21.9166 36.6143 22.8112 38.7256 22.8978 40.0302C23.0788 42.7808 22.8007 48.5753 22.8007 48.5753C22.8007 48.5753 22.7955 48.5779 22.7902 48.5806C22.7824 48.984 22.7483 49.9585 22.6276 50.836C22.4702 51.9782 20.8803 61.3066 20.8803 61.3066C20.8803 61.3066 20.0933 61.4323 19.4663 61.1494C19.4663 61.1494 19.4846 61.0498 19.4768 60.9477C19.5371 59.8239 19.0255 56.2455 19.4768 54.0555C19.928 51.8655 20.109 51.394 20.109 51.394L19.6158 49.0023C19.6079 48.963 19.5974 48.8635 19.5843 48.8635C19.524 49.4267 19.3928 50.5531 19.2302 51.153C18.994 52.028 16.7273 56.9423 15.8275 59.0563C15.5205 59.7793 15.2425 60.5914 15.2425 60.5914C15.2425 60.5914 14.1616 60.4683 13.8546 59.9915C13.8546 59.9915 14.0094 59.6745 14.2377 58.666L14.2455 58.6712Z" fill="#285EAF"/>
<path d="M21.8431 35.7891C21.6621 35.4328 21.5021 33.9265 21.5651 33.5415C21.6333 33.1302 21.9979 32.9075 22.1632 31.9907C22.3757 30.8092 21.8904 29.8897 21.6201 29.4968C21.2371 28.9415 20.7098 27.8124 20.6022 27.7784C18.9993 27.2911 18.7396 27.5243 17.6613 27.5714C17.1287 27.595 16.7877 27.6159 16.263 27.7312C15.6832 27.8596 14.988 28.0508 14.8699 28.8367C14.6863 30.0495 14.8411 31.2781 15.211 32.4281C15.455 33.1904 16.9189 35.831 16.5568 36.3418C16.4729 36.4597 16.2656 36.6797 16.242 36.8264C16.1502 37.3608 17.0133 37.4918 17.8738 37.5887C18.6582 37.6778 19.4689 37.6333 20.353 37.573C22.7876 37.408 21.9218 35.9358 21.8484 35.7865L21.8431 35.7891Z" fill="#FF0000"/>
<path d="M15.0982 29.4523C16.0216 30.005 17.155 29.9422 17.942 29.7902C17.9053 29.1615 17.9604 27.8806 17.9604 27.8806C17.9683 28.339 18.1676 29.4523 18.2175 29.7326C18.6294 29.6357 18.8943 29.5309 18.8943 29.5309C18.8943 29.5309 18.2752 26.4896 18.2752 25.1536C18.2778 24.0036 19.4899 23.2151 19.4899 23.2151L17.4383 20.5667C17.4383 20.5667 15.8196 21.0251 15.3631 22.9688C15.1349 23.9381 15.1008 29.4497 15.1008 29.4497L15.0982 29.4523Z" fill="#1F3A70"/>
<path d="M17.0238 41.3113C17.0815 41.5732 17.273 42.2439 17.7689 42.8988L19.5214 49.4661C19.5214 49.4661 19.5528 49.191 19.5896 48.8688C19.0203 46.4797 18.3119 43.3284 18.228 43.014C18.1099 42.5634 17.2704 42.291 17.0238 41.3113Z" fill="#5275A0" fill-opacity="0.34902"/>
<path d="M21.2188 31.705C21.2188 31.705 23.6298 35.5689 24.485 35.5689C25.1068 35.5689 28.5855 31.4195 28.5855 31.4195L27.4076 31.1025L24.5637 33.0567L22.8375 30.2197L21.2188 31.7024V31.705Z" fill="#FFC8AF"/>
<path d="M29.9655 29.9736C29.9681 29.9002 29.9628 29.8269 29.976 29.7562C30.0022 29.599 30.1071 29.4654 30.1439 29.3135C30.1727 29.193 30.157 29.0672 30.1675 28.9415C30.178 28.8 30.2619 28.5643 30.1491 28.5459C30.1727 28.4569 30.2068 28.3547 30.2252 28.2656C30.2383 28.1975 30.2357 28.0665 30.157 28.077C30.0389 28.0927 29.9104 28.2499 29.8343 28.3233C29.7346 28.4202 29.5824 28.6743 29.4932 28.7817C29.2939 29.0227 29.0604 29.1248 29.0604 29.1248C29.0604 29.1248 29.1155 29.0253 29.0735 28.9755C29.0079 28.8969 28.7928 29.0358 28.5593 29.0698C28.4386 29.0882 28.1395 29.4523 28.0425 29.5571C27.9428 29.6619 27.8509 30.3063 27.8221 30.4399C27.7512 30.7883 27.3079 31.1891 27.3079 31.1891C27.3079 31.1891 28.3153 31.6868 28.3205 31.6894C28.3442 31.6999 28.4543 31.5558 28.4701 31.5375C28.533 31.4668 28.6091 31.3882 28.6983 31.3541C29.0105 31.0502 29.4723 30.9009 29.7399 30.5473C29.8632 30.3849 29.9497 30.191 29.9628 29.9893C29.9628 29.9867 29.9628 29.9815 29.9628 29.9788L29.9655 29.9736Z" fill="#FFC8AF"/>
<path d="M29.063 29.1248C28.903 29.2846 28.7639 29.3134 28.6222 29.3867C28.5121 29.4444 28.5094 29.4994 28.3887 29.5596C28.5619 29.5937 28.5593 29.4863 28.8216 29.3894C28.9423 29.3448 29.0709 29.2951 29.1233 29.1745C29.1417 29.1326 29.0971 29.096 29.0604 29.1248H29.063Z" fill="#F2A180"/>
<path d="M19.1095 27.4771C19.6211 27.5032 21.2686 27.6159 22.2813 29.0986C22.848 29.929 23.4671 30.9061 23.7452 31.6789C23.6114 32.1373 22.7456 33.0699 21.9507 33.0594C21.9114 33.0306 20.7413 31.5977 20.5157 30.4267L19.1095 27.4771Z" fill="#FF0000"/>
<path d="M13.7208 20.6269L14.8384 21.2215L14.2796 19.7703L13.7208 20.6269Z" fill="#CFEFFD"/>
<path d="M10.25 18.7721C10.25 20.0767 11.3072 21.1324 12.6137 21.1324C13.9202 21.1324 14.9775 20.0767 14.9775 18.7721C14.9775 17.4676 13.9202 16.4119 12.6137 16.4119C11.3072 16.4119 10.25 17.4676 10.25 18.7721Z" fill="#CFEFFD"/>
<path d="M12.4747 17.4361C12.9522 17.3942 13.3745 17.7478 13.4165 18.2219C13.4296 18.3608 13.406 18.4996 13.3457 18.6358L13.2644 18.8402L12.9758 19.5868L12.6688 19.613L12.3619 19.6391L11.95 18.9554L11.8267 18.7694C11.7454 18.6437 11.6981 18.5127 11.685 18.3739C11.643 17.8971 11.9972 17.4754 12.4721 17.4334L12.4747 17.4361ZM12.4616 17.3025C11.9106 17.3522 11.504 17.8369 11.5538 18.387C11.5696 18.5573 11.6299 18.7092 11.7165 18.8428L12.291 19.7806L12.6793 19.7465L13.0676 19.7125L13.4664 18.6882C13.5293 18.5415 13.5608 18.3791 13.5477 18.2088C13.4979 17.6587 13.0125 17.2527 12.4616 17.3025Z" fill="#67C1EF"/>
<path d="M12.7475 20.4878C12.5324 20.5061 12.3435 20.349 12.3225 20.1342L12.2963 19.8486L13.0755 19.7805L13.1017 20.0661C13.1201 20.2809 12.9627 20.4695 12.7475 20.4904V20.4878Z" fill="#67C1EF"/>
<path d="M12.1389 18.5233C12.1048 18.5233 12.0759 18.4971 12.0733 18.463C12.0707 18.4264 12.0969 18.3949 12.1336 18.3923L12.981 18.3163C13.0178 18.3137 13.0492 18.3399 13.0519 18.3766C13.0545 18.4133 13.0283 18.4447 12.9915 18.4499L12.1441 18.5259C12.1415 18.5259 12.1389 18.5259 12.1389 18.5259V18.5233Z" fill="#67C1EF"/>
<path d="M12.6741 19.744C12.64 19.744 12.6111 19.7178 12.6085 19.6837L12.4957 18.4263C12.4931 18.3897 12.5193 18.3582 12.556 18.3556C12.5927 18.3504 12.6242 18.3792 12.6295 18.4158L12.7423 19.6733C12.7449 19.7099 12.7187 19.7414 12.6819 19.744C12.6793 19.744 12.6767 19.744 12.6767 19.744H12.6741Z" fill="#67C1EF"/>
<path d="M76.9862 48.6355L77.831 49.479C77.831 49.479 78.8778 48.7298 78.8725 48.57C78.8699 48.4076 78.1091 47.5877 77.8966 47.5955C77.6841 47.6008 76.9862 48.6355 76.9862 48.6355Z" fill="#FF0000"/>
<path d="M73.5731 48.6355L72.7283 49.479C72.7283 49.479 71.6815 48.7298 71.6868 48.57C71.6894 48.4076 72.4502 47.5877 72.6627 47.5955C72.8752 47.6008 73.5731 48.6355 73.5731 48.6355Z" fill="#FF0000"/>
<path d="M74.856 47.7764H75.7033V47.0586H74.856V47.7764Z" fill="#153350"/>
<path d="M71.4061 51.4255C71.4061 53.5631 73.1402 55.2947 75.281 55.2947C77.4217 55.2947 79.1559 53.5631 79.1559 51.4255C79.1559 49.2879 77.4217 47.5564 75.281 47.5564C73.1402 47.5564 71.4061 49.2879 71.4061 51.4255Z" fill="#FF0000"/>
<path d="M78.8437 51.5906C78.8437 53.013 78.075 54.2573 76.9311 54.9279C78.2455 54.3097 79.1558 52.9737 79.1558 51.4255C79.1558 49.2879 77.4217 47.5564 75.281 47.5564C74.5647 47.5564 73.8958 47.7503 73.3212 48.0882C73.8223 47.855 74.3785 47.7214 74.9688 47.7214C77.1095 47.7214 78.8437 49.453 78.8437 51.5906Z" fill="#FF0000"/>
<path d="M71.4061 51.4255C71.4061 53.5631 73.1402 55.2947 75.281 55.2947C76.1152 55.2947 76.8892 55.0301 77.5214 54.5822C76.9784 54.8598 76.3592 55.017 75.7033 55.017C73.5626 55.017 71.8285 53.3536 71.8285 51.2972C71.8285 49.2434 73.5626 47.58 75.7033 47.58C75.5643 47.5643 75.4226 47.5564 75.281 47.5564C73.1402 47.5564 71.4061 49.2879 71.4061 51.4255Z" fill="#FDD621" fill-opacity="0.6"/>
<path d="M72.3873 51.4254C72.3873 53.0207 73.6833 54.3122 75.2783 54.3122C76.876 54.3122 78.1694 53.0181 78.1694 51.4254C78.1694 49.83 76.8734 48.5386 75.2783 48.5386C73.6806 48.5386 72.3873 49.8327 72.3873 51.4254Z" fill="#153350"/>
<path d="M72.6286 51.4255C72.6286 52.8872 73.8144 54.0739 75.281 54.0739C76.7449 54.0739 77.9333 52.8899 77.9333 51.4255C77.9333 49.9638 76.7475 48.7771 75.281 48.7771C73.8171 48.7771 72.6286 49.9612 72.6286 51.4255Z" fill="#FFFDFF"/>
<path d="M74.6881 47.2786H75.8844C75.8844 47.2786 76.0942 46.7704 75.9762 46.7259C75.8581 46.6813 74.7405 46.663 74.5962 46.7259C74.4493 46.7887 74.6881 47.2786 74.6881 47.2786Z" fill="#FF0000"/>
<path d="M75.2731 51.6114L75.3754 51.5694C75.4226 51.5485 75.4462 51.4935 75.4252 51.4437L74.6382 49.5916C74.6172 49.5445 74.5621 49.5209 74.5123 49.5419L74.41 49.5838C74.3627 49.6047 74.3391 49.6598 74.3601 49.7095L75.1472 51.5616C75.1681 51.6087 75.2232 51.6323 75.2731 51.6114Z" fill="#153350"/>
<path d="M74.8586 51.4254C74.8586 51.6586 75.0475 51.8472 75.281 51.8472C75.5145 51.8472 75.7033 51.6586 75.7033 51.4254C75.7033 51.1923 75.5145 51.0037 75.281 51.0037C75.0475 51.0037 74.8586 51.1923 74.8586 51.4254Z" fill="#153350"/>
<path d="M75.5564 54.8362C75.6482 54.8389 75.7401 54.831 75.8293 54.8598C75.8345 54.8624 75.8345 54.8703 75.8293 54.8729C75.7401 54.9017 75.6482 54.8939 75.5564 54.8965C75.5197 54.8965 75.5197 54.8389 75.5564 54.8389V54.8362ZM75.1471 54.8389C75.1996 54.8572 75.2521 54.8677 75.3072 54.852C75.3124 54.8493 75.3124 54.8415 75.3072 54.8389C75.26 54.8231 75.2127 54.8127 75.1681 54.7917C75.134 54.776 75.113 54.8258 75.1471 54.8389ZM72.6024 49.4949C72.6496 49.3927 72.7099 49.2958 72.7808 49.2094C72.8122 49.1727 72.7598 49.1177 72.7257 49.1543C72.647 49.246 72.5788 49.343 72.5237 49.4504C72.4974 49.5028 72.5761 49.5473 72.6024 49.4949ZM72.2587 50.0319C72.2482 50.0922 72.3426 50.1184 72.3505 50.0581C72.361 49.9926 72.3767 49.9271 72.3899 49.8616C72.4004 49.8145 72.4345 49.7621 72.4266 49.7123C72.4266 49.7097 72.424 49.7097 72.4213 49.7097C72.3715 49.7254 72.3479 49.7909 72.3243 49.8328C72.2875 49.8983 72.2692 49.9586 72.2587 50.0319ZM73.5993 48.5414C73.7567 48.4313 73.9089 48.3213 74.0768 48.2296C74.1266 48.2008 74.0925 48.1144 74.0374 48.1353C73.8564 48.206 73.6754 48.2873 73.5153 48.3973C73.4288 48.4575 73.5101 48.6042 73.5993 48.5414Z" fill="#FDD621" fill-opacity="0.6"/>
<path d="M64.5011 58.4774C64.0603 57.613 63.9422 56.5704 64.3331 55.6614C64.5588 55.1348 64.8736 54.6188 65.3301 54.2625C65.7288 53.9534 66.1984 53.7334 66.6864 53.605C67.5259 53.3823 68.4599 53.4557 69.2102 53.8958C69.8372 54.2625 70.2937 54.8572 70.5954 55.5068C70.8892 56.1408 71.0125 56.9293 71.6474 57.3379C71.8285 57.4558 72.1302 57.503 72.2194 57.7204C72.3243 57.9797 72.1328 58.2364 72.0305 58.4617C71.9072 58.7289 71.7865 58.9961 71.6658 59.2633C71.5792 59.4546 71.4953 59.7872 71.2618 59.858C71.0388 59.9366 70.8027 59.7453 70.5954 59.6877C70.0471 59.5384 69.4516 59.7506 68.9531 59.968C68.3812 60.2195 67.442 60.0885 66.8123 60.0335C65.6475 59.9313 65.0284 59.5096 64.5037 58.4774H64.5011Z" fill="#95E2F9" fill-opacity="0.6"/>
<path d="M72.0777 58.7185C72.0777 58.7185 70.3121 57.8488 69.4673 57.3721C69.2443 57.2463 69.0108 57.1206 68.7039 56.8455C68.5071 56.67 68.1057 56.2535 68.3628 55.9784C68.6671 55.6536 69.0239 56.1828 69.0213 56.4788C69.0187 56.7224 68.8114 57.0787 68.6094 57.2227C68.2553 57.4742 67.7096 57.4087 67.3711 57.2018C67.1114 57.042 67.2583 56.6648 67.5443 56.6831C67.8171 56.7014 68.5884 57.2778 68.4127 57.7414C68.3182 57.985 68.1215 58.1789 67.8854 58.2915C67.463 58.4985 66.9147 57.9615 67.5076 57.7729C67.93 57.6366 68.4678 57.7833 68.8639 57.9379C69.9474 58.357 70.7869 58.7159 71.8599 59.156" stroke="white" stroke-opacity="0.6" stroke-width="0.818093" stroke-miterlimit="10"/>
<path d="M71.6291 59.8108L72.4423 57.9928L72.264 57.9116L71.448 59.7296L71.6291 59.8108Z" fill="#389EE4" fill-opacity="0.6"/>
<path d="M72.2062 59.9967C72.1826 59.9495 72.1144 60.1172 72.0646 60.1355L72.0409 60.015C71.9911 60.0334 71.936 60.1329 71.9124 60.0858L71.8967 60.0569C71.8704 60.0072 71.8048 59.9836 71.755 60.0045C71.7051 60.0255 71.6422 60.0019 71.6159 59.9548L71.574 59.8762C71.5582 59.8474 71.5556 59.8133 71.5687 59.7845L72.3794 57.977C72.3925 57.9482 72.4187 57.9246 72.4502 57.9194L72.5368 57.901C72.5893 57.8879 72.6496 57.922 72.668 57.9717C72.6863 58.0241 72.7467 58.0556 72.8018 58.0425L72.8332 58.0346C72.8857 58.0215 72.9434 58.0503 72.9644 58.1001L72.9723 58.1158C72.9933 58.1656 73.0536 58.1944 73.1061 58.1787L73.1297 58.1708C73.1822 58.1551 73.2451 58.1865 73.2635 58.2363L73.2687 58.2468C73.2897 58.3018 73.2897 58.3621 73.2661 58.4118L72.5368 60.036C72.5132 60.0858 72.5132 59.9679 72.4555 59.9914L72.3584 59.7819C72.3085 59.8002 72.2954 60.0884 72.2718 60.0386L72.2036 60.0019L72.2062 59.9967Z" fill="#67C1EF" fill-opacity="0.6"/>
<path d="M71.8075 59.9391C71.8022 59.9391 71.7996 59.9391 71.7943 59.9365C71.7786 59.9287 71.7707 59.9103 71.7786 59.8946L72.1564 59.0537C72.1643 59.038 72.1826 59.0301 72.1984 59.038C72.2141 59.0459 72.222 59.0642 72.2141 59.0799L71.8363 59.9208C71.8311 59.9339 71.8179 59.9391 71.8075 59.9391Z" fill="#389EE4" fill-opacity="0.6"/>
<path d="M72.3531 58.721C72.3479 58.721 72.3453 58.721 72.34 58.7184C72.3243 58.7105 72.3164 58.6922 72.3243 58.6765L72.5342 58.2102C72.542 58.1945 72.5604 58.1866 72.5761 58.1945C72.5919 58.2023 72.5998 58.2207 72.5919 58.2364L72.382 58.7027C72.3768 58.7158 72.3636 58.721 72.3531 58.721Z" fill="#389EE4" fill-opacity="0.6"/>
<path d="M72.2771 59.4467C72.2718 59.4467 72.2692 59.4467 72.2639 59.444C72.2482 59.4362 72.2403 59.4178 72.2482 59.4021L72.7965 58.1814C72.8044 58.1657 72.8227 58.1578 72.8385 58.1657C72.8542 58.1735 72.8621 58.1919 72.8542 58.2076L72.3059 59.4283C72.3007 59.4414 72.2876 59.4467 72.2771 59.4467Z" fill="#389EE4" fill-opacity="0.6"/>
<path d="M72.0147 60.0335C72.0095 60.0335 72.0068 60.0335 72.0016 60.0309C71.9859 60.0231 71.978 60.0047 71.9859 59.989L72.1485 59.6301C72.1564 59.6144 72.1748 59.6066 72.1905 59.6144C72.2062 59.6223 72.2141 59.6406 72.2062 59.6563L72.0436 60.0152C72.0383 60.0283 72.0252 60.0335 72.0147 60.0335Z" fill="#389EE4" fill-opacity="0.6"/>
<path d="M72.6837 59.0931C72.6784 59.0931 72.6758 59.0931 72.6706 59.0904C72.6548 59.0826 72.647 59.0642 72.6548 59.0485L72.9487 58.3962C72.9565 58.3805 72.9749 58.3727 72.9906 58.3805C73.0064 58.3884 73.0143 58.4067 73.0064 58.4224L72.7126 59.0747C72.7073 59.0878 72.6942 59.0931 72.6837 59.0931Z" fill="#389EE4" fill-opacity="0.6"/>
<path d="M72.3741 59.7821C72.3689 59.7821 72.3663 59.7821 72.361 59.7795C72.3453 59.7716 72.3374 59.7533 72.3453 59.7375L72.4633 59.4756C72.4712 59.4599 72.4896 59.452 72.5053 59.4599C72.521 59.4677 72.5289 59.4861 72.521 59.5018L72.403 59.7637C72.3977 59.7768 72.3846 59.7821 72.3741 59.7821Z" fill="#389EE4" fill-opacity="0.6"/>
<path d="M72.2587 58.9333C72.2534 58.9333 72.2508 58.9333 72.2456 58.9307C72.2298 58.9228 72.222 58.9045 72.2298 58.8887L72.2718 58.7944C72.2797 58.7787 72.298 58.7709 72.3138 58.7787C72.3295 58.7866 72.3374 58.8049 72.3295 58.8206L72.2876 58.9149C72.2823 58.928 72.2692 58.9333 72.2587 58.9333Z" fill="#389EE4" fill-opacity="0.6"/>
<path d="M64.5011 58.4775C64.0603 57.613 63.9422 56.5704 64.3331 55.6614C64.3777 55.5566 64.425 55.4545 64.4774 55.3523C63.9186 56.835 64.6139 58.6451 66.146 59.2738C67.4341 59.803 68.6173 59.5882 69.748 58.5561C69.9841 58.3413 70.2491 58.226 70.5744 58.3229C70.8761 58.4094 71.1254 58.6294 71.4349 58.6975C71.4822 58.708 71.532 58.7132 71.5766 58.6975C71.6186 58.6818 71.6527 58.6504 71.6815 58.6189C71.936 58.3544 72.0987 58.019 72.1852 57.6602C72.1984 57.6785 72.2089 57.6968 72.2194 57.7204C72.3243 57.9797 72.1328 58.2365 72.0305 58.4618C71.9072 58.729 71.7865 58.9961 71.6658 59.2633C71.5792 59.4546 71.4953 59.7873 71.2618 59.858C71.0388 59.9366 70.8027 59.7454 70.5954 59.6877C70.0471 59.5384 69.4516 59.7506 68.9531 59.968C68.3812 60.2195 67.442 60.0885 66.8123 60.0335C65.6475 59.9313 65.0284 59.5096 64.5037 58.4775H64.5011Z" fill="#95E2F9"/>
<path d="M63.0162 63.8998C63.0162 64.5075 72.1065 65 83.322 65C94.5374 65 103.628 64.5075 103.628 63.8998C103.628 63.292 94.5374 62.7996 83.322 62.7996C72.1065 62.7996 63.0162 63.292 63.0162 63.8998Z" fill="#E6EBEF"/>
<path d="M88.4692 60.7485C88.4692 60.7485 88.4089 62.3124 88.4902 62.6687C88.5532 62.9516 89.4321 62.9778 89.537 62.8285C89.6446 62.6792 89.781 60.8664 89.781 60.8664L88.4692 60.7485Z" fill="#FFBD9C"/>
<path d="M89.781 63.0852C89.781 63.2843 89.8807 63.8763 89.6367 63.8763H88.6371C88.6371 63.8763 88.241 63.8763 87.9708 63.8763H87.0762C86.4203 63.8763 86.0504 63.7925 86.032 63.6773C85.9638 63.2084 88.2515 62.4172 88.4692 62.4172C88.4797 62.4172 88.4876 62.4199 88.4981 62.4225C88.5296 62.433 88.603 62.4696 88.6581 62.5639C88.8103 62.8233 89.1487 62.9412 89.4216 62.8128C89.4793 62.7866 89.5317 62.7499 89.5763 62.7028C89.5763 62.7028 89.781 62.784 89.781 63.0852Z" fill="#4B3F50"/>
<path d="M97.9374 61.1022C97.9374 61.1022 98.2129 61.8435 98.3336 62.0898C98.4542 62.336 99.2754 62.0321 99.3174 61.8619C99.3593 61.6916 98.693 60.4185 98.693 60.4185L97.9374 61.1022Z" fill="#FFBD9C"/>
<path d="M99.6951 62.019C99.9522 62.5351 99.8919 62.7761 99.8106 62.8258L99.1232 63.2371C99.1206 63.2371 99.1206 63.2397 99.118 63.2397C99.0944 63.2502 98.8032 63.3995 98.5802 63.5384C98.3834 63.6589 98.0423 63.8056 97.8167 63.858C97.1136 64.0204 96.5732 63.9418 96.5155 63.8449C96.2899 63.4545 98.0266 61.9535 98.226 61.8723C98.2365 61.8671 98.2443 61.8671 98.2548 61.8671C98.2889 61.8671 98.3703 61.8723 98.4542 61.943C98.6248 62.0845 98.8609 62.1316 99.0498 62.0138C99.1573 61.9483 99.257 61.8566 99.3042 61.7361C99.3042 61.7361 99.5666 61.7623 99.6925 62.0164L99.6951 62.019Z" fill="#4B3F50"/>
<path d="M98.9501 60.5651C98.9684 60.6097 98.9527 60.662 98.9133 60.6909C98.2889 61.1388 97.8508 61.1833 97.8508 61.1833C97.8508 61.1807 97.8482 61.1807 97.8482 61.1781C97.7039 60.9502 93.1469 53.7673 92.2733 52.3736C92.2549 52.3422 92.2366 52.316 92.2208 52.2898C92.2182 52.2846 92.2129 52.282 92.2129 52.2767C92.15 52.1772 92.1054 52.0855 92.0713 51.999C92.0634 51.9807 92.0555 51.9624 92.0503 51.9493C92.0267 51.8916 92.0083 51.8366 92.0031 51.8C91.9952 51.7711 91.99 51.7423 91.9847 51.7109C91.9847 51.7083 91.9821 51.703 91.9821 51.6978C91.8588 51.077 91.5702 50.016 91.216 48.7796C91.0166 48.0775 90.7989 47.3231 90.5785 46.5608C90.4054 45.9635 90.2322 45.3689 90.0748 44.803L88.8024 39.8651C88.7867 39.8022 88.8313 39.7367 88.8969 39.7341L89.9174 39.666C91.2134 39.5769 92.7927 38.9273 93.1285 38.7832C93.1679 38.7649 93.2151 38.7753 93.2466 38.8068C94.7315 40.2895 94.4482 42.1468 94.2671 43.0767C94.2671 43.0793 94.2645 43.0793 94.2645 43.0846C94.1832 43.5116 94.1596 43.949 94.1911 44.3813C94.2934 45.7199 94.4928 48.2164 94.5111 49.9531C94.5111 49.9558 94.5111 49.9558 94.5111 49.9584C94.5137 50.0055 94.5872 51.0403 95.5736 52.2662C95.7625 52.4706 95.9409 52.6906 96.101 52.929C97.578 55.1557 98.1237 58.6161 98.9448 60.5651H98.9501Z" fill="#285EAF"/>
<path d="M97.8456 61.1781C97.7013 60.9502 93.1443 53.7673 92.2707 52.3737C92.2523 52.3422 92.2339 52.316 92.2182 52.2898C92.2156 52.2846 92.2103 52.282 92.2103 52.2767C92.1474 52.1772 92.1028 52.0855 92.0686 51.9991C92.0608 51.9807 92.0529 51.9624 92.0477 51.9493C92.024 51.8916 92.0057 51.8366 92.0004 51.8C91.9926 51.7711 91.9873 51.7423 91.9821 51.7109C91.9821 51.7083 91.9795 51.703 91.9795 51.6978C91.8588 51.0848 91.5728 50.0344 91.2239 48.8136C91.2186 48.7927 91.2186 48.7691 91.2265 48.7481L93.2597 43.302C93.2755 43.2601 93.3148 43.2339 93.3594 43.2339H93.892C93.9654 43.2339 94.0153 43.3046 93.9917 43.3727C93.8106 43.9202 93.139 45.9583 92.84 46.9511C92.4937 48.1011 92.3992 49.906 92.3677 50.5661C92.2995 52.0148 94.0835 54.4772 94.5951 55.3731C95.1408 56.3345 97.6383 60.7826 97.8429 61.1807L97.8456 61.1781Z" fill="#5275A0" fill-opacity="0.34902"/>
<path d="M93.1784 44.122C93.3306 44.0513 93.9445 43.7055 94.3327 42.6105C94.3485 42.5633 94.3327 42.5109 94.2908 42.4848C93.6978 42.1101 89.5737 39.5325 88.5847 39.8468C88.283 39.9437 87.7084 49.5288 87.7137 49.7332C87.7163 49.8327 87.7084 50.8727 87.7137 50.9932C87.7793 52.6252 88.3512 60.7512 88.4168 61.6523C88.4194 61.7021 88.4561 61.7414 88.5033 61.7493C88.6634 61.7754 89.0516 61.8252 89.6236 61.8226C89.6629 61.7885 89.6892 61.765 89.7311 61.7309C89.9882 59.5514 91.1137 55.4465 90.547 52.8741C90.5392 52.8426 90.5365 52.8112 90.5313 52.7798C90.5287 52.73 90.5208 52.6619 90.5103 52.5754C90.3739 51.4385 90.3686 51.7686 90.6808 50.3357C90.6808 50.3304 90.6835 50.3252 90.6861 50.32C91.3839 48.5282 92.6957 45.2589 93.1286 44.177C93.139 44.1534 93.1548 44.1351 93.1784 44.1246V44.122Z" fill="#285EAF"/>
<path d="M94.8915 32.9728C94.8863 33.5203 94.8548 34.0652 94.8102 34.5891C94.7525 35.2309 94.6738 35.8439 94.5925 36.3993C94.4009 37.7222 94.1884 38.7045 94.2094 38.9429C94.2252 39.0896 94.2776 39.2311 94.3432 39.3673C94.435 39.5611 94.2803 39.6947 94.2803 39.6947C94.1911 39.7314 94.1019 39.7681 94.0074 39.8021C91.6961 40.6456 88.2935 39.9279 88.2935 39.9279C88.1518 39.9383 88.0101 39.8283 88.0652 39.5611C88.1072 39.3594 88.3197 38.3797 88.3118 38.1727C88.304 37.9815 88.359 37.3319 88.4692 36.4307C88.506 36.1111 88.5532 35.7627 88.6057 35.3907C88.6476 35.0764 88.7001 34.7437 88.7526 34.4005C88.8155 34.0023 88.868 33.612 88.9205 33.2322C88.9782 32.8026 89.0333 32.3834 89.0936 31.9695C89.2038 31.257 89.3297 30.5707 89.5239 29.9079C89.6813 29.3578 89.8833 28.8234 90.1535 28.3021C90.7963 27.0657 92.3572 26.8718 92.6275 26.8456C92.6537 26.843 92.6773 26.8482 92.6983 26.864C93.8631 27.6394 94.456 28.9753 94.7184 30.4868C94.8574 31.2884 94.902 32.1372 94.8915 32.9755V32.9728Z" fill="#FF0000"/>
<path d="M92.5776 29.7299C92.4858 30.8825 92.0556 34.5997 90.2795 36.2501C90.2716 36.2579 90.2637 36.2632 90.2558 36.2684C90.164 36.3182 89.6131 36.5827 88.5794 36.4465C88.5217 36.4387 88.4797 36.3863 88.485 36.3286C88.5532 35.768 88.6424 35.1184 88.75 34.4268C88.7526 34.4085 88.7605 34.3928 88.7709 34.377L89.2169 31.2623C89.2169 31.2623 89.6708 29.7561 90.2768 29.1457C90.6599 28.7606 92.3887 29.6565 92.3887 29.6565C92.4517 29.5727 92.5855 29.6225 92.5776 29.7273V29.7299Z" fill="black" fill-opacity="0.078431"/>
<path d="M83.8021 41.1697C83.8021 41.1697 83.3272 41.3897 83.1593 41.725H83.8388L83.8047 41.1697H83.8021Z" fill="#F2A180"/>
<path d="M79.6202 52.5911L79.6281 59.6535L72.4109 59.6614V52.5989L79.6202 52.5911Z" fill="#FDCF33"/>
<path d="M72.4109 52.5911V59.6535L70.7292 59.6561L70.724 52.5937L72.4109 52.5911Z" fill="#FFD86B"/>
<path d="M80.5437 54.3776H73.3238L72.4109 52.5911H79.6281L80.5437 54.3776Z" fill="#F4BF2A"/>
<path d="M65.191 60.1382H81.9341C82.4746 60.1382 82.9153 59.6981 82.9153 59.1585V42.3511C82.9153 42.2175 83.0229 42.1101 83.1567 42.1101H86.0268C86.1658 42.1101 86.2786 41.9975 86.2786 41.8587C86.2786 41.7198 86.1658 41.6072 86.0268 41.6072H83.1567C82.7448 41.6072 82.409 41.9425 82.409 42.3538V59.1611C82.409 59.423 82.1965 59.6378 81.9315 59.6378H65.1884C65.0494 59.6378 64.9366 59.7505 64.9366 59.8893C64.9366 60.0282 65.0494 60.1408 65.1884 60.1408L65.191 60.1382Z" fill="#C1CDD6"/>
<path d="M77.9149 62.061C77.9149 63.0643 78.7282 63.8764 79.733 63.8764C80.7378 63.8764 81.5511 63.0643 81.5511 62.061C81.5511 61.0577 80.7378 60.2456 79.733 60.2456C78.7282 60.2456 77.9149 61.0577 77.9149 62.061Z" fill="#B3E9FF"/>
<path d="M78.7991 62.0608C78.7991 62.5743 79.2162 62.9908 79.7304 62.9908C80.2446 62.9908 80.6617 62.5743 80.6617 62.0608C80.6617 61.5474 80.2446 61.1309 79.7304 61.1309C79.2162 61.1309 78.7991 61.5474 78.7991 62.0608Z" fill="white"/>
<path d="M66.188 62.061C66.188 63.0643 67.0012 63.8764 68.006 63.8764C69.0108 63.8764 69.8241 63.0643 69.8241 62.061C69.8241 61.0577 69.0108 60.2456 68.006 60.2456C67.0012 60.2456 66.188 61.0577 66.188 62.061Z" fill="#B3E9FF"/>
<path d="M67.0747 62.0608C67.0747 62.5743 67.4918 62.9908 68.006 62.9908C68.5202 62.9908 68.9374 62.5743 68.9374 62.0608C68.9374 61.5474 68.5202 61.1309 68.006 61.1309C67.4918 61.1309 67.0747 61.5474 67.0747 62.0608Z" fill="white"/>
<path d="M92.1683 30.4816C92.2575 30.0232 92.2995 29.6853 92.289 29.5648C92.1893 28.627 91.195 28.7999 91.0166 28.9125C90.8094 29.0382 90.2899 29.4443 89.7075 31.1706C89.3061 32.3599 89.0674 33.2768 88.9178 33.8504C88.8706 34.0207 88.805 34.2277 88.7526 34.4032L89.9463 36.1164C90.9274 35.5008 91.8483 32.1687 92.1683 30.4843V30.4816Z" fill="#FFBD9C"/>
<path d="M88.102 35.7575C87.5773 36.5172 85.6621 39.4773 84.799 40.5461L85.4601 41.0674C85.4863 41.0229 85.5152 40.9731 85.5493 40.926C85.5519 40.9207 85.8405 40.7321 85.8484 40.7269C86.4282 40.093 87.0762 39.5559 88.0049 38.6155C88.9651 37.6384 89.8518 36.6141 90.2112 35.9828C90.2532 35.9095 90.7779 35.0686 90.7858 34.9716L88.8733 34.0103C88.9021 34.0495 88.4876 35.2048 88.1072 35.7549L88.102 35.7575Z" fill="#FFBD9C"/>
<path d="M85.0587 40.2109C85.0587 40.2109 84.7491 40.6301 84.5471 40.7349C84.3425 40.8396 84.0434 41.0623 83.8388 41.1461C83.6341 41.23 83.2327 42.1992 83.3587 42.3171C83.4846 42.4376 84.2664 42.6393 84.7334 42.4088C85.182 42.1887 85.0141 41.8901 85.1243 41.7093C85.3997 41.2562 85.8484 40.727 85.8484 40.727L85.6936 40.4231L85.0587 40.2109Z" fill="#FFBD9C"/>
<path d="M92.7245 26.8587C92.6773 26.9426 92.6196 27.0185 92.5514 27.084C92.5488 27.0866 92.5488 27.0866 92.5461 27.0893C92.1316 27.4901 91.3944 27.566 91.077 27.5791C91.0062 27.5817 90.9563 27.5189 90.9694 27.4508C90.9957 27.3198 91.0062 27.0814 90.8933 26.7147C90.875 26.657 90.8094 26.6256 90.7543 26.6465C90.2191 26.8456 89.7102 26.9426 89.3875 26.8168C89.3691 26.809 89.356 26.7985 89.3429 26.7854C89.1146 26.5418 88.9231 26.2458 88.7631 25.9235C88.7421 25.8842 88.7001 25.8607 88.6581 25.8659C88.5086 25.8869 88.2961 25.8921 88.2489 25.7664C88.1912 25.6066 88.3013 25.0407 88.3459 24.8286C88.3433 24.8207 88.3407 24.8128 88.3381 24.805C88.3459 24.6504 88.3932 24.4566 88.3433 24.268C88.3302 24.2156 88.2174 24.1579 88.1912 24.116C87.9577 23.7519 87.858 23.2542 87.8265 23.0787C87.8186 23.0394 87.8344 23.0027 87.8685 22.9791C88.0967 22.8141 89.0123 22.1592 89.0858 22.1461C89.1723 22.1277 91.2764 21.74 91.3472 21.7689C91.4207 21.7977 92.4858 23.0472 92.6248 24.4068C92.6773 24.9333 92.5671 25.3263 92.3992 25.6118H92.4018C92.4018 25.6118 92.3809 26.5653 92.7272 26.8614L92.7245 26.8587Z" fill="#FFBD9C"/>
<path d="M89.4111 31.4064C89.7862 31.8596 91.2764 32.3626 91.8955 32.4071C92.2418 31.5086 93.3725 28.6035 92.1132 28.0979C90.7228 27.5399 89.8885 29.6958 89.4111 31.4064Z" fill="#FF0000"/>
<path d="M92.5461 27.0867C92.1316 27.4875 91.3944 27.5635 91.077 27.5766C91.0061 27.5792 90.9563 27.5163 90.9694 27.4482C90.9956 27.312 91.0061 27.0631 90.8828 26.6754C90.8697 26.6335 90.8828 26.5864 90.9169 26.5576C91.0061 26.4868 91.1845 26.3375 91.3393 26.1646C91.4049 26.0913 91.5282 26.1384 91.523 26.238L91.4784 27.1967C91.4757 27.2544 91.5177 27.3015 91.5754 27.3068C91.7774 27.3225 92.2418 27.3277 92.5461 27.0841V27.0867Z" fill="#FFBD9C" fill-opacity="0.501961"/>
<path d="M88.0547 23.5712C88.8182 24.0087 90.1037 23.5765 90.429 23.7677C90.7517 23.9563 90.8724 24.75 91.0193 24.7762C91.1767 24.8024 91.1399 24.5641 91.1216 24.2733C91.1006 23.9851 91.056 23.6551 91.5649 23.7494C91.7906 23.7887 91.9244 24.4436 92.087 24.957C92.2103 25.3473 92.31 25.5254 92.3809 25.604C92.4281 25.6564 92.5147 25.6459 92.5488 25.5831C93.3725 24.1502 93.2073 20.9831 91.0193 21.004C90.9957 21.004 90.9747 20.9962 90.9563 20.9831C90.833 20.8861 90.2926 20.5011 89.6052 20.5744C89.6 20.5744 89.5947 20.5744 89.5895 20.577C88.9677 20.6425 87.1208 21.2607 86.8007 21.8764C86.4229 22.602 87.656 23.3459 88.0495 23.5738L88.0547 23.5712Z" fill="#153350"/>
<path d="M93.9759 20.1684L93.0499 20.6635L93.5116 19.4585L93.9759 20.1684Z" fill="#FF0000"/>
<path d="M96.8539 18.6307C96.8539 19.7099 95.9777 20.5875 94.8942 20.5875C93.8107 20.5875 92.9344 19.7126 92.9344 18.6307C92.9344 17.5488 93.8107 16.6738 94.8942 16.6738C95.975 16.6738 96.8539 17.5488 96.8539 18.6307Z" fill="#FF0000"/>
<path d="M95.9803 18.8297C96.0013 18.7485 96.0144 18.6647 96.0144 18.5756C96.0144 18.4944 96.0039 18.4158 95.9855 18.3398L95.8045 18.3608C95.7835 18.2691 95.7468 18.1827 95.6996 18.1041L95.8439 17.9888C95.8019 17.9155 95.7494 17.8474 95.6865 17.7871C95.6629 17.7635 95.6366 17.7399 95.6104 17.719C95.6025 17.7138 95.5973 17.7085 95.5894 17.7033C95.5605 17.6797 95.5291 17.6587 95.4976 17.6404L95.3821 17.7819C95.3743 17.7766 95.3638 17.7714 95.3559 17.7661C95.3454 17.7609 95.3349 17.7557 95.3244 17.7478C95.2615 17.7164 95.1959 17.6902 95.1277 17.6718L95.1486 17.4911C95.0673 17.4701 94.9834 17.457 94.8942 17.457C94.8128 17.457 94.7341 17.4675 94.6581 17.4858L94.679 17.6666C94.5872 17.6876 94.5006 17.7242 94.4193 17.7714L94.3065 17.6299C94.2331 17.6718 94.1648 17.7242 94.1045 17.7871C94.0468 17.8447 93.9969 17.9076 93.9576 17.9757L94.0993 18.0884C94.0494 18.1669 94.0127 18.2534 93.9891 18.3451L93.808 18.3241C93.7871 18.4053 93.7739 18.4892 93.7739 18.5782C93.7739 18.6594 93.7844 18.738 93.8028 18.814L93.9812 18.793C94.0022 18.8847 94.0389 18.9712 94.0861 19.0524L93.9445 19.165C93.9864 19.2384 94.0389 19.3065 94.1019 19.3667C94.1596 19.4243 94.2226 19.4741 94.2908 19.5134L94.4036 19.372C94.4823 19.4217 94.5689 19.4584 94.6607 19.482L94.6397 19.6601C94.721 19.6811 94.805 19.6942 94.8942 19.6942C94.9755 19.6942 95.0542 19.6837 95.1303 19.6653L95.1093 19.4872C95.2011 19.4663 95.2903 19.4296 95.369 19.3824L95.4818 19.5239C95.5553 19.482 95.6235 19.4296 95.6838 19.3667C95.7416 19.3091 95.7914 19.2462 95.8308 19.1781L95.6891 19.0655C95.7389 18.9869 95.7757 18.9004 95.7993 18.8087L95.9803 18.8297ZM95.4687 18.5939C95.4582 18.8952 95.2142 19.1388 94.9125 19.1493C94.5794 19.1598 94.3065 18.8873 94.3196 18.5573C94.3301 18.256 94.5741 18.0124 94.8758 18.0019C95.209 17.9914 95.4818 18.2639 95.4687 18.5939Z" fill="white" fill-opacity="0.501961"/>
</svg>
