<svg width="59" height="65" viewBox="0 0 59 65" fill="none" xmlns="http://www.w3.org/2000/svg">
<g clip-path="url(#clip0_449_1120)">
<path d="M0.0239426 5.12609L7.2326 25.7223L7.73553 27.1352C7.80738 27.3268 7.97502 27.4466 8.19056 27.4466H42.773C43.1082 27.4466 43.3238 27.1352 43.228 26.8239L35.5164 4.81476C35.4446 4.62316 35.2769 4.50342 35.0614 4.50342H0.478974C0.143688 4.50342 -0.0718535 4.81476 0.0239426 5.12609Z" fill="#5D678B"/>
<path d="M9.29222 27.4466H43.8746C44.2099 27.4466 44.4254 27.1352 44.3296 26.8239L36.6181 4.81476C36.5462 4.62316 36.3786 4.50342 36.163 4.50342H1.58063C1.24534 4.50342 1.0298 4.81476 1.1256 5.12609L8.83718 27.1352C8.90903 27.3268 9.07667 27.4466 9.29222 27.4466Z" fill="#7C89B9"/>
<path d="M42.7969 25.1955L35.8756 5.38965H2.15541L9.07668 25.1955H42.7969Z" fill="#F2F5FD"/>
<path d="M7.2326 25.7222L7.73553 27.1352C7.80738 27.3268 7.97503 27.4465 8.19057 27.4465H15.9261V25.6982H7.25655L7.2326 25.7222Z" fill="#5D678B"/>
<path d="M57.1184 27.4465H15.2555C15.1358 27.4465 15.04 27.3507 15.04 27.231V25.9377C15.04 25.818 15.1358 25.7222 15.2555 25.7222H56.3281C56.8789 25.7222 57.334 26.1772 57.334 26.728V27.2549C57.334 27.3747 57.2382 27.4704 57.1184 27.4704V27.4465Z" fill="#7C89B9"/>
<path d="M52.2807 25.5548V25.6985H52.9992V25.5548C52.9992 25.5069 53.0471 25.459 53.095 25.459H52.3765C52.3286 25.459 52.2807 25.5069 52.2807 25.5548Z" fill="#5D678B"/>
<path d="M52.9992 25.5548V25.6985H54.3643V25.5548C54.3643 25.5069 54.3164 25.459 54.2685 25.459H53.071C53.0231 25.459 52.9752 25.5069 52.9752 25.5548H52.9992Z" fill="#B0B8D5"/>
<path d="M49.9577 25.5548V25.6985H50.6761V25.5548C50.6761 25.5069 50.724 25.459 50.7719 25.459H50.0535C50.0056 25.459 49.9577 25.5069 49.9577 25.5548Z" fill="#5D678B"/>
<path d="M50.6761 25.5548V25.6985H52.0412V25.5548C52.0412 25.5069 51.9933 25.459 51.9454 25.459H50.748C50.7001 25.459 50.6522 25.5069 50.6522 25.5548H50.6761Z" fill="#B0B8D5"/>
<path d="M47.6346 25.5548V25.6985H48.3531V25.5548C48.3531 25.5069 48.401 25.459 48.4489 25.459H47.7304C47.6825 25.459 47.6346 25.5069 47.6346 25.5548Z" fill="#5D678B"/>
<path d="M48.3531 25.5548V25.6985H49.7182V25.5548C49.7182 25.5069 49.6703 25.459 49.6224 25.459H48.4249C48.377 25.459 48.3291 25.5069 48.3291 25.5548H48.3531Z" fill="#B0B8D5"/>
<path d="M45.3116 25.5548V25.6985H46.03V25.5548C46.03 25.5069 46.0779 25.459 46.1258 25.459H45.4073C45.3594 25.459 45.3116 25.5069 45.3116 25.5548Z" fill="#5D678B"/>
<path d="M46.03 25.5548V25.6985H47.3951V25.5548C47.3951 25.5069 47.3472 25.459 47.2993 25.459H46.1019C46.054 25.459 46.0061 25.5069 46.0061 25.5548H46.03Z" fill="#B0B8D5"/>
<path d="M24.5477 25.4829H45.0002C45.0481 25.4829 45.096 25.5308 45.096 25.5787V25.7224H24.452V25.5787C24.452 25.5308 24.4998 25.4829 24.5477 25.4829Z" fill="#B0B8D5"/>
<path d="M24.452 25.5548V25.6985H25.1704V25.5548C25.1704 25.5069 25.2183 25.459 25.2662 25.459H24.5477C24.4998 25.459 24.452 25.5069 24.452 25.5548Z" fill="#5D678B"/>
<path d="M22.1528 25.5548V25.6985H22.8713V25.5548C22.8713 25.5069 22.9192 25.459 22.9671 25.459H22.2486C22.2007 25.459 22.1528 25.5069 22.1528 25.5548Z" fill="#5D678B"/>
<path d="M22.8713 25.5548V25.6985H24.2364V25.5548C24.2364 25.5069 24.1885 25.459 24.1406 25.459H22.9432C22.8953 25.459 22.8474 25.5069 22.8474 25.5548H22.8713Z" fill="#B0B8D5"/>
<path d="M19.8298 25.5548V25.6985H20.5483V25.5548C20.5483 25.5069 20.5962 25.459 20.6441 25.459H19.9256C19.8777 25.459 19.8298 25.5069 19.8298 25.5548Z" fill="#5D678B"/>
<path d="M20.5483 25.5548V25.6985H21.9134V25.5548C21.9134 25.5069 21.8655 25.459 21.8176 25.459H20.6201C20.5722 25.459 20.5243 25.5069 20.5243 25.5548H20.5483Z" fill="#B0B8D5"/>
<path d="M17.5067 25.5548V25.6985H18.2252V25.5548C18.2252 25.5069 18.2731 25.459 18.321 25.459H17.6025C17.5546 25.459 17.5067 25.5069 17.5067 25.5548Z" fill="#5D678B"/>
<path d="M18.2252 25.5548V25.6985H19.5903V25.5548C19.5903 25.5069 19.5424 25.459 19.4945 25.459H18.297C18.2491 25.459 18.2012 25.5069 18.2012 25.5548H18.2252Z" fill="#B0B8D5"/>
<path d="M15.1837 25.5548V25.6985H15.9021V25.5548C15.9021 25.5069 15.95 25.459 15.9979 25.459H15.2795C15.2316 25.459 15.1837 25.5069 15.1837 25.5548Z" fill="#5D678B"/>
<path d="M15.9022 25.5548V25.6985H17.2672V25.5548C17.2672 25.5069 17.2193 25.459 17.1715 25.459H15.974C15.9261 25.459 15.8782 25.5069 15.8782 25.5548H15.9022Z" fill="#B0B8D5"/>
<path d="M24.3083 20.5495C24.2125 20.5495 24.1167 20.4776 24.0688 20.4298C23.973 20.3579 24.0448 20.3579 24.0209 20.1903C23.9969 20.0466 23.9251 19.9987 23.7335 19.855C23.5658 19.7113 23.5179 19.5197 23.4221 19.2802C23.3263 19.0407 23.1587 18.8491 22.9911 18.6336C22.7995 18.3941 22.9671 18.1785 22.9671 17.963C22.8953 17.3643 22.2007 16.8853 22.1528 16.6219C22.1289 16.3824 22.0331 16.095 21.8894 16.095H21.8655C21.8176 16.1189 21.7936 16.1189 21.7697 16.1189C21.7218 16.1189 21.6978 16.071 21.5781 15.9034C21.5302 15.8555 21.5062 15.8315 21.4583 15.8315C21.3865 15.8315 21.3146 15.8794 21.2428 15.9513C21.1709 15.9992 21.0991 16.071 21.0272 16.071C21.0033 16.071 20.9793 16.071 20.9554 16.0471C20.9075 16.0231 20.8835 16.0231 20.8356 16.0231C20.7877 16.0231 20.7159 16.0471 20.668 16.071C20.6201 16.095 20.5722 16.1189 20.5243 16.1189C20.4764 16.1189 20.4285 16.095 20.4046 16.0471C20.2369 15.8555 19.9974 15.9513 19.9256 15.7357C19.8537 15.5442 19.6621 15.3765 19.5663 15.3286C19.4705 15.2807 19.4227 15.0652 19.3508 14.7299C19.279 14.3706 19.1832 14.3706 19.1592 14.2509C19.0634 13.4845 19.3987 13.4366 19.4705 13.3169C19.5184 13.1971 19.4705 13.1014 19.5184 12.8619C19.5663 12.7182 19.6382 12.6703 19.734 12.6703C19.7819 12.6703 19.8537 12.6703 19.9256 12.6942C19.9495 12.6942 19.9735 12.6942 19.9974 12.6942C20.213 12.6942 20.5722 12.4787 20.8596 12.4547C20.8835 12.4547 20.9075 12.4547 20.9075 12.4547C21.147 12.4547 21.0272 12.6703 21.0991 12.814C21.1709 12.9577 21.7457 13.1971 21.9612 13.1971C21.9852 13.1971 21.9852 13.1971 22.0091 13.1971C22.1768 13.1492 21.9373 13.1014 22.0331 12.9577C22.057 12.9337 22.081 12.9337 22.1528 12.9337C22.2726 12.9337 22.4402 12.9816 22.6079 13.0056C22.7755 13.0535 22.9671 13.0774 23.0869 13.0774C23.1348 13.0774 23.1826 13.0774 23.2066 13.0535C23.3503 12.9337 23.2545 12.4787 23.1587 12.4787H23.1347C23.0869 12.5266 22.8953 12.5266 22.7276 12.5266C22.6079 12.5266 22.4881 12.5266 22.4402 12.5266C22.3444 12.5266 22.3205 12.3829 22.2486 12.2152C22.2007 12.0955 22.1289 12.0236 22.057 12.0236C22.0091 12.0236 21.9852 12.0476 21.9612 12.0715C21.8655 12.1673 22.3444 12.5026 22.2726 12.5266C22.2486 12.5266 22.2007 12.4787 22.1528 12.4308C22.1049 12.3829 22.057 12.335 22.0331 12.335C22.0331 12.335 22.0331 12.335 22.0091 12.335C21.9612 12.3589 22.081 12.5026 22.0331 12.5026C22.0091 12.5026 21.9852 12.5026 21.9612 12.4787C21.7457 12.3589 21.7218 11.9278 21.4823 11.856C21.2667 11.7842 20.9554 11.4728 20.8835 11.4728C20.8835 11.4728 20.8596 11.4728 20.8596 11.4968C20.8356 11.6165 21.5541 12.0715 21.5541 12.0715L21.5302 12.1194C21.5302 12.1194 21.4823 12.0955 21.4344 12.0476H21.4104C21.3865 12.0476 21.4344 12.1194 21.4823 12.2152C21.5062 12.311 21.3865 12.3589 21.3865 12.3589L21.3146 12.335C21.3146 12.335 21.4104 12.311 21.3865 12.2152C21.3625 12.1194 20.7398 11.6884 20.5722 11.6405C20.5483 11.6405 20.5483 11.6405 20.5243 11.6405C20.4285 11.6405 20.4525 11.7602 20.3567 11.7842H20.3327C20.3088 11.7842 20.2848 11.7842 20.2609 11.7602C20.2369 11.7602 20.213 11.7363 20.189 11.7363C20.1651 11.7363 20.1651 11.7363 20.1411 11.7602C20.0693 11.8321 20.189 11.9757 20.0214 12.0715C19.8537 12.1434 20.0693 12.3829 19.8537 12.4787C19.7819 12.5266 19.71 12.5266 19.6382 12.5266C19.5184 12.5266 19.3987 12.4787 19.3269 12.4547C19.2071 12.4068 19.0874 11.9518 19.1113 11.7602C19.1113 11.7123 19.1353 11.7123 19.1832 11.7123C19.2311 11.7123 19.3029 11.7363 19.3748 11.7602C19.4466 11.7842 19.5184 11.8081 19.5903 11.8081C19.6621 11.8081 19.71 11.7842 19.71 11.6884C19.734 11.401 19.3748 11.3052 19.3269 11.2333C19.3029 11.1615 19.3269 11.0896 19.4945 11.0896H19.5184H19.5424C19.734 11.0896 19.8537 10.9938 19.9016 10.7543C19.9256 10.5867 20.0693 10.5628 20.1651 10.5628C20.189 10.5628 20.213 10.5628 20.213 10.5628C20.213 10.5628 20.0693 10.3712 20.0932 10.2275C20.0932 10.1796 20.1172 10.1556 20.1411 10.1556C20.189 10.1556 20.2369 10.2275 20.2848 10.3472C20.3088 10.4909 20.4285 10.5149 20.5483 10.5149C20.6201 10.5149 20.6919 10.5149 20.7877 10.4909C21.0033 10.467 21.2667 10.443 21.2188 10.1077C21.1949 9.96403 21.3146 9.94008 21.4344 9.94008C21.4823 9.94008 21.5062 9.94008 21.5541 9.94008C21.602 9.94008 21.626 9.94008 21.6739 9.94008C21.7457 9.94008 21.7936 9.91613 21.7697 9.84428C21.7218 9.77244 21.626 9.74849 21.5302 9.74849C21.5062 9.74849 21.4583 9.74849 21.4344 9.74849C21.4104 9.74849 21.3625 9.74849 21.3386 9.74849C21.2188 9.74849 21.123 9.72454 21.0751 9.60479C21.0033 9.31741 21.3625 9.31741 21.2667 9.19766C21.2428 9.17371 21.1949 9.14976 21.1709 9.14976C21.0751 9.14976 20.9793 9.22161 20.9554 9.29346C20.9314 9.4132 20.7398 9.38925 20.7398 9.5569C20.7398 9.72454 20.9314 9.72454 20.9793 9.82033C21.0033 9.94008 20.8835 9.84428 20.8356 9.94008C20.7877 10.0359 20.9075 10.0598 20.8596 10.1796C20.8117 10.2993 20.6441 10.2035 20.5722 10.2993C20.5483 10.3472 20.5243 10.3712 20.4764 10.3712C20.4525 10.3712 20.4285 10.3472 20.4285 10.3233C20.3806 10.2275 20.5243 10.2514 20.5243 10.1796C20.5243 10.1077 20.4525 10.2035 20.4046 10.0598C20.3567 9.96403 20.2848 9.86823 20.2369 9.86823C20.213 9.86823 20.213 9.86823 20.189 9.89218C20.1651 9.94008 20.0932 9.98798 20.0214 9.98798C19.9495 9.98798 19.8777 9.94008 19.7819 9.84428C19.6621 9.70059 19.6621 9.53295 19.7819 9.4611C20.0693 9.29346 20.3567 8.98212 20.3327 8.91027C20.3088 8.88632 20.2848 8.88632 20.2609 8.88632C20.2369 8.88632 20.2369 8.88632 20.213 8.88632C20.189 8.88632 20.189 8.88632 20.1651 8.88632C20.1651 8.88632 20.1411 8.88632 20.1411 8.86237C20.5243 8.57499 21.0033 8.47919 21.2907 8.47919C21.3865 8.47919 21.4344 8.47919 21.4823 8.50314C21.626 8.55104 21.4823 8.64683 21.5541 8.64683C22.4163 8.64683 22.6079 8.91027 22.56 9.00607C22.536 9.03002 22.5121 9.03002 22.4642 9.03002C22.4163 9.03002 22.3684 9.03002 22.3205 9.00607C22.2726 9.00607 22.2247 8.98212 22.1768 8.98212C22.1289 8.98212 22.081 8.98212 22.081 9.00607C22.057 9.07792 22.2965 9.29346 22.3923 9.29346C22.4163 9.29346 22.4163 9.29346 22.4163 9.26951C22.4402 9.17371 22.2726 9.14976 22.2726 9.12581C22.2726 9.12581 22.2726 9.12581 22.2965 9.12581C22.3205 9.12581 22.3684 9.14976 22.4402 9.14976C22.4881 9.17371 22.56 9.17371 22.6079 9.17371H22.6318C22.6797 9.14976 22.5839 9.03002 22.6079 9.00607C22.6558 8.95817 22.9192 9.00607 22.8953 8.93422C22.8953 8.86237 22.7276 8.76658 22.7516 8.69473C22.7516 8.69473 22.7516 8.67078 22.7755 8.67078C22.8474 8.67078 22.9911 8.76658 22.9911 8.81448C22.9911 8.83843 23.039 8.86237 23.1108 8.86237C23.1826 8.86237 23.2305 8.83843 23.2784 8.81448C23.3503 8.74263 24.2364 8.74263 24.2364 8.67078C24.2364 8.59893 24.0209 8.55104 24.0688 8.50314C24.0688 8.50314 24.0688 8.50314 24.0927 8.50314C24.1646 8.50314 24.3561 8.57499 24.5477 8.62288C24.7393 8.69473 24.9309 8.74263 24.9788 8.74263H25.0028C25.0267 8.69473 24.8112 8.50314 24.8112 8.35944C24.8112 8.26365 24.9549 8.21575 25.0746 8.21575C25.1225 8.21575 25.1704 8.21575 25.1944 8.2397C25.2662 8.31155 25.2423 8.47919 25.3381 8.67078C25.4339 8.86237 25.2183 8.91027 25.2662 8.98212C25.2662 8.98212 25.2902 9.00607 25.3141 9.00607C25.386 9.00607 25.5057 8.88632 25.5057 8.76658C25.4818 8.62288 25.3381 8.40734 25.3381 8.31155C25.3381 8.2876 25.3381 8.2876 25.362 8.2876C25.386 8.2876 25.4099 8.31155 25.4339 8.31155C25.4578 8.3355 25.4818 8.3355 25.5057 8.3355H25.5297C25.5297 8.3355 25.5297 8.3355 25.5536 8.3355C25.6015 8.3355 25.7212 8.35944 25.841 8.40734C25.9607 8.43129 26.0805 8.47919 26.1284 8.47919C26.1523 8.47919 26.1523 8.47919 26.1523 8.47919C26.2002 8.43129 25.817 8.2876 25.817 8.2397C25.817 8.21575 25.8889 8.21575 25.9847 8.21575C26.0086 8.21575 26.0326 8.21575 26.0565 8.21575C26.0805 8.21575 26.1044 8.21575 26.1284 8.21575C26.2481 8.21575 26.32 8.21575 26.32 8.1918C26.296 8.1439 26.1284 8.1439 26.1284 8.09601C26.1284 7.92836 27.254 7.95231 27.3977 7.92836C27.5414 7.90441 27.3019 7.83257 27.4695 7.80862C27.5414 7.80862 27.6132 7.78467 27.6851 7.78467C28.0682 7.78467 28.5951 7.88046 28.6191 7.95231C28.643 8.04811 28.2119 8.1439 28.1401 8.1918C28.0922 8.21575 28.1161 8.26365 28.1401 8.26365C28.1401 8.26365 28.1401 8.26365 28.164 8.26365C28.3317 8.21575 28.5233 8.21575 28.6909 8.21575C28.8825 8.21575 29.0741 8.2397 29.2418 8.26365C29.3854 8.2876 29.5052 8.31155 29.5291 8.31155C29.577 8.26365 29.6728 8.2397 29.7686 8.2397C29.8644 8.2397 29.9842 8.26365 30.0321 8.2876C30.1518 8.3355 30.1279 8.55104 30.2955 8.57499C30.3195 8.57499 30.3195 8.57499 30.3434 8.57499C30.3913 8.57499 30.3913 8.55104 30.3913 8.52709C30.3913 8.50314 30.3913 8.47919 30.4392 8.47919C30.4871 8.47919 30.535 8.47919 30.6068 8.47919C30.7745 8.47919 30.99 8.47919 30.99 8.43129C30.99 8.40734 31.1098 8.38339 31.2535 8.38339C31.3972 8.38339 31.5888 8.38339 31.7324 8.38339C31.9719 8.38339 31.9959 8.52709 32.1156 8.55104C32.1635 8.55104 32.2354 8.55104 32.2833 8.55104C32.5228 8.55104 32.6425 8.57499 32.7144 8.57499C32.8102 8.76658 32.882 8.93422 32.9778 9.07792C32.882 9.12581 32.8102 9.17371 32.7144 9.22161C32.6665 9.4611 32.6425 9.70059 32.6186 9.91613C32.5946 9.91613 32.5946 9.91613 32.5707 9.91613C32.5228 9.91613 32.4749 9.89218 32.4509 9.86823C32.427 9.82033 32.3072 9.79639 32.1396 9.79639C31.9959 9.79639 31.8522 9.82033 31.7085 9.86823C31.3972 9.98798 31.1577 10.2514 31.2295 10.3712C31.3014 10.467 31.6127 10.5149 31.7564 10.5149C31.7803 10.5149 31.7803 10.5149 31.8043 10.5149C31.8043 10.467 31.8282 10.4191 31.8522 10.4191C31.9001 10.4191 31.948 10.5149 32.0198 10.7064C32.1396 10.9938 32.2593 11.0896 32.0917 11.0896C31.948 11.0896 31.8043 10.6825 31.8043 10.6825C31.8761 11.1615 31.6367 11.4728 31.5648 11.6405C31.5409 11.6884 31.493 11.7123 31.4451 11.7123C31.4211 11.7123 31.3972 11.7123 31.3732 11.7123C31.3493 11.7123 31.3253 11.7123 31.3014 11.7123C31.2535 11.7123 31.2056 11.7363 31.2056 11.8081C31.2295 12.0236 31.0619 11.88 31.0619 12.0476C31.0619 12.2152 31.3253 12.3829 31.3732 12.5026C31.3972 12.6224 31.3014 12.6942 31.2056 12.6942C31.1816 12.6942 31.1577 12.6942 31.1577 12.6942C31.0379 12.6463 31.1098 12.6224 31.1337 12.5026C31.1577 12.4068 30.9661 12.335 30.9182 12.2871C30.8703 12.2392 30.9661 12.2392 30.8942 12.1434C30.8703 12.1194 30.8463 12.1194 30.8224 12.1194C30.7984 12.1194 30.7745 12.1434 30.7266 12.1434C30.7026 12.1673 30.6547 12.1673 30.6308 12.1673C30.6068 12.1673 30.6068 12.1673 30.5829 12.1673C30.4871 12.1434 30.5829 11.9757 30.511 11.9757C30.511 11.9757 30.4871 11.9757 30.4632 11.9997C30.2955 12.0715 30.2955 12.2631 30.3674 12.335C30.3913 12.3589 30.4153 12.3589 30.4392 12.3589C30.4632 12.3589 30.4871 12.3589 30.511 12.3589C30.535 12.3589 30.5589 12.3589 30.5829 12.3589C30.6068 12.3589 30.6308 12.3589 30.6547 12.3829C30.7026 12.4787 30.3913 12.5026 30.4871 12.6463C30.6068 12.7661 30.8224 12.9337 30.8463 13.0295C30.8703 13.1253 30.7745 13.0774 30.7984 13.1253C30.8224 13.1732 30.9182 13.1732 30.9182 13.2211C31.0858 14.1551 30.2237 14.203 30.2476 14.2749C30.3195 14.4425 30.3434 14.6101 30.2716 14.6101C30.2476 14.6101 30.2476 14.6101 30.2237 14.5862C30.08 14.5143 30.1997 14.4664 30.1758 14.3228C30.1518 14.2509 30.1039 14.1791 30.0321 14.1791C29.9842 14.1791 29.9363 14.227 29.9123 14.3467C29.8644 14.6101 30.2237 14.5622 30.3674 15.0173C30.5111 15.4484 30.3434 15.3526 30.3434 15.4244C30.3434 15.4963 30.3195 15.616 30.2237 15.616H30.1997C30.08 15.592 30.1997 15.4484 30.056 15.4244C29.9123 15.4005 29.9602 15.2568 29.8165 15.2568C29.7686 15.2568 29.7207 15.2328 29.6968 15.1849C29.6728 15.161 29.6728 15.1131 29.6489 15.1131C29.601 15.5202 29.8884 15.7597 29.9363 15.7836C30.1997 15.9273 30.2237 16.1429 30.2955 16.2866C30.3674 16.4063 30.3674 16.4303 30.3195 16.4303H30.2955C29.8884 16.2387 29.8884 15.8555 29.7207 15.7836C29.5531 15.6878 29.5531 15.4723 29.4812 15.3047C29.4333 15.137 29.5291 15.2568 29.5291 15.137C29.5291 15.0173 29.6968 15.0652 29.6489 14.9454C29.6489 14.9215 29.6249 14.9215 29.601 14.9215C29.577 14.9215 29.5291 14.9454 29.5052 14.9933C29.4573 15.0173 29.4333 15.0652 29.4094 15.0652C29.3615 15.0412 29.3136 14.8496 29.1939 14.7299C29.1699 14.8496 29.122 14.8975 29.0741 14.8975C29.0023 14.8975 28.9544 14.8017 28.9304 14.7059C28.9065 14.5143 28.7388 14.4425 28.667 14.3228C28.5951 14.2509 28.5472 14.1312 28.4993 14.1312C28.4754 14.1312 28.4754 14.1312 28.4514 14.1551C28.4514 14.1791 28.4275 14.1791 28.4035 14.1791C28.3796 14.1791 28.3556 14.1791 28.3317 14.1791C28.3077 14.1791 28.2838 14.1791 28.2598 14.1791C28.2119 14.1791 28.164 14.203 28.164 14.2749C28.1401 14.4904 27.9006 14.8017 27.7809 14.8496C27.9246 15.2807 27.9006 15.4005 27.9006 15.4963C27.9006 15.592 28.0443 15.4963 28.164 15.6639C28.2838 15.8076 28.2119 15.9513 28.1401 15.9513H28.1161C28.0204 15.9034 27.9725 15.616 27.9485 15.616C27.9246 15.6639 27.9006 15.6878 27.8527 15.6878C27.8048 15.6878 27.733 15.592 27.5174 15.2807C27.2061 14.8017 27.1103 14.2749 26.9905 14.2749H26.9666C26.9426 14.2988 26.9187 14.2988 26.8947 14.2988C26.7511 14.2988 26.5595 14.0354 26.4397 13.8917C26.3679 13.7959 26.2481 13.7959 26.1284 13.7959C26.0805 13.7959 26.0326 13.7959 25.9847 13.7959C25.9368 13.7959 25.8889 13.7959 25.817 13.7959C25.7691 13.7959 25.7212 13.7959 25.6733 13.7959C25.4578 13.7719 25.4339 13.6043 25.386 13.6043H25.362C25.3141 13.6282 25.2662 13.6522 25.2423 13.6522C25.0507 13.6522 24.883 13.4127 24.7393 13.269C24.6914 13.2211 24.6435 13.1971 24.6196 13.1971C24.5477 13.1971 24.5477 13.3648 24.7393 13.5324C24.9309 13.724 25.1465 13.8917 25.2423 13.8917C25.2662 13.8917 25.2662 13.8917 25.2902 13.8677C25.3381 13.8198 25.362 13.724 25.386 13.724C25.4099 13.724 25.4339 13.748 25.4578 13.7959C25.5536 13.9635 25.817 13.9875 25.817 14.1312C25.8649 14.6101 25.4818 14.6341 25.4339 14.682C25.386 14.7299 25.4818 14.8017 25.4099 14.8496C25.362 14.8975 25.0746 15.161 24.883 15.161H24.8591C24.6675 15.137 24.6914 14.9694 24.5238 14.682C24.3561 14.3946 24.0927 14.227 24.0448 14.0833C23.9969 13.9635 23.6377 13.4606 23.494 13.4606C23.47 13.4606 23.47 13.4606 23.47 13.4845C23.3742 13.5803 23.8532 14.5143 24.3322 14.8257C24.7872 15.1131 24.6914 15.3047 24.9549 15.4484C25.0028 15.4723 25.0267 15.4723 25.0746 15.4723C25.1704 15.4723 25.2423 15.4244 25.3141 15.3765C25.386 15.3286 25.4339 15.2807 25.4818 15.2807C25.5057 15.2807 25.5057 15.2807 25.5057 15.3047C25.7691 16.1429 25.0746 16.7416 25.0507 17.1248C25.0028 17.508 25.4339 17.8912 25.5297 18.2025C25.6254 18.5138 25.4578 18.4899 25.3381 18.6575C25.2183 18.8252 25.4339 19.1844 25.4339 19.3041C25.4339 19.4478 25.3381 19.3999 25.2902 19.4957C25.2423 19.5915 25.3381 19.7831 25.2902 19.9987C25.1704 20.5016 24.8591 20.31 24.6914 20.4537C24.6196 20.5016 24.5717 20.5255 24.5238 20.5255L24.3083 20.5495ZM24.1646 11.3291C24.0448 11.3291 23.8053 11.4489 23.7814 11.5686C23.7574 11.7123 23.949 11.7842 24.0688 11.9039C24.1885 11.9997 24.2125 12.0476 24.1646 12.1673C24.1167 12.2871 24.3801 12.5266 24.5477 12.5266C24.5477 12.5266 24.5477 12.5266 24.5717 12.5266C24.7633 12.5026 24.5956 12.2392 24.5238 12.1673C24.4519 12.0955 24.4519 11.9518 24.404 11.856C24.3561 11.7602 24.1885 11.7363 24.1406 11.6165C24.0688 11.4968 24.404 11.4968 24.2364 11.3531C24.2125 11.3531 24.2125 11.3291 24.1885 11.3291H24.1646ZM22.7995 11.856C22.9192 11.856 23.0869 11.9518 23.1347 11.9757C23.1587 11.9997 23.2066 11.9997 23.2545 11.9997C23.3503 11.9997 23.47 11.9518 23.4461 11.8321C23.3982 11.6644 22.9671 11.5686 22.9432 11.5207C22.9192 11.4728 23.015 11.401 22.9671 11.3291C22.9432 11.3052 22.9192 11.3052 22.8953 11.3052C22.8234 11.3052 22.7276 11.3531 22.7516 11.401C22.7755 11.4489 22.8713 11.4489 22.8953 11.4968C22.8953 11.5447 22.7995 11.5926 22.7276 11.5926C22.7037 11.5926 22.6558 11.5926 22.6558 11.5686C22.6079 11.4968 22.536 11.377 22.4402 11.377H22.4163C22.2965 11.401 22.1289 11.6644 22.2726 11.8081C22.3684 11.88 22.4642 11.9757 22.56 11.9757C22.6079 11.9757 22.6558 11.9518 22.7037 11.9039C22.7516 11.856 22.7995 11.856 22.8474 11.856H22.7995Z" fill="#CED4E8"/>
<path d="M30.5829 17.2683C30.4632 17.2683 29.8884 16.6217 29.8405 16.502C29.7926 16.3822 29.3136 16.0469 29.3615 15.999C29.3854 15.9751 29.4094 15.9751 29.4333 15.9751C29.5291 15.9751 29.6968 16.0948 29.8405 16.2385C29.9842 16.3583 30.1279 16.502 30.1758 16.502C30.1997 16.502 30.1997 16.502 30.2237 16.502C30.2716 16.502 30.2955 16.5259 30.2955 16.5259C30.3195 16.5499 30.3195 16.5499 30.2955 16.5499C30.2955 16.5499 30.2955 16.5499 30.2716 16.5499H30.2476C30.1997 16.5499 30.2476 16.6457 30.2955 16.7175C30.3434 16.8133 30.559 16.8133 30.5829 16.9331C30.5829 17.0289 30.7266 17.2444 30.6068 17.2923L30.5829 17.2683Z" fill="#CED4E8"/>
<path d="M31.3732 17.0769C31.2535 17.0769 31.014 16.9811 30.9182 16.9092C30.7984 16.8374 30.6308 16.4063 30.6787 16.4063C30.7026 16.4063 30.7505 16.4302 30.7745 16.4302C30.99 16.4302 30.9661 16.1189 31.014 16.1189C31.0619 16.1189 31.0619 15.9034 31.1577 15.8555H31.1816C31.2774 15.8555 31.3972 16.071 31.3253 16.1908C31.2535 16.3105 31.469 16.6458 31.4451 16.7176C31.4211 16.7895 31.493 16.9571 31.4451 17.0529C31.4211 17.0769 31.3972 17.0769 31.3732 17.0769Z" fill="#CED4E8"/>
<path d="M31.493 17.6034C31.3014 17.6034 30.8224 17.4837 30.7026 17.4358C30.5589 17.3639 30.6547 17.316 30.6787 17.2681C30.6787 17.2442 30.7266 17.2202 30.7745 17.2202C30.9182 17.2202 31.2056 17.34 31.2295 17.3639C31.2774 17.4118 31.6127 17.5076 31.5888 17.5795C31.5888 17.6034 31.5648 17.6034 31.5169 17.6034H31.493Z" fill="#CED4E8"/>
<path d="M33.8879 17.6754C33.84 17.6514 33.7681 17.6035 33.7442 17.5796C33.7202 17.5796 33.7202 17.5556 33.6963 17.5556C33.6723 17.5556 33.6484 17.5556 33.6244 17.5556C33.6005 17.5556 33.5765 17.5556 33.5765 17.5556C33.5526 17.5556 33.5286 17.5556 33.5286 17.5317C33.5047 17.4838 33.5526 17.5077 33.5526 17.388C33.5286 17.2682 33.1694 17.0287 33.0496 17.0287C32.9299 17.0287 32.8581 16.9569 32.8341 16.909C32.8341 16.8611 32.9539 16.909 32.9299 16.8611C32.906 16.8132 32.5946 16.7414 32.6425 16.6695C32.6665 16.6216 32.7144 16.5977 32.7383 16.5977C32.8581 16.5977 33.0257 16.8611 33.0736 16.909C33.0975 16.9329 33.0975 16.9329 33.0975 16.9329C33.1454 16.9329 33.1694 16.8611 33.2173 16.7892C33.2173 16.7892 33.2412 16.7653 33.2652 16.7653C33.3131 16.7653 33.3849 16.7892 33.4807 16.8132C33.6244 17.1006 33.7681 17.364 33.9118 17.6514L33.8879 17.6754Z" fill="#CED4E8"/>
<path d="M32.0677 17.2444C32.0438 17.2444 31.9719 17.1726 31.924 17.1007C31.8761 17.0289 31.8282 16.957 31.8043 16.957C31.7564 16.957 31.924 17.2684 31.8283 17.2684C31.7325 17.2444 31.6606 16.8852 31.6606 16.8852C31.6606 16.8852 31.5888 16.5499 31.6367 16.4781C31.6367 16.4541 31.6606 16.4541 31.7085 16.4541C31.8282 16.4541 32.0438 16.5499 32.0677 16.5978C32.0677 16.6217 32.0438 16.6217 32.0198 16.6217C31.9959 16.6217 31.948 16.6217 31.924 16.6217C31.8761 16.6217 31.8522 16.6217 31.8043 16.6217C31.7804 16.6217 31.7325 16.6217 31.7325 16.6217C31.6606 16.6457 31.7804 16.7894 31.8043 16.7894C31.8282 16.7894 31.8522 16.7654 31.8761 16.7415C31.9001 16.7175 31.924 16.6936 31.948 16.6936C31.948 16.6936 31.9719 16.6936 31.9719 16.7175C31.9959 16.7894 31.8282 16.8133 31.9001 16.8612C31.9719 16.9331 32.1635 17.2444 32.0917 17.2684L32.0677 17.2444Z" fill="#CED4E8"/>
<path d="M31.8761 15.9751C31.8522 15.9751 31.8282 15.9511 31.8282 15.9272C31.7804 15.7835 31.8282 15.6877 31.8043 15.6398C31.7804 15.5919 31.6846 15.4482 31.6606 15.4482C31.6606 15.4482 31.6606 15.4482 31.6606 15.4721C31.6606 15.544 31.6846 15.6158 31.6367 15.6158C31.6127 15.6158 31.5409 15.52 31.469 15.4482C31.3972 15.3524 31.3493 15.2805 31.3972 15.2805C31.4451 15.2805 31.5888 15.4003 31.6367 15.4003C31.6606 15.3763 31.3972 15.1368 31.3253 15.1368C31.3014 15.1608 31.2774 15.1608 31.2535 15.1608C31.2295 15.1608 31.2056 15.1368 31.1816 15.1129C31.1577 15.065 31.1816 15.065 31.0858 14.9213C30.99 14.8015 31.014 14.5142 31.1337 14.5142H31.1577C31.2535 14.5381 31.2774 14.7537 31.2535 14.8494C31.2295 14.9692 31.6127 15.1129 31.6846 15.2087C31.7325 15.3045 31.8043 15.4961 31.8522 15.5679C31.9001 15.6398 32.0198 15.7835 31.9719 15.8553C31.948 15.9032 31.9001 15.9751 31.8522 15.9751H31.8761Z" fill="#CED4E8"/>
<path d="M31.924 17.6276C31.8043 17.6276 31.7085 17.6276 31.7085 17.6036C31.6846 17.5078 32.1396 17.5318 32.2114 17.5078H32.2354C32.3072 17.5078 32.3551 17.5797 32.2354 17.6036C32.1635 17.6276 32.0198 17.6276 31.9001 17.6276H31.924Z" fill="#CED4E8"/>
<path d="M32.3312 17.7952C32.3312 17.7952 32.3072 17.7952 32.3072 17.7713C32.2833 17.7234 32.3791 17.4839 32.4509 17.4839C32.4988 17.5078 32.4988 17.6036 32.427 17.6994C32.3791 17.7713 32.3551 17.7952 32.3312 17.7952Z" fill="#CED4E8"/>
<path d="M35.229 20.9805C35.0614 20.9805 34.8698 20.9566 34.7979 20.9326C34.6542 20.8847 34.5105 20.5734 34.4626 20.5494C34.4387 20.5494 34.4387 20.5734 34.4147 20.5973C34.3908 20.6213 34.3908 20.6452 34.3668 20.6452C34.3668 20.6452 34.3668 20.6452 34.3429 20.6452C34.295 20.6213 34.3668 20.4297 34.3189 20.4297C34.295 20.4297 34.295 20.4536 34.271 20.4776C34.2471 20.5015 34.2231 20.5255 34.1992 20.5255C34.1752 20.5255 34.1274 20.5015 34.0795 20.4297C33.9597 20.286 33.6723 20.2141 33.4807 20.2141C33.3849 20.2141 33.3131 20.2381 33.3131 20.262C33.2652 20.3578 33.1454 20.5015 33.0017 20.5015C32.9778 20.5015 32.9538 20.5015 32.9299 20.5015C32.906 20.5015 32.8581 20.4776 32.8581 20.4776C32.7862 20.4776 32.7623 20.5494 32.7383 20.6213C32.7144 20.6452 32.7144 20.6452 32.6665 20.6452C32.5946 20.6452 32.4988 20.5734 32.4509 20.5494C32.3551 20.5015 32.403 20.5015 32.427 20.4297C32.4509 20.3339 31.8761 19.6154 31.8761 19.5436C31.8761 19.5196 31.8761 19.5196 31.8761 19.5196C31.9001 19.5196 31.924 19.5675 31.9959 19.5915C31.9959 19.5915 31.9001 19.4717 31.9001 19.2322C31.9001 18.9927 32.2833 19.0406 32.403 18.9688C32.5228 18.8969 32.4509 18.5377 32.4509 18.4898L32.5946 18.5138C32.6186 18.4898 32.5707 18.4419 32.5707 18.3701C32.5707 18.2982 32.5946 18.2743 32.7144 18.2264C32.7383 18.2264 32.7383 18.2264 32.7623 18.2264C32.8581 18.2264 32.882 18.3461 32.9539 18.3461C33.0496 18.3461 32.9539 18.2024 32.9778 18.1785L32.906 17.9869C32.9299 17.9869 32.9539 18.0108 32.9778 18.0348C33.0017 18.0587 33.0257 18.0827 33.0736 18.0827H33.0975C33.1694 18.0587 33.0017 17.9629 33.0496 17.939C33.0496 17.939 33.0496 17.939 33.0736 17.939C33.1215 17.939 33.1933 18.0108 33.2891 18.0587C33.3131 18.0587 33.337 18.0587 33.337 18.0587C33.361 18.0587 33.3849 18.0348 33.4089 18.0348C33.4328 18.0348 33.4328 18.0108 33.4568 18.0108H33.4807C33.5526 18.0348 33.5047 18.1545 33.4807 18.2982C33.4568 18.418 33.7442 18.5138 33.816 18.5377C33.9118 18.5617 33.84 18.6575 33.9597 18.6814C34.0076 18.6814 33.9837 18.4898 33.9597 18.2982C33.9358 18.1306 33.9118 17.939 33.9118 17.915C34.4387 18.8969 35.0374 19.8549 35.5164 20.9566C35.4685 21.0524 35.3248 21.0763 35.1811 21.0763L35.229 20.9805Z" fill="#CED4E8"/>
<path d="M35.5164 21.5551C35.4685 21.5551 35.3967 21.4593 35.3248 21.3635C35.253 21.2677 35.2051 21.1719 35.229 21.1719C35.2769 21.1958 35.3248 21.2198 35.3727 21.2198C35.3967 21.2198 35.4206 21.2198 35.4445 21.2198C35.4685 21.2198 35.4685 21.2198 35.4924 21.2198C35.4924 21.2198 35.4924 21.2198 35.5164 21.2198C35.5643 21.2437 35.6361 21.5551 35.5403 21.579L35.5164 21.5551Z" fill="#CED4E8"/>
<path d="M31.469 13.0532C31.4451 13.0532 31.3972 12.9814 31.3493 12.8856C31.3253 12.8377 31.469 12.7659 31.469 12.6461C31.469 12.5982 31.5169 12.5982 31.5648 12.5982C31.5888 12.5982 31.6127 12.5982 31.6606 12.5982C31.6846 12.5982 31.7085 12.5982 31.7324 12.5982C31.7564 12.5982 31.7564 12.5982 31.7803 12.5982C31.8522 12.5743 31.8043 12.4785 31.8282 12.4785C31.8282 12.4785 31.8282 12.4785 31.8522 12.4785C31.8522 12.4785 31.8522 12.4785 31.8761 12.4785C31.924 12.4785 32.0438 12.3108 32.0677 12.215C32.0917 12.0953 31.924 11.9276 31.9001 11.7839C31.8761 11.7121 31.9001 11.6882 31.924 11.6882C31.948 11.6882 31.948 11.6882 31.9719 11.6882H31.9959C32.0198 11.6882 31.9959 11.5205 32.0438 11.5205C32.0917 11.5205 32.0917 11.736 32.1396 11.7839C32.1396 11.7839 32.1396 11.7839 32.1635 11.7839C32.1875 11.7839 32.2114 11.7839 32.2354 11.76C32.2593 11.76 32.2833 11.736 32.3072 11.736H32.3312C32.3312 11.76 32.3312 11.7839 32.3312 11.8079C32.2593 11.8558 32.0438 11.8318 32.0917 11.9276C32.1635 12.0474 32.2114 12.3587 32.2114 12.5743C32.2114 12.7898 32.0917 12.7898 31.8282 12.7898C31.5648 12.7898 31.5888 12.9574 31.5409 13.0053C31.5409 13.0293 31.5169 13.0293 31.5169 13.0293L31.469 13.0532Z" fill="#CED4E8"/>
<path d="M30.9661 14.1307C30.9421 14.1307 30.8942 14.0828 30.8703 14.0589C30.8463 14.011 30.8463 13.7715 30.9182 13.7715C30.9661 13.7715 30.9182 14.0589 30.9421 14.1068C30.9421 14.1307 30.9421 14.1307 30.9421 14.1307H30.9661Z" fill="#CED4E8"/>
<path d="M23.2545 12.0236C23.2066 12.0236 23.1587 12.0236 23.1348 11.9997C23.0869 11.9518 22.9192 11.8799 22.7995 11.8799C22.7516 11.8799 22.7037 11.9039 22.6558 11.9278C22.6079 11.9757 22.56 11.9997 22.5121 11.9997C22.4163 11.9997 22.3205 11.9278 22.2247 11.832C22.081 11.7123 22.2486 11.4249 22.3684 11.4009H22.3923C22.5121 11.4009 22.56 11.5207 22.6079 11.5925C22.6318 11.6165 22.6558 11.6165 22.6797 11.6165C22.7516 11.6165 22.8474 11.5686 22.8474 11.5207C22.8474 11.4728 22.7516 11.4728 22.7037 11.4249C22.6797 11.377 22.7755 11.3291 22.8474 11.3291C22.8713 11.3291 22.8953 11.3291 22.9192 11.353C22.9911 11.4249 22.8713 11.4967 22.8953 11.5446C22.9192 11.5925 23.3503 11.6883 23.3982 11.856C23.4221 11.9757 23.3024 12.0236 23.2066 12.0236H23.2545Z" fill="#CED4E8"/>
<path d="M24.5717 12.5266C24.4041 12.5266 24.1406 12.2871 24.1885 12.1673C24.2364 12.0476 24.2125 12.0236 24.0927 11.9039C23.973 11.8081 23.7814 11.7362 23.8053 11.5686C23.8293 11.4488 24.0688 11.3291 24.1885 11.3291C24.2125 11.3291 24.2364 11.3291 24.2364 11.353C24.4041 11.4728 24.0688 11.4967 24.1406 11.6165C24.2125 11.7362 24.3562 11.7602 24.4041 11.856C24.452 11.9518 24.452 12.0955 24.5238 12.1673C24.5957 12.2392 24.7633 12.5026 24.5717 12.5266C24.5717 12.5266 24.5717 12.5266 24.5478 12.5266H24.5717Z" fill="#CED4E8"/>
<path d="M30.9661 8.14369C30.7745 8.14369 30.511 8.11975 30.511 8.0479C30.511 8.02395 30.5829 8 30.6787 8C30.8463 8 31.0858 8.02395 31.1577 8.0479C31.2535 8.07185 31.2774 8.14369 31.1337 8.14369C31.1098 8.14369 31.0379 8.14369 30.99 8.14369H30.9661Z" fill="#CED4E8"/>
<path d="M31.6367 8.1915C31.5169 8.1915 31.3253 8.1436 31.3014 8.11965C31.3014 8.0957 31.3253 8.0957 31.3732 8.0957C31.493 8.0957 31.6846 8.1436 31.7085 8.16755C31.7085 8.1915 31.6846 8.1915 31.6367 8.1915Z" fill="#CED4E8"/>
<path d="M23.6377 8.67064C23.5179 8.67064 23.3503 8.64669 23.3024 8.5509C23.1827 8.38325 23.6377 8.04797 23.8772 8.02402C24.0688 8.00007 24.3562 7.92822 24.4999 7.92822C24.5477 7.92822 24.5717 7.92822 24.5717 7.95217C24.6196 8.02402 24.0209 8.04797 23.9969 8.11982C23.973 8.19166 23.5658 8.38325 23.6137 8.47905C23.6616 8.57485 23.7814 8.57485 23.8293 8.62274C23.8293 8.64669 23.7574 8.67064 23.6616 8.67064H23.6377Z" fill="#CED4E8"/>
<path d="M23.8293 7.56906C23.7814 7.56906 23.7335 7.54511 23.6856 7.52116C23.6377 7.49721 23.5658 7.47326 23.5419 7.47326C23.5179 7.47326 23.5179 7.47326 23.5179 7.47326C23.494 7.49721 23.4221 7.52116 23.3503 7.52116C23.2785 7.52116 23.2066 7.49721 23.2066 7.47326C23.2066 7.40141 23.2785 7.35352 23.3742 7.35352C23.47 7.35352 23.6137 7.37746 23.6137 7.40141C23.6616 7.44931 23.949 7.47326 23.8772 7.52116H23.8532L23.8293 7.56906Z" fill="#CED4E8"/>
<path d="M27.0624 7.73661C26.9187 7.73661 26.6792 7.71266 26.6074 7.64081C26.5595 7.61686 26.5355 7.59291 26.5116 7.59291C26.4876 7.59291 26.4637 7.59291 26.4637 7.59291C26.4397 7.59291 26.4397 7.59291 26.4158 7.59291C26.3918 7.59291 26.3918 7.59291 26.3918 7.56896C26.3679 7.52107 26.4876 7.54501 26.5116 7.47317C26.5116 7.44922 26.5595 7.44922 26.6074 7.44922C26.7271 7.44922 26.8947 7.49712 26.8947 7.52107C26.8947 7.56896 27.1821 7.59291 27.2061 7.66476C27.2061 7.68871 27.1582 7.68871 27.0624 7.68871V7.73661Z" fill="#CED4E8"/>
<path d="M27.23 7.76032C27.23 7.68848 27.2779 7.68848 27.3737 7.68848C27.4935 7.68848 27.6132 7.73637 27.6132 7.73637L27.23 7.76032Z" fill="#CED4E8"/>
<path d="M20.0932 8C19.9735 7.97605 20.0214 7.80841 19.8537 7.80841C19.6861 7.80841 19.6621 7.71261 19.6382 7.61682C19.6142 7.52102 19.8537 7.49707 20.1411 7.49707C20.4764 7.49707 20.8356 7.54497 20.8596 7.59287C20.8835 7.66471 20.3806 7.64076 20.3806 7.71261C20.3806 7.78446 20.7638 7.78446 20.7877 7.88025C20.7877 7.9042 20.7638 7.92815 20.7159 7.92815C20.6201 7.92815 20.4285 7.88025 20.3327 7.80841C20.3088 7.80841 20.3088 7.78446 20.2848 7.78446C20.2369 7.78446 20.213 7.85631 20.213 7.9042C20.189 7.97605 20.1651 8.02395 20.1172 8.02395L20.0932 8Z" fill="#CED4E8"/>
<path d="M18.7281 10.8261C18.7042 10.8261 18.6802 10.8261 18.6563 10.8022C18.5844 10.7303 18.6802 10.6824 18.6323 10.6345C18.5844 10.5866 18.5126 10.4908 18.5844 10.4429C18.6323 10.419 18.7281 10.3711 18.8 10.3711C18.8479 10.3711 18.8958 10.3711 18.9197 10.419C18.9916 10.4908 18.9197 10.5387 18.9437 10.6106C18.9676 10.6824 18.8958 10.7064 18.8958 10.7543C18.8958 10.8022 18.8 10.8261 18.7521 10.8261H18.7281Z" fill="#CED4E8"/>
<path d="M19.1592 11.0176C19.1353 11.0176 19.1113 11.0176 19.0874 10.9936C19.0395 10.9218 19.255 10.8739 19.1832 10.826C19.1113 10.7781 18.9916 10.6104 19.1353 10.6104C19.255 10.6104 19.0874 10.4428 19.0395 10.4428C18.9916 10.4428 18.6802 10.2033 18.6802 10.0836C18.6802 10.0357 18.7042 10.0117 18.7281 10.0117C18.7521 10.0117 18.776 10.0117 18.8 10.0357C18.8239 10.0357 18.8718 10.0596 18.8958 10.0596C18.8958 10.0596 18.8958 10.0596 18.9197 10.0596C19.0395 10.0596 19.1353 10.1075 19.1592 10.1794C19.1832 10.2752 19.0634 10.2273 19.1353 10.2991C19.1832 10.371 19.5663 10.5386 19.6142 10.7062C19.6621 10.8499 19.6861 10.8739 19.5903 10.8978C19.5664 10.8978 19.5185 10.8978 19.4706 10.8978C19.4706 10.8978 19.4466 10.8978 19.4227 10.8978H19.3987C19.3269 10.8978 19.279 10.8978 19.279 10.9218C19.279 10.9457 19.2071 10.9936 19.1353 10.9936L19.1592 11.0176Z" fill="#CED4E8"/>
<path d="M17.4349 9.4368C17.3151 9.4368 17.2193 9.41285 17.1715 9.3889C17.0517 9.29311 16.9799 9.31706 16.9799 9.22126C16.9799 9.17336 17.0038 9.14941 17.0278 9.14941C17.0996 9.14941 17.1954 9.24521 17.2193 9.26916C17.2433 9.26916 17.2433 9.24521 17.2672 9.24521C17.2672 9.22126 17.2912 9.22126 17.3151 9.22126C17.3151 9.22126 17.3151 9.22126 17.3391 9.22126H17.363C17.4109 9.22126 17.4588 9.22126 17.5307 9.19731C17.6025 9.19731 17.6504 9.17336 17.6983 9.17336C17.7223 9.17336 17.7223 9.17336 17.7462 9.17336C17.8181 9.19731 17.8899 9.31706 17.7702 9.3889C17.6983 9.41285 17.5786 9.4368 17.4349 9.4368Z" fill="#CED4E8"/>
<path d="M26.1523 19.4238C26.0086 19.4238 25.7691 19.1364 25.817 19.0166C25.8649 18.8969 25.5776 18.5376 25.7212 18.4897C25.841 18.4179 25.9607 18.2024 26.0086 17.9868C26.0565 17.9868 26.1763 18.2263 26.2242 18.37C26.2481 18.5137 26.2002 18.6574 26.2242 18.7292C26.2481 18.7771 26.3918 19.1843 26.296 19.2561C26.2002 19.328 26.32 19.4717 26.1763 19.4717L26.1523 19.4238Z" fill="#CED4E8"/>
<path d="M17.4828 22.9679C17.1954 22.9679 16.6685 22.4171 16.5727 22.2734C16.453 22.1057 16.5967 22.1297 16.5967 22.0099C16.5967 21.9142 16.5488 21.9142 16.453 21.8184C16.3572 21.7226 16.5248 21.531 16.4769 21.2675C16.4051 21.0041 16.3093 21.0041 16.3572 20.7885C16.3811 20.5491 16.1416 19.0642 15.9979 18.7768C15.8543 18.4894 15.5429 18.4176 15.2795 18.2021C15.04 17.9865 14.9202 17.6512 14.7047 17.4596C14.4892 17.268 14.5371 17.1483 14.5131 17.1004C14.4892 17.0525 14.561 16.9807 14.4413 16.837C14.3215 16.7172 14.561 16.3819 14.5371 16.0706C14.4892 15.7353 14.3215 15.7114 14.4173 15.6635C14.6089 15.5677 14.5371 15.4479 14.585 15.3521C14.585 15.3282 14.6089 15.3042 14.6329 15.3042C14.6807 15.3042 14.7526 15.3521 14.8005 15.3521C14.8005 15.3521 14.8005 15.3521 14.8244 15.3521C14.8723 15.3521 14.9202 15.3042 14.9442 15.2803C14.9921 15.2803 15.1837 15.4 15.3034 15.4479C15.3274 15.4479 15.3513 15.4479 15.3753 15.4479C15.3992 15.4479 15.4232 15.4479 15.4471 15.4479C15.4711 15.4479 15.495 15.4479 15.5429 15.4479C15.6627 15.4479 15.8303 15.4958 15.9979 15.7353C16.1656 15.9508 16.2135 15.9748 16.3093 15.9748C16.3332 15.9748 16.3332 15.9748 16.3572 15.9748C16.3811 15.9748 16.3811 15.9748 16.4051 15.9748C16.4769 15.9748 16.5488 15.9748 16.6685 16.0466C17.0757 16.2382 16.932 16.3819 17.1235 16.6454C17.7941 16.813 17.6265 16.9328 17.6265 16.9328C17.6265 16.9328 17.9139 16.9328 17.9857 16.9807C18.0576 17.0286 18.3449 17.0764 18.4647 17.2441C18.5844 17.3878 18.5605 18.0584 18.4407 18.2021C18.6802 18.8487 18.6084 19.0163 18.5365 19.184C18.4647 19.3516 18.2492 19.2798 18.0815 19.4474C17.9139 19.615 18.1534 19.639 18.2013 19.8066C18.2252 19.9743 17.9378 20.3814 17.9139 20.5251C17.9139 20.5491 17.8899 20.573 17.866 20.573C17.8181 20.573 17.7702 20.5491 17.7223 20.5012C17.6744 20.4772 17.6025 20.4533 17.5546 20.4533C17.5307 20.4533 17.5307 20.4533 17.5067 20.4772C17.4588 20.597 17.6744 20.597 17.7462 20.8364C17.842 21.0759 17.4588 20.9562 17.3391 21.0999C17.1954 21.2436 17.2193 21.1717 17.1714 21.2675C17.1235 21.3633 17.3151 21.3633 17.363 21.4112C17.4109 21.4352 17.1475 21.6028 17.1475 21.8184C17.1475 22.0339 17.3151 21.8902 17.3151 21.986C17.3151 22.0818 17.2672 22.1057 17.2433 22.3692C17.2193 22.6326 17.7462 22.7524 17.6265 22.8961C17.6025 22.944 17.5546 22.9679 17.5067 22.9679H17.4828Z" fill="#CED4E8"/>
<path d="M14.2257 14.4184C14.2018 14.4184 14.1539 14.4184 14.1299 14.3944C14.082 14.3944 14.0581 14.3705 14.0341 14.3705H14.0102C14.0102 14.3705 14.0102 14.3705 13.9862 14.3705C13.9383 14.3705 13.8425 14.2507 13.7467 14.1789C13.6749 14.131 13.5791 14.0831 13.5073 14.0831C13.4594 14.0831 13.4354 14.0831 13.4115 14.131C13.3875 14.1789 13.3396 14.1789 13.3157 14.1789C13.2917 14.1789 13.2678 14.1549 13.2678 14.131C13.2678 14.0352 13.3396 13.9873 13.4354 13.9873C13.627 13.9873 13.8904 14.107 13.9862 14.1549C14.1299 14.2507 14.2497 14.2747 14.2736 14.3465C14.2736 14.3705 14.2736 14.3705 14.2497 14.3705L14.2257 14.4184Z" fill="#CED4E8"/>
<path d="M14.561 14.6101C14.5371 14.6101 14.4413 14.5143 14.4652 14.4185C14.4652 14.4185 14.4652 14.3945 14.4892 14.3945C14.5371 14.3945 14.6807 14.4664 14.7286 14.4664C14.7765 14.4664 14.7526 14.5622 14.7526 14.5861C14.7526 14.5861 14.7047 14.5861 14.6807 14.5861C14.6568 14.5861 14.6089 14.5861 14.585 14.5861C14.561 14.5861 14.5371 14.5861 14.5371 14.6101H14.561Z" fill="#CED4E8"/>
<path d="M14.0581 14.6578C14.0102 14.6578 13.9623 14.562 13.9383 14.5381C13.9623 14.5381 14.106 14.6339 14.0581 14.6578Z" fill="#CED4E8"/>
<path d="M14.1299 15.8076C14.0581 15.8076 13.7946 15.616 13.6988 15.5681C13.5791 15.5202 13.4833 15.3047 13.3635 15.1849C13.2678 15.0652 12.9564 15.0652 12.8367 14.9694C12.7409 14.8736 12.6211 14.8736 12.4774 14.8736C12.4535 14.8736 12.4295 14.8736 12.4056 14.8736C12.214 14.8736 12.2619 14.7778 11.9027 14.6341C11.5434 14.4904 11.6392 14.4185 11.5195 14.203C11.3997 13.9875 10.825 13.6043 10.7052 13.4127C10.5855 13.245 10.4418 13.0774 10.3939 13.0774H10.3699C10.346 13.1493 10.5615 13.3169 10.6573 13.4606C10.7531 13.5803 11.1123 14.0114 11.0644 14.0354C11.0644 14.0354 11.0644 14.0354 11.0405 14.0354C10.9926 14.0354 10.9686 13.9635 10.8968 13.9396C10.801 13.8917 10.7771 13.724 10.6334 13.6761C10.4897 13.6282 10.4897 13.5564 10.4897 13.4845C10.4897 13.4127 10.3699 13.3887 10.2741 13.245C10.2023 13.1253 10.0825 12.9337 9.79514 12.814C9.50775 12.6942 9.36406 12.311 9.22037 12.1194C9.07667 11.9278 9.02877 11.4249 8.93298 11.1854C8.71744 11.1375 8.52584 10.9699 8.50189 10.8741C8.47795 10.7783 8.21451 10.5628 8.09476 10.4909C8.07081 10.467 8.04686 10.467 8.04686 10.467C8.02291 10.467 8.02291 10.4909 8.02291 10.4909C8.02291 10.5149 7.99896 10.5149 7.97502 10.5149C7.95107 10.5149 7.95107 10.5149 7.92712 10.4909C7.80737 10.4191 7.30444 9.91613 7.1368 9.91613C7.1368 9.91613 7.1368 9.91613 7.11285 9.91613C6.94521 9.91613 6.58597 9.79639 6.56202 9.79639C6.53807 9.79639 6.60992 9.94008 6.53807 9.94008C6.53807 9.94008 6.53807 9.94008 6.51413 9.94008H6.49018C6.44228 9.94008 6.39438 9.96403 6.34648 9.96403C6.29858 9.98798 6.22674 9.98798 6.20279 9.98798H6.17884C6.13094 9.96403 6.17884 9.82034 6.13094 9.79639C6.08304 9.79639 6.10699 10.0598 6.0112 10.0838C5.93935 10.1077 5.69986 10.467 5.55616 10.467H5.53221H5.50827C5.43642 10.467 5.29272 10.5388 5.17298 10.5867C5.05323 10.6586 4.93349 10.7064 4.90954 10.7064C4.88559 10.6825 5.41247 10.3951 5.53221 10.3472C5.62801 10.3233 5.77171 10.1317 5.72381 10.0598C5.67591 9.98798 5.36457 10.0359 5.34062 9.98798C5.31667 9.91613 5.12508 9.91613 4.98139 9.82034C4.83769 9.74849 4.88559 9.5569 4.98139 9.53295C5.07718 9.53295 5.24483 9.4132 5.19693 9.3653C5.17298 9.34135 5.17298 9.34135 5.14903 9.34135C5.12508 9.34135 5.07718 9.3653 5.02928 9.4132C5.00534 9.4132 4.98139 9.43715 4.95744 9.43715C4.83769 9.43715 4.62215 9.31741 4.5982 9.24556C4.5982 9.22161 4.62215 9.22161 4.694 9.22161C4.7419 9.22161 4.81374 9.22161 4.86164 9.22161C4.93349 9.22161 4.98139 9.22161 5.02928 9.22161C5.07718 9.22161 5.10113 9.22161 5.10113 9.19766C5.07718 9.12581 4.62215 9.00607 4.57425 8.91027C4.5503 8.83843 4.76585 8.86237 4.81374 8.83843C4.86164 8.79053 4.88559 8.79053 4.93349 8.69473C4.95744 8.67078 5.00534 8.64683 5.05323 8.64683C5.07718 8.64683 5.10113 8.64683 5.12508 8.64683C5.14903 8.64683 5.17298 8.64683 5.22088 8.64683C5.24483 8.64683 5.26878 8.64683 5.29272 8.64683C5.29272 8.64683 5.31667 8.64683 5.34062 8.64683C5.62801 8.64683 6.72967 8.76658 6.84941 8.81448C6.94521 8.83843 7.041 8.86237 7.11285 8.86237C7.1368 8.86237 7.16075 8.86237 7.16075 8.83843C7.16075 8.79053 7.54393 8.74263 7.73553 8.74263C7.78342 8.74263 7.83132 8.74263 7.85527 8.76658C7.92712 8.79053 8.07081 8.83843 8.16661 8.83843C8.21451 8.83843 8.23846 8.83843 8.23846 8.81448C8.23846 8.81448 8.2624 8.81448 8.3103 8.81448C8.47795 8.81448 8.88508 8.88632 8.93298 8.88632C9.00482 8.88632 8.95693 8.95817 9.02877 9.00607C9.05272 9.03002 9.10062 9.03002 9.17247 9.03002C9.31616 9.03002 9.5317 9.00607 9.5317 8.98212C9.5317 8.95817 9.55565 8.88632 9.50775 8.88632C9.50775 8.88632 9.50775 8.88632 9.48381 8.88632C9.48381 8.88632 9.45986 8.88632 9.41196 8.88632C9.24431 8.88632 8.86113 8.83843 8.81323 8.81448C8.76533 8.79053 8.81323 8.69473 8.78928 8.69473H8.76533C8.71744 8.69473 8.64559 8.67078 8.54979 8.59893C8.43005 8.52709 8.50189 8.50314 8.47795 8.50314H8.454C8.43005 8.50314 8.38215 8.52709 8.33425 8.55104C8.28635 8.57499 8.21451 8.59893 8.14266 8.59893C8.04686 8.59893 7.97502 8.57499 7.95107 8.55104C7.90317 8.47919 7.99896 8.35944 7.99896 8.31155C7.99896 8.2876 8.04686 8.2876 8.14266 8.2876C8.28635 8.2876 8.50189 8.31155 8.59769 8.31155C8.74138 8.31155 8.95693 8.47919 8.98088 8.47919L9.02877 8.43129C9.07667 8.43129 9.17247 8.47919 9.22037 8.47919C9.26826 8.47919 9.24431 8.43129 9.29221 8.43129L9.50775 8.55104C9.5317 8.52709 9.45986 8.47919 9.43591 8.40734C9.41196 8.35944 9.65145 8.31155 9.6754 8.31155C9.69935 8.31155 9.69935 8.43129 9.69935 8.50314C9.69935 8.57499 9.79514 8.64683 9.93884 8.69473C10.0586 8.74263 10.1544 8.74263 10.1544 8.79053C10.1544 8.83843 10.1065 8.79053 10.0586 8.86237C10.0586 8.88632 10.0107 8.88632 9.96279 8.88632C9.91489 8.88632 9.84304 8.88632 9.77119 8.86237C9.69935 8.86237 9.65145 8.83843 9.60355 8.83843C9.5796 8.83843 9.5796 8.83843 9.5796 8.86237C9.60355 8.91027 10.1783 8.98212 10.322 8.98212H10.346C10.4178 8.95817 10.3699 8.91027 10.322 8.83843C10.2981 8.79053 10.3939 8.79053 10.4657 8.79053H10.4897H10.5136C10.5376 8.79053 10.6094 8.83843 10.5855 8.88632C10.5615 8.93422 10.6334 9.05397 10.6813 9.05397L10.7771 8.95817C10.801 8.93422 10.7531 8.83843 10.7052 8.81448C10.6573 8.79053 10.4657 8.69473 10.4657 8.64683C10.4418 8.59893 10.5615 8.57499 10.5376 8.52709C10.5376 8.47919 10.4657 8.45524 10.4418 8.38339C10.4418 8.3355 10.5615 8.31155 10.6573 8.31155C10.7531 8.31155 10.825 8.3355 10.8489 8.35944C10.8728 8.43129 10.5615 8.57499 10.6334 8.57499C10.7052 8.57499 10.825 8.71868 10.8728 8.79053C10.8968 8.83843 10.9686 8.86237 11.0165 8.86237C11.0405 8.86237 11.0644 8.86237 11.0884 8.86237C11.1602 8.86237 11.2321 8.93422 11.2321 9.00607C11.2321 9.05397 11.3039 9.10186 11.3279 9.10186H11.3518L11.3997 8.98212C11.4476 8.95817 11.4476 8.79053 11.3758 8.79053C11.3039 8.76658 11.0884 8.74263 10.9926 8.64683C10.8968 8.52709 11.0405 8.45524 11.1363 8.38339C11.1602 8.35944 11.1602 8.35944 11.1842 8.35944C11.2321 8.35944 11.256 8.43129 11.28 8.45524C11.28 8.45524 11.28 8.45524 11.3039 8.45524C11.3758 8.45524 11.5674 8.38339 11.6392 8.3355C11.6632 8.3355 11.6871 8.31155 11.7111 8.31155C11.8308 8.31155 11.9985 8.35944 11.9985 8.38339C12.0224 8.43129 12.1421 8.47919 12.3337 8.55104C12.5253 8.62288 12.9564 8.69473 12.9804 8.76658C13.0043 8.83843 12.9325 8.83843 12.9804 8.88632C13.0283 8.95817 13.5312 9.05397 13.5072 9.19766C13.5072 9.24556 13.4833 9.24556 13.4354 9.24556C13.3875 9.24556 13.3156 9.22161 13.2678 9.19766C13.2199 9.17371 13.148 9.14976 13.1241 9.14976C13.1001 9.14976 13.1001 9.14976 13.1001 9.17371C13.1001 9.26951 13.4354 9.4611 13.4114 9.53295L13.3875 9.5569C13.3635 9.5569 13.2917 9.53295 13.2438 9.509C13.1959 9.48505 13.1241 9.4611 13.1001 9.4611C13.1241 9.509 13.3635 9.5569 13.3396 9.65269C13.3396 9.67664 13.3156 9.67664 13.2917 9.67664C13.148 9.67664 12.6451 9.4132 12.5732 9.38925C12.5014 9.34135 12.19 9.3653 12.1661 9.31741C12.1661 9.29346 12.19 9.29346 12.2379 9.29346C12.2858 9.29346 12.3337 9.29346 12.3816 9.29346C12.4295 9.29346 12.4774 9.29346 12.5014 9.29346H12.5253C12.5493 9.26951 12.4774 9.22161 12.4535 9.12581C12.4295 9.05397 12.5493 9.07792 12.5253 9.00607C12.5253 8.98212 12.5014 8.95817 12.4774 8.95817C12.4295 8.95817 12.4056 8.98212 12.3816 9.00607C12.3816 9.03002 12.3577 9.03002 12.3337 9.03002C12.2858 9.03002 12.19 9.00607 12.1661 8.98212L12.2858 8.88632C12.3098 8.83843 12.214 8.83843 12.1421 8.79053C12.0942 8.74263 12.0464 8.71868 11.9985 8.71868H11.9745C11.9266 8.74263 11.9506 8.74263 11.8308 8.76658H11.8069C11.759 8.76658 11.735 8.74263 11.7111 8.74263C11.6871 8.71868 11.6632 8.71868 11.6632 8.71868C11.6632 8.74263 11.7111 8.76658 11.759 8.86237C11.7829 8.95817 11.7829 9.10186 11.759 9.14976L11.735 9.17371C11.7111 9.17371 11.6632 9.14976 11.6153 9.12581C11.5674 9.10186 11.5195 9.07792 11.5195 9.07792C11.4716 9.07792 11.5434 9.19766 11.5674 9.19766C11.5674 9.19766 11.5674 9.19766 11.5913 9.19766C11.6392 9.19766 11.735 9.26951 11.759 9.29346C11.7829 9.34136 12.0703 9.38925 12.0703 9.43715C12.0703 9.4611 12.0703 9.4611 12.0464 9.4611C11.9985 9.4611 11.8787 9.43715 11.8069 9.38925C11.7829 9.38925 11.7829 9.3653 11.759 9.3653C11.7111 9.3653 11.6871 9.4611 11.6392 9.4611H11.6153C11.5674 9.4611 11.5434 9.4132 11.4716 9.4132C11.3997 9.38925 11.4476 9.3653 11.4476 9.29346C11.4716 9.22161 11.4237 9.17371 11.3997 9.17371C11.3997 9.17371 11.3997 9.17371 11.3758 9.17371C11.3518 9.19766 11.3997 9.34135 11.3758 9.38925C11.3518 9.4132 11.3279 9.4132 11.3039 9.4132C11.28 9.4132 11.28 9.4132 11.256 9.4132C11.2321 9.4132 11.2321 9.4132 11.2081 9.4132C11.1842 9.4132 11.1602 9.4132 11.1363 9.43715C11.1123 9.48505 11.1363 9.53295 11.1123 9.53295H11.0884C11.0884 9.53295 11.0884 9.53295 11.0644 9.53295C10.9926 9.53295 10.8489 9.82034 10.8728 9.89218C10.8968 9.98798 10.9207 9.94008 11.0644 10.0119C11.1842 10.0838 11.1842 10.1796 11.3279 10.1796C11.3518 10.1796 11.3758 10.1796 11.3997 10.1796C11.4237 10.1796 11.4476 10.1796 11.4716 10.1796C11.6153 10.1796 11.5434 10.2993 11.6392 10.3472C11.6632 10.3712 11.7111 10.3712 11.759 10.3712C11.7829 10.3712 11.8069 10.3712 11.8308 10.3712C11.8548 10.3712 11.8787 10.3712 11.9027 10.3712C11.9985 10.3712 12.0942 10.3951 12.1182 10.467C12.1421 10.6346 12.4295 10.8741 12.5253 10.8741C12.6211 10.8741 12.4056 10.5867 12.3577 10.5388C12.3337 10.4909 12.3816 10.467 12.5253 10.443C12.669 10.3951 12.5493 10.3233 12.5253 10.2275C12.5014 10.1317 12.3816 10.1317 12.3337 10.0838C12.2858 10.0359 12.2858 10.0359 12.3337 9.98798C12.3816 9.94008 12.3577 9.96403 12.2619 9.82034C12.1661 9.67664 12.19 9.67664 12.2379 9.62874C12.2619 9.60479 12.2619 9.60479 12.2858 9.60479C12.3098 9.60479 12.3577 9.62874 12.4056 9.65269C12.4774 9.67664 12.669 9.62874 12.7409 9.70059C12.7888 9.74849 12.8127 9.77244 12.8367 9.77244H12.8606H12.8846C12.9325 9.77244 12.9804 9.79639 13.0043 9.84428C13.0283 9.91613 13.1001 10.0119 13.2438 10.0598C13.2678 10.0598 13.2678 10.0598 13.2917 10.0598C13.3875 10.0598 13.4114 9.89218 13.4593 9.86823C13.4593 9.86823 13.4593 9.86823 13.4833 9.86823C13.5551 9.86823 13.8425 10.1317 13.8425 10.2035C13.8665 10.2754 13.9623 10.3712 14.082 10.4191C14.2018 10.443 14.3694 10.5628 14.4652 10.6346C14.561 10.7064 14.537 10.9699 14.561 11.0178C14.5849 11.0657 14.7286 11.0417 14.8005 11.1136C14.8723 11.1854 14.9442 11.3291 14.8723 11.3531C14.8484 11.377 14.8005 11.401 14.7765 11.401C14.7526 11.401 14.7286 11.377 14.6807 11.3531C14.6089 11.2812 14.4413 11.3531 14.3934 11.2812C14.3455 11.2094 14.4892 10.9459 14.4413 10.898L14.4173 10.8741C14.3934 10.8741 14.3694 10.922 14.3455 10.9938C14.3215 11.0178 14.2976 11.0417 14.2736 11.0417C14.2497 11.0417 14.2257 11.0417 14.1778 11.0417C14.1539 11.0417 14.106 11.0417 14.082 11.0417C14.0581 11.0417 14.0581 11.0417 14.0341 11.0417C13.9623 11.0657 14.1539 11.1375 14.082 11.1615H14.0581C13.9862 11.1615 13.9862 11.0657 13.8425 11.0417C13.8186 11.0417 13.8186 11.0417 13.7946 11.0417C13.627 11.0417 13.4593 11.2573 13.4833 11.2812C13.4833 11.2812 13.4833 11.2812 13.5072 11.2812C13.5551 11.2812 13.627 11.2333 13.7228 11.1615C13.7467 11.1375 13.7707 11.1375 13.7946 11.1375C13.8904 11.1375 13.9383 11.2333 13.9144 11.2333C13.8665 11.2573 13.9383 11.401 13.9862 11.4728C14.0102 11.4968 14.0341 11.5207 14.0581 11.5207C14.106 11.5207 14.1778 11.4968 14.1778 11.4489C14.1778 11.4249 14.2018 11.4249 14.2497 11.4249C14.2976 11.4249 14.3694 11.4489 14.3694 11.4968C14.3934 11.5447 14.2497 11.6644 14.1539 11.6644H14.1299C14.1299 11.6644 14.1299 11.6644 14.106 11.6644C14.0341 11.6644 14.0581 11.8081 13.9862 11.8321H13.9623C13.9144 11.8321 13.9144 11.7602 13.8904 11.6884C13.8904 11.6165 13.8425 11.5926 13.8186 11.5926C13.8186 11.5926 13.7946 11.5926 13.7946 11.6165C13.7707 11.6644 13.5791 11.7602 13.5072 11.8321C13.4593 11.9039 13.603 12.0476 13.5791 12.0476H13.5551C13.4593 12.0476 13.2917 12.1673 13.2199 12.311C13.148 12.4547 13.2917 12.5505 13.3396 12.7182C13.4114 12.9098 12.9085 13.0295 12.9804 13.1971C13.0522 13.3648 13.3635 13.8677 13.2678 13.9156C13.2678 13.9156 13.2678 13.9156 13.2438 13.9156C13.1241 13.9156 12.9564 13.4845 12.8846 13.3887C12.8606 13.3408 12.8367 13.3408 12.8127 13.3408C12.7888 13.3408 12.7888 13.3408 12.7648 13.3648C12.7409 13.3648 12.7409 13.3887 12.7169 13.3887H12.693C12.6211 13.3648 12.5493 13.3169 12.4774 13.3169C12.4535 13.3169 12.4535 13.3169 12.4295 13.3408C12.3816 13.3887 12.3816 13.4845 12.2858 13.5085C12.2619 13.5085 12.214 13.4845 12.1421 13.4606C12.0942 13.4366 12.0224 13.4127 11.9506 13.4127C11.8787 13.4127 11.8069 13.4606 11.7829 13.5803C11.735 13.8917 11.9506 14.2988 12.0703 14.4904C12.1421 14.6101 12.3098 14.7059 12.4295 14.7059C12.5014 14.7059 12.5253 14.682 12.5253 14.6341C12.5253 14.5143 12.6451 14.3228 12.7648 14.3228C12.7888 14.3228 12.8127 14.3228 12.8127 14.3228C12.9564 14.3946 12.8127 14.8736 12.8846 14.9454C12.9085 14.9694 12.9325 14.9694 12.9564 14.9694C12.9804 14.9694 13.0283 14.9694 13.0522 14.9454C13.0762 14.9454 13.1241 14.9215 13.172 14.9215C13.2199 14.9215 13.2438 14.9215 13.2917 14.9454C13.4833 15.0173 13.4354 15.3286 13.5072 15.5202C13.5791 15.6878 13.8665 15.7597 13.8665 15.8794C13.8665 15.9034 13.8665 15.9034 13.8425 15.9034L14.1299 15.8076ZM12.9564 11.8081C12.8606 11.8081 12.7169 11.88 12.7169 11.9039C12.7409 11.9518 12.7648 11.9757 12.7888 11.9757C12.8127 11.9757 12.8127 11.9757 12.8367 11.9518C12.8846 11.9039 13.0283 11.9039 13.0043 11.8321C13.0043 11.8081 12.9804 11.8081 12.9564 11.8081ZM13.1001 11.6644C13.0522 11.6644 13.0043 11.6884 13.0283 11.7363C13.0522 11.7602 13.0522 11.7842 13.0762 11.7842C13.1001 11.7842 13.1001 11.7842 13.1241 11.7602C13.172 11.7363 13.2438 11.7602 13.2199 11.7123C13.1959 11.6884 13.148 11.6644 13.1001 11.6644ZM12.5014 11.4249C12.4774 11.4249 12.4774 11.4249 12.4774 11.4489C12.4774 11.4968 12.5493 11.4728 12.5732 11.5447C12.5972 11.6165 12.669 11.7842 12.7648 11.7842C12.8846 11.7842 12.7409 11.6884 12.7648 11.6644C12.7888 11.6405 12.7888 11.5926 12.7409 11.5447C12.693 11.5207 12.5732 11.4489 12.5014 11.4489V11.4249ZM12.0942 11.3052C12.1182 11.3052 12.1421 11.3291 12.1661 11.3531C12.19 11.377 12.2858 11.401 12.3577 11.401C12.4056 11.401 12.4295 11.377 12.4295 11.3531C12.4056 11.2573 12.2858 11.2573 12.2619 11.2333C12.2379 11.1854 12.19 11.1375 12.1661 11.1375H12.1421C12.0942 11.1854 12.0703 11.2333 11.9985 11.2573C11.9266 11.2573 11.7829 11.3052 11.8548 11.377C11.8787 11.401 11.9266 11.401 11.9745 11.401C12.0224 11.401 12.0703 11.377 12.0942 11.3531C12.0942 11.3291 12.1182 11.3052 12.1421 11.3052H12.0942Z" fill="#CED4E8"/>
<path d="M15.3992 9.86826C15.3274 9.86826 15.2555 9.84431 15.1597 9.82036C15.016 9.79641 14.8963 9.67666 14.8005 9.58087C14.7047 9.48507 14.5849 9.31743 14.4652 9.26953C14.3455 9.22163 14.3215 8.95819 14.3215 8.93424C14.3215 8.9103 14.561 8.8624 14.5131 8.79055C14.5131 8.7666 14.4891 8.7666 14.4891 8.7666C14.4652 8.7666 14.4413 8.79055 14.3934 8.8145C14.3694 8.83845 14.3215 8.8624 14.2976 8.8624C14.2257 8.83845 14.1539 8.7666 14.1539 8.6708C14.1539 8.64686 14.1778 8.64686 14.1778 8.64686C14.2018 8.64686 14.2257 8.64686 14.2497 8.6708C14.2736 8.6708 14.2976 8.69475 14.3215 8.69475H14.3455C14.3694 8.64686 14.2497 8.57501 14.2018 8.57501C14.1778 8.57501 14.1778 8.57501 14.1539 8.59896C14.1299 8.59896 14.1299 8.62291 14.106 8.62291H14.082C14.0341 8.59896 13.9383 8.47921 13.8186 8.31157C13.6988 8.16788 13.5551 8.09603 13.4114 8.09603C13.3875 8.09603 13.3635 8.09603 13.3396 8.09603C13.2438 8.11998 13.0762 8.11998 12.9325 8.11998C12.8127 8.11998 12.7409 8.11998 12.693 8.09603C12.6211 8.07208 12.6451 7.97628 12.6211 7.92839C12.5732 7.88049 12.3816 7.90444 12.3577 7.85654C12.3337 7.80864 12.3816 7.80864 12.4535 7.80864C12.4535 7.80864 12.4535 7.80864 12.4774 7.80864C12.5014 7.80864 12.5493 7.80864 12.5732 7.80864C12.7169 7.80864 13.0043 7.73679 12.9804 7.6889C12.9564 7.641 12.7409 7.641 12.7409 7.5931C12.7409 7.56915 12.9804 7.5452 13.0762 7.5452C13.148 7.5452 13.2199 7.4494 13.2199 7.42546L14.106 7.4494L14.082 7.35361C14.106 7.35361 14.1539 7.37756 14.2257 7.37756C14.2976 7.40151 14.3694 7.40151 14.3934 7.40151C14.4173 7.40151 14.4173 7.40151 14.4173 7.40151C14.4173 7.35361 14.2976 7.32966 14.2736 7.30571C14.2736 7.28176 14.7286 7.25781 15.1837 7.25781C15.3992 7.25781 15.6387 7.25781 15.7824 7.28176C16.2614 7.30571 16.5488 7.35361 16.5488 7.37756C16.5488 7.40151 16.5967 7.47335 16.6685 7.4973C16.6925 7.4973 16.7164 7.4973 16.7643 7.4973C16.7883 7.4973 16.8362 7.4973 16.8841 7.4973C16.932 7.4973 16.9559 7.4973 17.0038 7.4973C17.1954 7.4973 17.4349 7.4973 17.4349 7.5452C17.4588 7.61705 16.8601 7.66495 16.8841 7.71284C16.908 7.76074 16.932 7.76074 16.8362 7.78469C16.7404 7.80864 16.7643 7.85654 16.7883 7.90444C16.8122 7.92839 16.8122 7.92839 16.8362 7.92839H16.8601H16.8841C16.908 7.92839 16.9319 7.92839 16.9559 7.95233C17.0038 7.97628 17.0996 8.11998 17.0756 8.14393C17.0517 8.14393 17.0277 8.11998 17.0038 8.09603C16.9798 8.07208 16.9559 8.04813 16.932 8.04813C16.932 8.04813 16.932 8.04813 16.932 8.07208C16.932 8.14393 17.0756 8.23972 17.0996 8.26367C17.1475 8.28762 17.1475 8.33552 17.0996 8.33552C17.0996 8.33552 17.0996 8.33552 17.0756 8.33552C17.0277 8.33552 17.0277 8.35947 17.0277 8.40737C17.0277 8.40737 17.0277 8.43131 17.0038 8.43131C16.9798 8.43131 16.9798 8.43131 16.9559 8.40737C16.9319 8.40737 16.908 8.38342 16.908 8.38342C16.908 8.38342 16.8841 8.38342 16.8841 8.40737C16.8841 8.45526 16.932 8.43131 16.932 8.50316C16.9559 8.55106 16.8601 8.55106 16.8601 8.57501C16.8841 8.59896 16.9559 8.62291 16.9798 8.7187C17.0038 8.79055 16.9798 8.79055 16.908 8.79055C16.908 8.79055 16.908 8.79055 16.8841 8.79055C16.8841 8.79055 16.8841 8.79055 16.8601 8.79055C16.7883 8.79055 16.7164 8.7187 16.6685 8.7187C16.6685 8.7187 16.6446 8.7187 16.6446 8.74265C16.6446 8.8145 16.8841 8.83845 16.8841 8.8624C16.8841 8.88635 16.2614 9.07794 16.1416 9.10189C16.0219 9.12584 16.0937 9.19768 15.9979 9.29348C15.974 9.34138 15.9261 9.34138 15.8782 9.34138C15.8542 9.34138 15.8063 9.34138 15.7824 9.34138C15.7584 9.34138 15.7106 9.34138 15.6866 9.34138C15.6387 9.34138 15.6148 9.34138 15.6148 9.36533C15.5669 9.46112 15.519 9.9401 15.4232 9.96405C15.3992 9.96405 15.3992 9.96405 15.3753 9.96405L15.3992 9.86826Z" fill="#CED4E8"/>
<path d="M10.6334 8.21577C10.5855 8.21577 10.4657 8.19182 10.3939 8.16788C10.3699 8.16788 10.346 8.16788 10.2981 8.16788C10.2741 8.16788 10.2262 8.16788 10.2023 8.16788C10.1544 8.16788 10.1304 8.16788 10.1065 8.16788C10.0586 8.16788 10.0346 8.16788 10.0107 8.14393C9.98674 8.11998 9.86699 8.07208 9.79515 8.07208C9.7712 8.07208 9.74725 8.07208 9.74725 8.09603C9.74725 8.09603 9.74725 8.11998 9.7233 8.11998C9.69935 8.11998 9.6754 8.07208 9.6754 8.02418C9.6754 8.00023 9.69935 8.00023 9.74725 8.00023C9.7712 8.00023 9.81909 8.00023 9.84304 8.00023C9.86699 8.00023 9.89094 7.97628 9.89094 7.97628C9.89094 7.95233 9.89094 7.95233 9.91489 7.95233C9.91489 7.95233 9.93884 7.95233 9.96279 7.95233C10.0346 7.97628 10.1065 8.02418 10.1544 8.02418C10.1783 8.02418 10.1783 8.02418 10.2023 8.02418C10.2262 8.02418 10.2262 8.00023 10.2502 8.00023C10.2981 8.00023 10.322 8.02418 10.346 8.04813L10.4657 8.07208C10.4657 8.04813 10.346 8.00023 10.346 7.95233C10.346 7.92839 10.3939 7.92839 10.4897 7.92839C10.6094 7.92839 10.801 7.95233 10.825 7.95233C10.825 7.95233 10.8729 7.95233 10.8968 7.95233C11.0405 7.95233 11.3279 7.92839 11.3039 7.88049C11.28 7.83259 11.1842 7.78469 11.0884 7.78469H11.0644C11.0165 7.78469 10.8729 7.78469 10.7531 7.78469C10.6334 7.78469 10.5136 7.78469 10.4897 7.76074C10.4657 7.73679 10.2502 7.66495 10.2262 7.5931C10.2023 7.52125 10.2741 7.47335 10.346 7.47335C10.3939 7.47335 10.4178 7.47335 10.4657 7.47335C10.5136 7.47335 10.5615 7.47335 10.6334 7.4973C10.7292 7.5452 10.9686 7.61705 11.0644 7.61705C11.0884 7.61705 11.1123 7.61705 11.1123 7.5931C11.1123 7.52125 10.6334 7.4494 10.6334 7.40151C10.6094 7.35361 11.1602 7.32966 11.3039 7.30571C11.3997 7.30571 12.1182 7.25781 12.6211 7.25781C12.8846 7.25781 13.1001 7.25781 13.1241 7.30571C13.148 7.35361 12.7888 7.37756 12.7888 7.42546C12.7888 7.47335 12.4774 7.5931 12.4056 7.5931C12.3577 7.5931 12.2858 7.5452 12.214 7.5452C12.19 7.5452 12.1661 7.5452 12.1422 7.56915C12.0464 7.641 12.1422 7.76074 12.0943 7.78469C12.0224 7.80864 11.8787 7.83259 11.8787 7.85654C11.9027 7.90444 11.9266 7.88049 11.9266 7.95233C11.9266 8.00023 10.9447 7.95233 10.9686 8.04813C10.9686 8.07208 11.0644 8.09603 11.1842 8.09603C11.256 8.09603 11.3518 8.09603 11.4476 8.09603C11.5434 8.09603 11.6153 8.09603 11.6871 8.09603C11.7829 8.09603 11.8308 8.09603 11.8308 8.11998C11.8548 8.16788 11.2081 8.21577 10.9207 8.21577C10.8489 8.21577 10.801 8.21577 10.801 8.21577C10.7292 8.19182 10.7052 8.04813 10.6813 8.04813C10.6334 8.04813 10.5615 8.09603 10.6094 8.11998C10.6573 8.14393 10.7292 8.19182 10.7052 8.21577H10.6813H10.6334Z" fill="#CED4E8"/>
<path d="M8.43005 8.09589C8.43005 8.09589 8.43005 8.09589 8.4061 8.09589C8.3582 8.07194 8.47795 8.02404 8.43005 8.00009C8.4061 8.00009 8.3582 8.02404 8.28636 8.04799C8.23846 8.07194 8.16661 8.09589 8.14266 8.09589C8.11871 8.09589 8.11871 8.09589 8.11871 8.07194C8.11871 7.95219 8.38215 7.9043 8.5498 7.9043C8.62164 7.9043 8.66954 7.9043 8.66954 7.92825C8.69349 7.97614 8.5019 8.11984 8.43005 8.11984V8.09589Z" fill="#CED4E8"/>
<path d="M9.00482 8.28744C8.98087 8.28744 8.95692 8.28744 8.93297 8.26349C8.86113 8.19164 8.95692 8.19164 8.90902 8.16769C8.90902 8.16769 8.88507 8.16769 8.86113 8.16769C8.83718 8.16769 8.78928 8.16769 8.76533 8.16769C8.71743 8.16769 8.69348 8.16769 8.66953 8.16769C8.64558 8.16769 8.62163 8.16769 8.59769 8.14374C8.57374 8.09584 8.66953 8.024 8.76533 8.00005C8.76533 8.00005 8.76533 8.00005 8.78928 8.00005C8.81323 8.00005 8.83718 8.024 8.88507 8.024C8.93297 8.04794 8.95692 8.04794 9.02877 8.04794C9.05272 8.04794 9.10062 8.04794 9.14851 8.04794C9.24431 8.04794 9.31616 8.04794 9.29221 8.00005C9.26826 7.9761 9.26826 7.95215 9.29221 7.95215C9.31616 7.95215 9.34011 7.9761 9.36405 8.00005C9.4359 8.09584 9.5796 8.00005 9.60355 8.09584C9.62749 8.11979 9.55565 8.14374 9.4838 8.14374C9.45985 8.14374 9.4359 8.14374 9.388 8.14374C9.36405 8.14374 9.34011 8.14374 9.29221 8.14374C9.22036 8.14374 9.17246 8.14374 9.17246 8.16769C9.14851 8.21559 9.05272 8.28744 8.98087 8.28744H9.00482Z" fill="#CED4E8"/>
<path d="M10.0107 7.85612C9.98674 7.85612 9.96279 7.85612 9.91489 7.80822C9.89094 7.78427 9.867 7.78427 9.8191 7.78427C9.79515 7.78427 9.74725 7.78427 9.7233 7.80822C9.69935 7.80822 9.65145 7.83217 9.62751 7.83217C9.53171 7.83217 9.45986 7.78427 9.43591 7.71243C9.43591 7.68848 9.45986 7.68848 9.48381 7.68848C9.50776 7.68848 9.55566 7.68848 9.60356 7.71243C9.65145 7.71243 9.6754 7.73637 9.69935 7.73637C9.69935 7.73637 9.69935 7.73637 9.7233 7.73637C9.79515 7.73637 9.98674 7.78427 10.0107 7.83217C10.0346 7.85612 10.0107 7.88007 9.98674 7.88007L10.0107 7.85612Z" fill="#CED4E8"/>
<path d="M9.02877 7.92832C8.98087 7.92832 8.88508 7.90437 8.86113 7.85647C8.86113 7.83252 8.90903 7.83252 8.98087 7.83252C9.02877 7.83252 9.07667 7.83252 9.10062 7.83252C9.17247 7.83252 9.10062 7.90437 9.07667 7.90437C9.07667 7.90437 9.05272 7.90437 9.02877 7.90437V7.92832Z" fill="#CED4E8"/>
<path d="M10.3699 8.55104C10.322 8.55104 10.2502 8.55104 10.2023 8.52709C10.0346 8.50314 9.98673 8.45524 9.96278 8.40734C9.96278 8.38339 9.96278 8.38339 10.0107 8.38339C10.0346 8.38339 10.0346 8.38339 10.0586 8.38339C10.0825 8.38339 10.0825 8.38339 10.1065 8.38339H10.1304L10.0586 8.31155L10.4178 8.2876L10.3939 8.35944C10.4178 8.38339 10.5136 8.40734 10.5136 8.47919C10.5136 8.52709 10.4657 8.52709 10.3939 8.52709L10.3699 8.55104Z" fill="#CED4E8"/>
<path d="M12.3337 11.4006C12.2619 11.4006 12.1901 11.3767 12.1422 11.3527C12.1182 11.3288 12.0943 11.3048 12.0703 11.3048C12.0464 11.3048 12.0464 11.3048 12.0224 11.3527C12.0224 11.3767 11.9506 11.4006 11.9027 11.4006C11.8548 11.4006 11.8069 11.4006 11.7829 11.3767C11.7111 11.3048 11.8548 11.257 11.9266 11.257C11.9985 11.257 12.0464 11.1851 12.0703 11.1372H12.0943C12.1422 11.1372 12.1661 11.2091 12.1901 11.233C12.214 11.2809 12.3337 11.2809 12.3577 11.3527C12.3577 11.4006 12.3337 11.4006 12.2858 11.4006H12.3337Z" fill="#CED4E8"/>
<path d="M12.7648 11.784C12.6451 11.784 12.5972 11.6164 12.5732 11.5446C12.5493 11.4727 12.4774 11.4967 12.4774 11.4488C12.4774 11.4248 12.5014 11.4248 12.5014 11.4248C12.5732 11.4248 12.693 11.4967 12.7409 11.5206C12.8127 11.5685 12.8127 11.6164 12.7648 11.6403C12.7409 11.6643 12.8606 11.7601 12.7648 11.7601V11.784Z" fill="#CED4E8"/>
<path d="M12.7888 11.9757C12.7648 11.9757 12.7409 11.9518 12.7169 11.9039C12.693 11.88 12.8606 11.8081 12.9564 11.8081C12.9804 11.8081 13.0043 11.8081 13.0043 11.8321C13.0522 11.9039 12.9085 11.9039 12.8367 11.9518C12.8127 11.9757 12.8127 11.9757 12.7888 11.9757Z" fill="#CED4E8"/>
<path d="M13.0762 11.7838C13.0522 11.7838 13.0283 11.7599 13.0283 11.7359C13.0043 11.688 13.0522 11.6641 13.1001 11.6641C13.148 11.6641 13.1959 11.688 13.2199 11.712C13.2678 11.7838 13.172 11.7359 13.1241 11.7599C13.1001 11.7599 13.1001 11.7838 13.0762 11.7838Z" fill="#CED4E8"/>
<path d="M30.7505 8.81445L36.8815 13.6043L34.8219 14.682L34.1992 15.2328L33.9597 14.9694L29.7207 9.94006L30.7505 8.81445Z" fill="#FFA98F"/>
<path d="M21.8415 8.407C21.8176 6.97006 22.9432 5.77261 24.3801 5.72471C25.817 5.70076 27.0145 6.82637 27.0624 8.26331C27.0863 9.70025 25.9607 10.8977 24.5238 10.9456C23.0869 10.9696 21.8894 9.84395 21.8415 8.407ZM19.4706 9.48471C19.5424 12.2388 24.6675 17.2442 24.6675 17.2442C24.6675 17.2442 29.5531 12.0233 29.4812 9.24522C29.4094 6.49108 27.1103 4.28777 24.3562 4.35962C21.602 4.43147 19.3987 6.73057 19.4706 9.48471Z" fill="#FF0000"/>
<path d="M28.9065 62.0767L29.0023 62.9628C29.0741 63.6333 29.0023 64.3279 28.7867 64.9745H23.3503C23.0868 64.9745 22.8713 64.759 22.8713 64.4955V64.4716C22.8713 64.28 22.9671 64.0884 23.1108 63.9686L25.5296 62.0767H28.9065Z" fill="#6E4D65"/>
<path d="M41.0965 28.4047L41.2402 29.2189L42.2221 34.7033L44.1859 45.7917H49.814C49.5026 41.1456 50.6761 33.41 50.5085 28.74C50.4845 28.3089 50.4606 27.8778 50.4127 27.5186C50.3887 27.3509 50.3648 27.1833 50.3408 27.0156L45.9821 27.6862L42.5574 28.2131L41.0726 28.4526L41.0965 28.4047Z" fill="#9DB7E0"/>
<path d="M56.7592 59.8735L56.9508 59.9933C57.6453 60.4244 58.0764 61.2147 58.0524 62.0289V62.1008L55.0588 64.9028H53.3584V64.831C53.2866 64.4238 53.3824 64.0167 53.5979 63.7054C53.9332 63.2264 54.3643 62.3882 54.1727 61.2626L56.7592 59.8975V59.8735Z" fill="#6E4D65"/>
<path d="M31.5648 4.33601C31.5648 4.45576 31.5409 4.5755 31.5409 4.69525C31.5409 5.24608 31.6127 5.79691 31.7804 6.34773C32.5467 8.95818 32.9539 9.74849 33.7442 9.72454C36.1151 9.6527 38.8932 8.21576 38.7256 4.45576C38.6058 1.74952 36.7378 -0.23825 34.4866 0.432323C32.8102 0.935253 31.7085 2.51589 31.5648 4.35996V4.33601Z" fill="#FFA98F"/>
<path d="M35.1572 7.83257L35.2051 8.35945L35.6361 8.3355L39.2764 8.07206C38.9411 7.68888 38.7256 7.01831 38.6058 6.56327C38.5819 6.44353 38.5579 6.32378 38.534 6.25194C38.51 6.15614 38.51 6.08429 38.51 6.08429C38.4382 5.38977 38.2705 5.53347 37.576 5.46162C37.5281 5.46162 37.4802 5.46162 37.4563 5.46162C36.5223 5.38977 35.708 5.91665 35.3488 6.70697C35.3009 6.82671 35.253 6.94646 35.229 7.0662L35.2051 7.1141C35.1572 7.35359 35.1332 7.59308 35.1572 7.83257Z" fill="#FF9880"/>
<path d="M31.1577 4.07255C31.3493 4.26414 31.6367 4.40784 32.0198 4.43179C32.5228 4.45573 32.9299 4.55153 33.2173 4.69523L33.3131 4.74312C33.7202 4.95866 33.9358 5.24605 34.1034 5.55739C34.1992 5.74898 34.2711 5.94057 34.3668 6.10822C34.3908 6.15612 34.4147 6.22796 34.4387 6.27586C34.7979 6.92248 36.4744 6.82669 37.5281 6.37166C38.0071 6.15612 38.3184 6.18006 38.51 6.25191C38.7256 6.32376 38.9651 6.20401 39.0369 5.98847C39.1088 5.72503 39.1806 5.46159 39.2285 5.17421C39.3243 4.59943 39.3243 4.0486 39.2285 3.49777C38.989 2.25242 38.2226 1.17472 36.6899 0.456248C34.295 -0.669357 33.4089 0.743636 32.6665 1.03102C32.5707 1.05497 32.4749 1.07892 32.3791 1.07892C30.9661 0.935228 30.2476 3.21039 31.1577 4.12045V4.07255Z" fill="#AA4D29"/>
<path d="M32.858 5.58117C32.9299 5.9404 33.1215 6.22779 33.337 6.37149L33.4328 6.41939C33.5286 6.46728 33.6244 6.46728 33.7442 6.44333C33.84 6.41939 33.9358 6.37149 34.0076 6.29964C34.1273 6.1799 34.2231 6.01225 34.2471 5.82066C34.295 5.65302 34.295 5.46142 34.2471 5.26983C34.1513 4.719 33.7442 4.31187 33.361 4.38372C33.2412 4.40767 33.1454 4.47951 33.0496 4.57531C32.9778 4.64716 32.9299 4.719 32.9059 4.8148C32.8341 5.00639 32.8102 5.26983 32.858 5.53327V5.58117Z" fill="#FFA98F"/>
<path d="M33.5765 6.15573H33.6963C33.7442 6.15573 33.7921 6.13178 33.84 6.10783V6.08388H33.816C33.7681 6.10783 33.7442 6.13178 33.6963 6.13178C33.4568 6.17968 33.1933 5.91624 33.1454 5.58095C33.1215 5.41331 33.1215 5.24567 33.1933 5.10197C33.2652 4.95828 33.361 4.88643 33.4568 4.86248C33.5286 4.86248 33.5765 4.86248 33.6484 4.88643H33.6723V4.86248C33.6005 4.83853 33.5286 4.81458 33.4568 4.83853C33.337 4.86248 33.2173 4.95828 33.1454 5.10197C33.0736 5.24567 33.0736 5.43726 33.0975 5.6049C33.1694 5.94019 33.361 6.17968 33.6005 6.20363L33.5765 6.15573Z" fill="#EB7675"/>
<path d="M31.5648 4.33594C31.5648 4.45568 31.5409 4.57543 31.5409 4.69517C31.948 4.67122 32.5946 4.81492 32.906 4.88677C32.9539 4.79097 33.0018 4.71912 33.0497 4.64728C32.7862 4.55148 32.427 4.47963 31.9959 4.45568C31.8283 4.45568 31.6846 4.40778 31.5409 4.35989L31.5648 4.33594Z" fill="#EB7675"/>
<path d="M34.0076 6.34761C34.1034 6.5392 34.2711 6.75474 34.5345 6.89844C34.7021 6.99423 34.9416 7.06608 35.2051 7.09003C36.0193 7.18583 37.0731 6.97028 37.5042 6.635C37.9113 6.32366 38.4142 6.44341 38.6298 6.5392C38.6058 6.41946 38.5819 6.29971 38.5579 6.22786H38.534C38.3184 6.15602 38.0071 6.13207 37.5521 6.34761C36.9054 6.635 36.0433 6.77869 35.3727 6.70684C34.9416 6.65895 34.6063 6.51525 34.4626 6.27576C34.4387 6.22786 34.4147 6.17997 34.3908 6.10812C34.3668 6.03627 34.319 5.96443 34.295 5.89258C34.2471 6.08417 34.1753 6.25181 34.0555 6.37156L34.0076 6.34761Z" fill="#EB7675"/>
<path d="M34.8937 8.64662C35.3248 8.81427 35.5643 8.52688 35.5643 8.52688C35.5643 8.52688 35.5882 8.43108 35.6361 8.31134L35.2051 8.33529L35.1572 7.80841C35.1332 7.54497 35.1572 7.30548 35.2051 7.08994L35.229 7.04204L34.9656 6.99414C34.9656 6.99414 34.8458 8.23949 34.9177 8.64662H34.8937Z" fill="#EB7675"/>
<path d="M24.8351 45.7195L25.1944 58.0053L25.3141 61.909C25.3141 61.9809 25.362 62.0527 25.4339 62.1006C25.6733 62.2443 26.3439 62.6035 27.2779 62.6035C28.188 62.6035 28.9544 62.388 29.2657 62.2683C29.3615 62.2443 29.4333 62.1485 29.4333 62.0527C29.6728 57.3348 30.0321 52.7126 30.6068 50.0782C30.99 48.3299 31.0379 46.5338 30.7026 44.7615V44.7136C35.1811 40.1154 38.1747 37.8403 40.378 36.1638C41.0726 35.6369 41.6952 35.1819 42.2461 34.7269C43.1082 34.0324 43.8267 33.3618 44.4733 32.4996C44.8805 31.9967 45.2397 31.4219 45.6229 30.7513C45.7905 30.44 45.9103 30.1287 45.9821 29.8173C46.054 29.5539 46.0779 29.2665 46.1019 29.027C46.1258 28.5241 46.1019 28.0451 46.054 27.7098C46.0061 27.3266 45.9342 27.0871 45.9342 27.0871L36.8336 26.8477C36.5223 27.135 36.2349 27.4224 35.9475 27.7098C35.7319 27.9254 35.5164 28.1409 35.3248 28.3564C31.8522 31.9248 28.2838 37.2894 26.3439 40.4268C25.3381 42.0313 24.8351 43.8994 24.883 45.7674L24.8351 45.7195Z" fill="#9DB7E0"/>
<path d="M35.7559 21.3394C36.1391 22.465 36.2588 23.6145 36.2588 24.6443C36.2588 25.0036 36.2349 25.3389 36.2109 25.6741C36.187 26.0813 36.1391 26.4645 36.0912 26.7997V26.8476C35.708 26.8237 35.6362 27.3506 35.8996 27.6619C36.1391 27.7098 36.5223 27.7817 36.7618 27.8295C37.9353 28.0451 38.9172 28.0451 39.8512 28.0211C41.0726 27.9972 42.1982 27.9732 43.5393 28.4762C47.2754 29.9131 49.8619 27.9732 50.5564 27.3745C50.6761 27.2787 50.724 27.1111 50.7001 26.9674C50.6761 26.8716 50.6522 26.7518 50.6522 26.656C50.5564 26.1052 50.4367 25.5544 50.3169 25.0036C50.2451 24.6683 50.1493 24.333 50.0774 23.9738C48.4728 17.5075 45.2876 11.7598 43.204 9.72409C42.4137 8.95772 40.7133 8.23925 39.3004 8.04766C38.1508 7.90396 34.5584 8.1195 32.5707 9.26906C32.1635 11.7119 32.3072 13.4841 32.7383 14.945C33.4328 17.3399 34.8698 18.9445 35.7798 21.3154L35.7559 21.3394Z" fill="#FF0000"/>
<path d="M44.7368 47.5637C44.4254 47.0129 44.2338 46.4142 44.1859 45.7915H49.814C49.814 45.7915 50.9396 46.2226 51.8257 47.7553C54.1727 51.7548 55.0109 56.3291 57.1663 59.5143C57.2861 59.7059 57.2861 59.9454 57.1424 60.137C56.8071 60.5681 56.0168 61.2386 54.2924 61.526C54.0769 61.55 53.8853 61.4781 53.7416 61.3344C51.9694 59.3706 47.922 52.138 45.6229 48.7372C45.4792 48.5696 45.3594 48.4019 45.2157 48.2583C45.0481 48.0427 44.8805 47.8272 44.7607 47.5877L44.7368 47.5637Z" fill="#9DB7E0"/>
<path d="M24.5238 15.0409C24.8591 15.9509 25.7212 16.5017 26.6553 16.5017C26.9426 16.5017 27.2061 16.4539 27.4935 16.3341L28.4035 15.9749L29.1459 15.6875L33.2412 14.0589C34.4866 13.556 35.4685 12.5502 35.8756 11.2809C36.0433 10.7779 36.1151 10.275 35.9714 9.81997C35.7559 9.1494 35.0853 8.93386 34.4387 8.90991C33.6484 8.86201 32.858 9.07755 32.1875 9.48468L27.4935 12.3586L27.254 12.5023L26.5595 12.9333L25.0267 13.8674L24.907 13.9392C24.5477 14.1547 24.3801 14.6098 24.5477 15.0169L24.5238 15.0409Z" fill="#FFA98F"/>
<path d="M21.5302 8.21565L21.7936 6.27578C21.7936 6.20393 21.7457 6.13209 21.6739 6.13209C21.5302 6.10814 21.3865 6.20393 21.3625 6.34763L20.9314 7.61693L21.5302 8.21565Z" fill="#EB7675"/>
<path d="M19.2071 8.45482L17.866 6.10781C17.842 6.05991 17.842 5.96412 17.9139 5.94017C17.9618 5.89227 18.0576 5.91622 18.1055 5.96412L19.0874 7.16157L18.2252 5.77252C18.1773 5.70068 18.2012 5.62883 18.2491 5.58093C18.321 5.53303 18.3928 5.53303 18.4407 5.60488L19.5184 6.89813L18.6323 5.41329C18.5844 5.34144 18.6084 5.24565 18.6802 5.2217C18.7521 5.1738 18.8239 5.19775 18.8718 5.26959L19.8777 6.70654L19.2071 5.48514C19.1592 5.41329 19.1832 5.31749 19.279 5.26959C19.3508 5.24565 19.4226 5.24565 19.4705 5.31749L21.123 7.54475L19.1832 8.47876L19.2071 8.45482Z" fill="#EB7675"/>
<path d="M20.0214 9.38883L24.7872 15.5198L25.9607 13.532L26.5355 12.9572L26.2721 12.6938L21.5062 8.21533L20.0214 9.38883Z" fill="#FFA98F"/>
<path d="M21.5062 8.21559L21.3386 7.8324C21.2667 7.66476 21.1709 7.49712 21.0272 7.37737C20.7399 7.08998 20.3567 6.94629 19.9495 6.94629C19.8058 6.94629 19.6861 6.97024 19.5903 7.04209C19.5424 7.08998 19.4706 7.13788 19.4227 7.20973C19.1832 7.54501 19.1113 7.95215 19.1832 8.33533C19.279 8.93406 20.0453 9.41304 20.0453 9.41304L21.5062 8.23954V8.21559Z" fill="#FFA98F"/>
<path d="M27.4695 12.3107C27.4695 12.3107 27.9006 14.6098 29.5291 16.0707C29.577 16.0946 29.601 16.1425 29.6489 16.1665C29.7207 16.1425 29.7926 16.1186 29.8644 16.1186C32.5707 15.4001 36.1391 13.3405 36.2588 10.8258C36.2588 10.7061 36.2588 10.6103 36.2588 10.5145C36.163 8.2633 33.6723 8.52674 32.7623 8.93387C32.0198 9.24521 29.1939 11.1611 27.9964 11.9754C27.6611 12.1909 27.4695 12.3346 27.4695 12.3346V12.3107Z" fill="#FF0000"/>
<path d="M29.0741 15.616C29.2178 15.7836 29.3615 15.9273 29.5291 16.071C29.577 16.095 29.601 16.1429 29.6489 16.1668C29.7207 16.1429 29.7926 16.1429 29.8644 16.1189C32.5707 15.4005 36.1391 13.3408 36.2588 10.8262C36.2588 10.7064 36.2588 10.6107 36.2588 10.5149C36.2109 9.509 35.684 9.00607 35.0614 8.79053C35.3009 9.07792 35.4685 9.4611 35.4925 10.0119C35.4925 10.1077 35.4925 10.2275 35.4925 10.3233C35.3727 12.8379 31.8043 14.8975 29.0981 15.616H29.0741Z" fill="#FF0000"/>
<path d="M28.3796 15.9752L29.122 15.6878C27.9485 14.3945 27.5414 12.7181 27.4695 12.3828L27.23 12.5265C27.1821 12.9576 27.0384 14.634 28.3796 15.9752Z" fill="#FF9880"/>
<path d="M35.2769 28.3089C36.9533 28.7879 39.0848 29.0034 41.2402 29.2189C42.6053 29.3626 43.9465 29.4824 45.2158 29.6979C45.4553 29.7458 45.6947 29.7698 45.9342 29.7937C48.3531 30.0093 49.8619 29.195 50.5085 28.74C50.4846 28.3089 50.4606 27.8778 50.4127 27.5186C49.7661 28.0454 48.2333 29.0513 46.054 29.0034C45.2876 28.9794 44.4494 28.8358 43.5393 28.4765C43.204 28.3568 42.8927 28.261 42.5814 28.1891C40.6894 27.758 39.0609 28.2849 36.7618 27.8299C36.5223 27.782 36.1391 27.7101 35.8996 27.6622C35.6841 27.8778 35.4685 28.0933 35.2769 28.3089Z" fill="#7FA5DD"/>
<path d="M42.2221 34.7033L44.1859 45.7917L44.4494 32.5C43.8028 33.3382 43.0843 34.0088 42.2221 34.7273V34.7033Z" fill="#7FA5DD"/>
<path d="M38.2466 29.0511C38.1268 29.099 38.0071 29.1948 37.9592 29.3385L37.1928 31.3023C36.7857 32.3561 37.2647 33.5535 38.3184 34.0325C38.6058 34.1523 38.9172 34.2241 39.2045 34.2241C39.947 34.2241 40.6654 33.817 41.0726 33.1224L42.1263 31.2305C42.1982 31.1107 42.2221 30.967 42.1742 30.8233C42.1263 30.6796 42.0305 30.5838 41.9108 30.512L38.6537 29.0511C38.5819 29.0272 38.51 29.0032 38.4382 29.0032C38.3663 29.0032 38.3184 29.0272 38.2466 29.0511ZM38.2945 34.0565C37.2407 33.5775 36.7378 32.3561 37.1449 31.2784L37.9113 29.3145C37.9592 29.1709 38.0789 29.0511 38.2226 29.0032C38.3663 28.9553 38.51 28.9553 38.6537 29.0032L41.9108 30.4641C42.0545 30.5359 42.1503 30.6557 42.1982 30.7994C42.2461 30.9431 42.2221 31.1107 42.1503 31.2305L41.0965 33.1224C40.8331 33.6014 40.402 33.9607 39.8751 34.1283C39.6596 34.2001 39.4201 34.248 39.2045 34.248C38.8932 34.248 38.5819 34.1762 38.3184 34.0565H38.2945Z" fill="#456390"/>
<path d="M33.337 6.39553C33.4807 6.49133 33.6484 6.58712 33.8639 6.56317C34.0795 6.53922 34.271 6.32368 34.3668 6.08419C34.3429 6.01235 34.295 5.9405 34.271 5.86865C34.1992 6.20394 34.0076 6.44343 33.7681 6.49133C33.6723 6.51528 33.5526 6.49133 33.4568 6.46738L33.361 6.41948L33.337 6.39553Z" fill="#EB7675"/>
<path d="M32.7144 14.9692C33.4089 17.3641 34.8458 18.9687 35.7559 21.3396C36.4504 23.3753 36.3067 25.5067 36.0912 26.8479C37.6958 23.495 36.8096 18.2262 34.9895 15.041C36.7378 13.628 36.2349 10.5146 36.2349 10.5146C36.2349 10.6104 36.2349 10.7302 36.2349 10.826C36.163 12.5024 34.5584 13.9633 32.6904 14.9692H32.7144Z" fill="#FF0000"/>
<path d="M46.2695 26.393C45.6708 26.393 45.096 26.2972 44.5452 26.0816C43.228 25.6027 41.5755 25.1716 39.6835 25.1716C38.7016 25.1716 37.6479 25.2913 36.5702 25.5787C36.666 25.2434 36.7378 24.8842 36.7857 24.5249C37.7916 24.3094 38.7495 24.2136 39.6835 24.2136C41.6953 24.2136 43.4914 24.6686 44.8805 25.1955C45.3355 25.3632 45.7905 25.435 46.2456 25.435C47.5149 25.435 48.7363 24.8602 49.6463 24.2615C49.79 24.1657 49.9337 24.0699 50.0535 23.9741C50.1253 24.3094 50.2211 24.6447 50.293 25.0039C50.0774 25.1476 49.8379 25.2913 49.5984 25.435C48.4489 26.0816 47.3233 26.4169 46.2456 26.4169L46.2695 26.393Z" fill="#D8DEE4"/>
<path d="M36.2349 25.6743C36.2588 25.363 36.2828 25.0277 36.2828 24.6924V24.6685C36.2828 25.0277 36.2588 25.363 36.2349 25.6983V25.6743Z" fill="#D8DEE4"/>
<path d="M36.2349 25.6745C36.2588 25.3631 36.2828 25.0039 36.2828 24.6446C36.4504 24.5967 36.642 24.5489 36.8096 24.5249C36.7617 24.8841 36.6659 25.2434 36.5941 25.5787C36.4744 25.6026 36.3786 25.6505 36.2588 25.6745H36.2349Z" fill="#D2DAE4"/>
<path d="M37.5281 3.78497C37.5281 3.78497 35.5643 2.32408 34.2711 2.32408C34.8219 1.7972 35.1332 1.77325 35.1332 1.77325C35.1332 1.77325 33.7202 0.958984 32.8341 0.958984C32.7862 0.958984 32.7144 0.958984 32.6665 0.958984C33.2173 0.767392 33.816 -0.046875 35.0135 -0.046875C35.4685 -0.046875 36.0193 0.0728701 36.6899 0.384207C38.1987 1.10268 38.989 2.20433 39.2285 3.42573C39.2285 3.42573 38.6537 2.51567 37.3605 2.51567C37.3126 2.51567 37.2647 2.51567 37.2168 2.51567C37.8874 2.99465 37.5521 3.73707 37.5521 3.73707L37.5281 3.78497Z" fill="#B5502D"/>
<path d="M30.1039 16.0707C31.5648 15.6396 33.0497 14.9211 34.1513 14.0829C35.4925 13.0531 36.2349 11.9275 36.2828 10.8258C36.2828 10.7061 36.2828 10.6103 36.2828 10.4905C36.2588 10.2031 36.2109 9.93971 36.1151 9.70022L36.0672 9.67627L36.0433 9.72417C36.1391 9.93971 36.187 10.2031 36.2109 10.4905C36.2109 10.5863 36.2109 10.7061 36.2109 10.8019C36.0912 13.3405 32.4749 15.3043 30.08 15.9988L30.056 16.0467L30.08 16.0707H30.1039Z" fill="#69757F"/>
<path d="M37.5281 38.3675C38.6537 37.4575 39.6117 36.739 40.3781 36.1642L40.4738 36.0924C41.1444 35.5894 41.7192 35.1584 42.2461 34.7033C43.204 33.913 43.8746 33.2424 44.4733 32.4761C44.8805 31.9492 45.2636 31.3744 45.6229 30.7278C45.7905 30.4404 45.9103 30.1291 45.9821 29.7938C46.054 29.5303 46.0779 29.2669 46.1019 28.9795L46.0779 28.9556L46.054 28.9795C46.03 29.2669 46.0061 29.5303 45.9342 29.7698C45.8624 30.1051 45.7426 30.4165 45.575 30.7038C45.2158 31.3505 44.8326 31.9252 44.4254 32.4521C43.8267 33.2185 43.1561 33.8651 42.1982 34.6554C41.6713 35.0865 41.0965 35.5415 40.4259 36.0445L40.3302 36.1163C39.5638 36.6911 38.6058 37.4335 37.5042 38.3196V38.3436H37.5281V38.3675Z" fill="#456390"/>
<path d="M25.1944 57.9816L25.3141 61.8853C25.3141 61.9571 25.362 62.029 25.4339 62.0769C25.6733 62.2206 26.3439 62.5798 27.2779 62.5798C28.188 62.5798 28.9544 62.3643 29.2657 62.2445C29.3615 62.2206 29.4333 62.1248 29.4333 62.029C29.6728 57.311 30.0321 52.6889 30.6068 50.0545C30.99 48.3062 31.0379 46.51 30.7026 44.7378C30.7026 44.7378 29.7926 57.311 25.2183 57.9577L25.1944 57.9816Z" fill="#7FA5DD"/>
<path d="M30.7505 8.8142C30.7505 8.8142 29.7926 7.99993 29.4333 7.88019C29.0502 7.7365 28.7388 7.71255 28.7388 7.71255C28.5951 7.6886 28.4754 7.76044 28.4275 7.90414L28.2359 8.38312C28.2119 8.47891 28.2598 8.57471 28.3317 8.59866C28.4275 8.62261 28.5233 8.59866 28.5472 8.50286L28.7388 8.16758L29.2417 8.47891C29.2417 8.47891 29.2178 9.26923 29.7207 9.93981L30.7266 8.8142H30.7505Z" fill="#FFA98F"/>
</g>
<defs>
<clipPath id="clip0_449_1120">
<rect width="58.0524" height="65" fill="white"/>
</clipPath>
</defs>
</svg>
